<mxfile host="Electron" agent="Mozilla/5.0 (Windows NT 10.0; Win64; x64) AppleWebKit/537.36 (KHTML, like Gecko) draw.io/24.7.8 Chrome/128.0.6613.36 Electron/32.0.1 Safari/537.36" version="24.7.8">
  <diagram name="Page-1" id="U0_GsbifTc2IRmI67Ouy">
    <mxGraphModel dx="3083" dy="829" grid="1" gridSize="10" guides="1" tooltips="1" connect="1" arrows="1" fold="1" page="1" pageScale="1" pageWidth="850" pageHeight="1100" math="1" shadow="0">
      <root>
        <mxCell id="0" />
        <mxCell id="1" parent="0" />
        <mxCell id="N_Q1f8X5Kt0thkg9tTBP-57" value="" style="rounded=0;whiteSpace=wrap;html=1;fillColor=none;dashed=1;" vertex="1" parent="1">
          <mxGeometry x="900" y="1050" width="720" height="440" as="geometry" />
        </mxCell>
        <mxCell id="N_Q1f8X5Kt0thkg9tTBP-56" style="edgeStyle=orthogonalEdgeStyle;rounded=0;orthogonalLoop=1;jettySize=auto;html=1;" edge="1" parent="1" source="N_Q1f8X5Kt0thkg9tTBP-54" target="N_Q1f8X5Kt0thkg9tTBP-12">
          <mxGeometry relative="1" as="geometry" />
        </mxCell>
        <mxCell id="N_Q1f8X5Kt0thkg9tTBP-54" value="" style="rounded=0;whiteSpace=wrap;html=1;fillColor=none;dashed=1;" vertex="1" parent="1">
          <mxGeometry x="890" y="560" width="600" height="400" as="geometry" />
        </mxCell>
        <mxCell id="N_Q1f8X5Kt0thkg9tTBP-13" value="" style="rounded=0;whiteSpace=wrap;html=1;fillColor=none;dashed=1;" vertex="1" parent="1">
          <mxGeometry x="880" y="70" width="400" height="400" as="geometry" />
        </mxCell>
        <mxCell id="KQvg0cTNrWTqxEZgO_hI-59" value="" style="rounded=0;whiteSpace=wrap;html=1;fillColor=none;strokeColor=default;dashed=1;movable=0;resizable=0;rotatable=0;deletable=0;editable=0;locked=1;connectable=0;" parent="1" vertex="1">
          <mxGeometry x="-800" y="112" width="640" height="478" as="geometry" />
        </mxCell>
        <mxCell id="KQvg0cTNrWTqxEZgO_hI-25" value="" style="rounded=1;whiteSpace=wrap;html=1;fillColor=#f5f5f5;fontColor=#333333;strokeColor=#666666;" parent="1" vertex="1">
          <mxGeometry x="400" y="70" width="280" height="290" as="geometry" />
        </mxCell>
        <mxCell id="KQvg0cTNrWTqxEZgO_hI-1" value="" style="rounded=1;whiteSpace=wrap;html=1;fillColor=#f5f5f5;fontColor=#333333;strokeColor=#666666;" parent="1" vertex="1">
          <mxGeometry x="45" y="70" width="310" height="490" as="geometry" />
        </mxCell>
        <mxCell id="KQvg0cTNrWTqxEZgO_hI-2" value="Encryption and key agreement protocols" style="text;html=1;align=center;verticalAlign=middle;whiteSpace=wrap;rounded=0;" parent="1" vertex="1">
          <mxGeometry x="65" y="40" width="270" height="30" as="geometry" />
        </mxCell>
        <mxCell id="KQvg0cTNrWTqxEZgO_hI-15" value="&lt;a href=&quot;https://signal.org/docs/specifications/xeddsa/&quot;&gt;XEdDSA and VXEdDSA&lt;/a&gt;" style="swimlane;fontStyle=0;childLayout=stackLayout;horizontal=1;startSize=30;horizontalStack=0;resizeParent=1;resizeParentMax=0;resizeLast=0;collapsible=1;marginBottom=0;whiteSpace=wrap;html=1;align=center;" parent="1" vertex="1">
          <mxGeometry x="100" y="80" width="200" height="120" as="geometry" />
        </mxCell>
        <mxCell id="KQvg0cTNrWTqxEZgO_hI-16" value="&lt;span style=&quot;&quot;&gt;EdDSA-compatible signatures using public key and private key formats&amp;nbsp;&lt;/span&gt;&lt;span style=&quot;&quot;&gt;initially defined for the X25519 and X448 elliptic curve Diffie-Hellman&amp;nbsp;&lt;/span&gt;&lt;span style=&quot;&quot;&gt;functions&lt;/span&gt;" style="text;strokeColor=none;fillColor=none;align=center;verticalAlign=top;spacingLeft=4;spacingRight=4;overflow=hidden;points=[[0,0.5],[1,0.5]];portConstraint=eastwest;rotatable=0;whiteSpace=wrap;html=1;" parent="KQvg0cTNrWTqxEZgO_hI-15" vertex="1">
          <mxGeometry y="30" width="200" height="90" as="geometry" />
        </mxCell>
        <mxCell id="KQvg0cTNrWTqxEZgO_hI-21" value="&lt;a href=&quot;https://signal.org/docs/specifications/x3dh/&quot;&gt;X3DH&lt;/a&gt;" style="swimlane;fontStyle=0;childLayout=stackLayout;horizontal=1;startSize=30;horizontalStack=0;resizeParent=1;resizeParentMax=0;resizeLast=0;collapsible=1;marginBottom=0;whiteSpace=wrap;html=1;verticalAlign=top;" parent="1" vertex="1">
          <mxGeometry x="100" y="230" width="200" height="120" as="geometry" />
        </mxCell>
        <mxCell id="KQvg0cTNrWTqxEZgO_hI-22" value="&quot;Extended Triple Diffie-Hellman&quot;.&lt;div&gt;Establishes a shared secret key between two parties who mutually&lt;br&gt;authenticate each other based on public keys.&lt;/div&gt;" style="text;strokeColor=none;fillColor=none;align=center;verticalAlign=top;spacingLeft=4;spacingRight=4;overflow=hidden;points=[[0,0.5],[1,0.5]];portConstraint=eastwest;rotatable=0;whiteSpace=wrap;html=1;" parent="KQvg0cTNrWTqxEZgO_hI-21" vertex="1">
          <mxGeometry y="30" width="200" height="90" as="geometry" />
        </mxCell>
        <mxCell id="KQvg0cTNrWTqxEZgO_hI-23" value="&lt;a href=&quot;https://signal.org/docs/specifications/xeddsa/&quot;&gt;XEdDSA and VXEdDSA&lt;/a&gt;" style="swimlane;fontStyle=0;childLayout=stackLayout;horizontal=1;startSize=30;horizontalStack=0;resizeParent=1;resizeParentMax=0;resizeLast=0;collapsible=1;marginBottom=0;whiteSpace=wrap;html=1;" parent="1" vertex="1">
          <mxGeometry x="100" y="380" width="200" height="160" as="geometry" />
        </mxCell>
        <mxCell id="KQvg0cTNrWTqxEZgO_hI-24" value="&quot;Post-Quantum Extended Diffie-Hellman&quot;.&lt;div&gt;Establishes a shared secret key between two parties who mutually authenticate each other based on public keys. PQXDH provides post-quantum forward secrecy.&lt;/div&gt;" style="text;strokeColor=none;fillColor=none;align=center;verticalAlign=middle;spacingLeft=4;spacingRight=4;overflow=hidden;points=[[0,0.5],[1,0.5]];portConstraint=eastwest;rotatable=0;whiteSpace=wrap;html=1;" parent="KQvg0cTNrWTqxEZgO_hI-23" vertex="1">
          <mxGeometry y="30" width="200" height="130" as="geometry" />
        </mxCell>
        <mxCell id="KQvg0cTNrWTqxEZgO_hI-26" value="Message extension and on-device services" style="text;html=1;align=center;verticalAlign=middle;whiteSpace=wrap;rounded=0;" parent="1" vertex="1">
          <mxGeometry x="400" y="40" width="280" height="30" as="geometry" />
        </mxCell>
        <mxCell id="KQvg0cTNrWTqxEZgO_hI-27" value="&lt;a href=&quot;https://signal.org/docs/specifications/doubleratchet/&quot;&gt;Double Ratchet&lt;/a&gt;" style="swimlane;fontStyle=0;childLayout=stackLayout;horizontal=1;startSize=30;horizontalStack=0;resizeParent=1;resizeParentMax=0;resizeLast=0;collapsible=1;marginBottom=0;whiteSpace=wrap;html=1;" parent="1" vertex="1">
          <mxGeometry x="430" y="80" width="220" height="120" as="geometry" />
        </mxCell>
        <mxCell id="KQvg0cTNrWTqxEZgO_hI-28" value="the algorithm is used by two parties to exchange encrypted messages based on a shared secret key. The parties derive new keys for every Double Ratchet message so that earlier keys cannot be calculated from later ones." style="text;strokeColor=none;fillColor=none;align=left;verticalAlign=middle;spacingLeft=4;spacingRight=4;overflow=hidden;points=[[0,0.5],[1,0.5]];portConstraint=eastwest;rotatable=0;whiteSpace=wrap;html=1;" parent="KQvg0cTNrWTqxEZgO_hI-27" vertex="1">
          <mxGeometry y="30" width="220" height="90" as="geometry" />
        </mxCell>
        <mxCell id="KQvg0cTNrWTqxEZgO_hI-31" value="&lt;a href=&quot;https://signal.org/docs/specifications/sesame/&quot;&gt;Sesame&lt;/a&gt;" style="swimlane;fontStyle=0;childLayout=stackLayout;horizontal=1;startSize=30;horizontalStack=0;resizeParent=1;resizeParentMax=0;resizeLast=0;collapsible=1;marginBottom=0;whiteSpace=wrap;html=1;" parent="1" vertex="1">
          <mxGeometry x="430" y="230" width="220" height="120" as="geometry" />
        </mxCell>
        <mxCell id="KQvg0cTNrWTqxEZgO_hI-32" value="the Sesame algorithm for managing message encryption sessions in an asynchronous and multi-device setting." style="text;strokeColor=none;fillColor=none;align=left;verticalAlign=middle;spacingLeft=4;spacingRight=4;overflow=hidden;points=[[0,0.5],[1,0.5]];portConstraint=eastwest;rotatable=0;whiteSpace=wrap;html=1;" parent="KQvg0cTNrWTqxEZgO_hI-31" vertex="1">
          <mxGeometry y="30" width="220" height="90" as="geometry" />
        </mxCell>
        <mxCell id="KQvg0cTNrWTqxEZgO_hI-35" value="Alice" style="shape=umlActor;verticalLabelPosition=bottom;verticalAlign=top;html=1;outlineConnect=0;movable=0;resizable=0;rotatable=0;deletable=0;editable=0;locked=1;connectable=0;" parent="1" vertex="1">
          <mxGeometry x="-720" y="132" width="30" height="60" as="geometry" />
        </mxCell>
        <mxCell id="KQvg0cTNrWTqxEZgO_hI-36" value="Bob" style="shape=umlActor;verticalLabelPosition=bottom;verticalAlign=top;html=1;outlineConnect=0;movable=0;resizable=0;rotatable=0;deletable=0;editable=0;locked=1;connectable=0;" parent="1" vertex="1">
          <mxGeometry x="-260" y="132" width="30" height="60" as="geometry" />
        </mxCell>
        <mxCell id="KQvg0cTNrWTqxEZgO_hI-40" value="Signal Server" style="verticalLabelPosition=bottom;sketch=0;aspect=fixed;html=1;verticalAlign=top;strokeColor=none;align=center;outlineConnect=0;shape=mxgraph.citrix.pbx_server;movable=0;resizable=0;rotatable=0;deletable=0;editable=0;locked=1;connectable=0;" parent="1" vertex="1">
          <mxGeometry x="-503.5" y="124" width="52" height="68" as="geometry" />
        </mxCell>
        <mxCell id="KQvg0cTNrWTqxEZgO_hI-44" value="Goes offline" style="rounded=1;whiteSpace=wrap;html=1;movable=0;resizable=0;rotatable=0;deletable=0;editable=0;locked=1;connectable=0;" parent="1" vertex="1">
          <mxGeometry x="-305" y="310" width="120" height="40" as="geometry" />
        </mxCell>
        <mxCell id="KQvg0cTNrWTqxEZgO_hI-45" value="" style="endArrow=classic;html=1;movable=0;resizable=0;rotatable=0;deletable=0;editable=0;locked=1;connectable=0;" parent="1" source="KQvg0cTNrWTqxEZgO_hI-103" edge="1">
          <mxGeometry width="50" height="50" relative="1" as="geometry">
            <mxPoint x="-240" y="272" as="sourcePoint" />
            <mxPoint x="-470" y="272" as="targetPoint" />
          </mxGeometry>
        </mxCell>
        <mxCell id="KQvg0cTNrWTqxEZgO_hI-46" value="" style="rounded=0;whiteSpace=wrap;html=1;movable=0;resizable=0;rotatable=0;deletable=0;editable=0;locked=1;connectable=0;" parent="1" vertex="1">
          <mxGeometry x="-710" y="220" width="10" height="370" as="geometry" />
        </mxCell>
        <mxCell id="KQvg0cTNrWTqxEZgO_hI-47" value="" style="rounded=0;whiteSpace=wrap;html=1;movable=0;resizable=0;rotatable=0;deletable=0;editable=0;locked=1;connectable=0;" parent="1" vertex="1">
          <mxGeometry x="-250" y="220" width="10" height="90" as="geometry" />
        </mxCell>
        <mxCell id="KQvg0cTNrWTqxEZgO_hI-48" value="" style="rounded=0;whiteSpace=wrap;html=1;movable=0;resizable=0;rotatable=0;deletable=0;editable=0;locked=1;connectable=0;" parent="1" vertex="1">
          <mxGeometry x="-482.5" y="220" width="10" height="370" as="geometry" />
        </mxCell>
        <mxCell id="KQvg0cTNrWTqxEZgO_hI-50" value="" style="endArrow=classic;html=1;movable=0;resizable=0;rotatable=0;deletable=0;editable=0;locked=1;connectable=0;entryX=0.05;entryY=0.34;entryDx=0;entryDy=0;entryPerimeter=0;" parent="1" source="KQvg0cTNrWTqxEZgO_hI-100" target="KQvg0cTNrWTqxEZgO_hI-48" edge="1">
          <mxGeometry width="50" height="50" relative="1" as="geometry">
            <mxPoint x="-696.5" y="320" as="sourcePoint" />
            <mxPoint x="-482.5" y="320" as="targetPoint" />
          </mxGeometry>
        </mxCell>
        <mxCell id="KQvg0cTNrWTqxEZgO_hI-52" value="" style="endArrow=classic;html=1;entryX=0.083;entryY=0.557;entryDx=0;entryDy=0;entryPerimeter=0;movable=0;resizable=0;rotatable=0;deletable=0;editable=0;locked=1;connectable=0;" parent="1" source="KQvg0cTNrWTqxEZgO_hI-102" edge="1">
          <mxGeometry width="50" height="50" relative="1" as="geometry">
            <mxPoint x="-700" y="420" as="sourcePoint" />
            <mxPoint x="-481.6700000000001" y="420.4549999999999" as="targetPoint" />
          </mxGeometry>
        </mxCell>
        <mxCell id="KQvg0cTNrWTqxEZgO_hI-55" value="Back online" style="rounded=1;whiteSpace=wrap;html=1;movable=0;resizable=0;rotatable=0;deletable=0;editable=0;locked=1;connectable=0;" parent="1" vertex="1">
          <mxGeometry x="-305" y="390" width="120" height="40" as="geometry" />
        </mxCell>
        <mxCell id="KQvg0cTNrWTqxEZgO_hI-56" value="" style="rounded=0;whiteSpace=wrap;html=1;movable=0;resizable=0;rotatable=0;deletable=0;editable=0;locked=1;connectable=0;" parent="1" vertex="1">
          <mxGeometry x="-250" y="430" width="10" height="160" as="geometry" />
        </mxCell>
        <mxCell id="KQvg0cTNrWTqxEZgO_hI-57" value="" style="endArrow=classic;html=1;entryX=0.65;entryY=0.641;entryDx=0;entryDy=0;entryPerimeter=0;movable=0;resizable=0;rotatable=0;deletable=0;editable=0;locked=1;connectable=0;" parent="1" source="KQvg0cTNrWTqxEZgO_hI-104" target="KQvg0cTNrWTqxEZgO_hI-48" edge="1">
          <mxGeometry width="50" height="50" relative="1" as="geometry">
            <mxPoint x="-270" y="402" as="sourcePoint" />
            <mxPoint x="-470" y="492" as="targetPoint" />
          </mxGeometry>
        </mxCell>
        <mxCell id="KQvg0cTNrWTqxEZgO_hI-61" value="&lt;a style=&quot;text-wrap: wrap;&quot; href=&quot;https://signal.org/docs/specifications/x3dh/&quot;&gt;X3DH&lt;/a&gt;&amp;nbsp;overview" style="text;html=1;align=center;verticalAlign=middle;resizable=0;points=[];autosize=1;strokeColor=none;fillColor=none;movable=0;rotatable=0;deletable=0;editable=0;locked=1;connectable=0;" parent="1" vertex="1">
          <mxGeometry x="-760" y="82" width="110" height="30" as="geometry" />
        </mxCell>
        <mxCell id="KQvg0cTNrWTqxEZgO_hI-62" value="" style="endArrow=classic;html=1;" parent="1" source="KQvg0cTNrWTqxEZgO_hI-21" target="KQvg0cTNrWTqxEZgO_hI-59" edge="1">
          <mxGeometry width="50" height="50" relative="1" as="geometry">
            <mxPoint x="-250" y="350" as="sourcePoint" />
            <mxPoint x="-200" y="300" as="targetPoint" />
          </mxGeometry>
        </mxCell>
        <mxCell id="KQvg0cTNrWTqxEZgO_hI-84" value="" style="group;fillColor=#e1d5e7;strokeColor=#9673a6;movable=0;resizable=0;rotatable=0;deletable=0;editable=0;locked=1;connectable=0;" parent="1" vertex="1" connectable="0">
          <mxGeometry x="-390" y="600" width="230" height="160" as="geometry" />
        </mxCell>
        <mxCell id="KQvg0cTNrWTqxEZgO_hI-70" value="&lt;ol&gt;&lt;li&gt;\(IK_B\) - uploaded once&lt;/li&gt;&lt;li&gt;\(SPK_B\) - reuploaded periodically&lt;/li&gt;&lt;li&gt;Pre-key signatute&amp;nbsp;&lt;br&gt;\(Sig(IK_B, Encode(SPK_B))\)&lt;br&gt;reuploaded periodically&lt;br&gt;&lt;/li&gt;&lt;li&gt;Set of one-time prekeys&lt;br&gt;&amp;nbsp;\((OPK_B^1, OPK_B^2, OPK_B^3, ...)\)&lt;br&gt;may be uploaded any time&lt;br&gt;&lt;/li&gt;&lt;/ol&gt;" style="rounded=0;whiteSpace=wrap;html=1;align=left;movable=0;resizable=0;rotatable=0;deletable=0;editable=0;locked=1;connectable=0;" parent="KQvg0cTNrWTqxEZgO_hI-84" vertex="1">
          <mxGeometry y="30" width="230" height="130" as="geometry" />
        </mxCell>
        <mxCell id="KQvg0cTNrWTqxEZgO_hI-77" value="Bob&#39;s set of elliptic curve public keys" style="text;html=1;align=center;verticalAlign=middle;resizable=0;points=[];autosize=1;strokeColor=none;fillColor=none;movable=0;rotatable=0;deletable=0;editable=0;locked=1;connectable=0;" parent="KQvg0cTNrWTqxEZgO_hI-84" vertex="1">
          <mxGeometry width="220" height="30" as="geometry" />
        </mxCell>
        <mxCell id="KQvg0cTNrWTqxEZgO_hI-86" value="" style="group;fillColor=#dae8fc;strokeColor=#6c8ebf;movable=0;resizable=0;rotatable=0;deletable=0;editable=0;locked=1;connectable=0;" parent="1" vertex="1" connectable="0">
          <mxGeometry x="-760" y="599.9985185185184" width="230" height="124.2814814814817" as="geometry" />
        </mxCell>
        <mxCell id="KQvg0cTNrWTqxEZgO_hI-81" value="&lt;ol&gt;&lt;li&gt;\(IK_B\)&lt;br&gt;&lt;/li&gt;&lt;li&gt;\(SPK_B\)&lt;br&gt;&lt;/li&gt;&lt;li&gt;\(Sig(IK_B, Encode(SPK_B))\)&lt;br&gt;&lt;/li&gt;&lt;li&gt;(Opt) \(OPK_B\)&lt;/li&gt;&lt;/ol&gt;" style="rounded=0;whiteSpace=wrap;html=1;align=left;movable=0;resizable=0;rotatable=0;deletable=0;editable=0;locked=1;connectable=0;" parent="KQvg0cTNrWTqxEZgO_hI-86" vertex="1">
          <mxGeometry y="29.99576719576737" width="230" height="94.28571428571429" as="geometry" />
        </mxCell>
        <mxCell id="KQvg0cTNrWTqxEZgO_hI-82" value="Alice&#39;s prekey bundle" style="text;html=1;align=center;verticalAlign=middle;resizable=0;points=[];autosize=1;strokeColor=none;fillColor=none;movable=0;rotatable=0;deletable=0;editable=0;locked=1;connectable=0;" parent="KQvg0cTNrWTqxEZgO_hI-86" vertex="1">
          <mxGeometry width="140" height="30" as="geometry" />
        </mxCell>
        <mxCell id="KQvg0cTNrWTqxEZgO_hI-91" style="edgeStyle=orthogonalEdgeStyle;orthogonalLoop=1;jettySize=auto;html=1;rounded=0;curved=0;endArrow=classic;endFill=1;dashed=1;fillColor=#d5e8d4;strokeColor=#82b366;movable=0;resizable=0;rotatable=0;deletable=0;editable=0;locked=1;connectable=0;" parent="1" source="KQvg0cTNrWTqxEZgO_hI-88" target="KQvg0cTNrWTqxEZgO_hI-89" edge="1">
          <mxGeometry relative="1" as="geometry">
            <Array as="points">
              <mxPoint x="-850" y="361" />
              <mxPoint x="-850" y="820" />
            </Array>
          </mxGeometry>
        </mxCell>
        <mxCell id="KQvg0cTNrWTqxEZgO_hI-88" value="Process bundle" style="rounded=1;whiteSpace=wrap;html=1;fillColor=#d5e8d4;strokeColor=#82b366;movable=0;resizable=0;rotatable=0;deletable=0;editable=0;locked=1;connectable=0;" parent="1" vertex="1">
          <mxGeometry x="-765" y="342" width="120" height="38" as="geometry" />
        </mxCell>
        <mxCell id="KQvg0cTNrWTqxEZgO_hI-95" style="edgeStyle=orthogonalEdgeStyle;orthogonalLoop=1;jettySize=auto;html=1;rounded=0;curved=1;strokeColor=#82b366;endArrow=none;endFill=0;dashed=1;fillColor=#d5e8d4;startArrow=classic;startFill=1;movable=0;resizable=0;rotatable=0;deletable=0;editable=0;locked=1;connectable=0;" parent="1" source="KQvg0cTNrWTqxEZgO_hI-89" target="KQvg0cTNrWTqxEZgO_hI-94" edge="1">
          <mxGeometry relative="1" as="geometry" />
        </mxCell>
        <mxCell id="KQvg0cTNrWTqxEZgO_hI-97" value="" style="group;fillColor=#d5e8d4;strokeColor=#82b366;movable=0;resizable=0;rotatable=0;deletable=0;editable=0;locked=1;connectable=0;" parent="1" vertex="1" connectable="0">
          <mxGeometry x="-1120" y="800" width="218.56000000000006" height="232" as="geometry" />
        </mxCell>
        <mxCell id="KQvg0cTNrWTqxEZgO_hI-94" value="" style="shape=image;verticalLabelPosition=bottom;labelBackgroundColor=default;verticalAlign=top;aspect=fixed;imageAspect=0;image=https://signal.org/docs/specifications/x3dh/X3DH.png;movable=0;resizable=0;rotatable=0;deletable=0;editable=0;locked=1;connectable=0;" parent="KQvg0cTNrWTqxEZgO_hI-97" vertex="1">
          <mxGeometry y="32" width="218.56" height="200" as="geometry" />
        </mxCell>
        <mxCell id="KQvg0cTNrWTqxEZgO_hI-96" value="\(DH_i\) calculation between keys:" style="text;html=1;align=center;verticalAlign=middle;resizable=0;points=[];autosize=1;strokeColor=none;fillColor=none;movable=0;rotatable=0;deletable=0;editable=0;locked=1;connectable=0;" parent="KQvg0cTNrWTqxEZgO_hI-97" vertex="1">
          <mxGeometry x="-9.999999999999886" width="200" height="30" as="geometry" />
        </mxCell>
        <mxCell id="N_Q1f8X5Kt0thkg9tTBP-4" style="edgeStyle=orthogonalEdgeStyle;rounded=0;orthogonalLoop=1;jettySize=auto;html=1;movable=0;resizable=0;rotatable=0;deletable=0;editable=0;locked=1;connectable=0;" edge="1" parent="1" source="KQvg0cTNrWTqxEZgO_hI-98" target="KQvg0cTNrWTqxEZgO_hI-94">
          <mxGeometry relative="1" as="geometry" />
        </mxCell>
        <mxCell id="KQvg0cTNrWTqxEZgO_hI-98" value="\(DH_1, DH_2\) provide mutual auth" style="whiteSpace=wrap;html=1;movable=0;resizable=0;rotatable=0;deletable=0;editable=0;locked=1;connectable=0;" parent="1" vertex="1">
          <mxGeometry x="-1300" y="830" width="120" height="60" as="geometry" />
        </mxCell>
        <mxCell id="N_Q1f8X5Kt0thkg9tTBP-5" style="edgeStyle=orthogonalEdgeStyle;rounded=0;orthogonalLoop=1;jettySize=auto;html=1;movable=0;resizable=0;rotatable=0;deletable=0;editable=0;locked=1;connectable=0;" edge="1" parent="1" source="KQvg0cTNrWTqxEZgO_hI-99" target="KQvg0cTNrWTqxEZgO_hI-94">
          <mxGeometry relative="1" as="geometry" />
        </mxCell>
        <mxCell id="KQvg0cTNrWTqxEZgO_hI-99" value="\(DH_3, DH_3\) provide forward secrecy" style="whiteSpace=wrap;html=1;movable=0;resizable=0;rotatable=0;deletable=0;editable=0;locked=1;connectable=0;" parent="1" vertex="1">
          <mxGeometry x="-1300" y="940" width="120" height="60" as="geometry" />
        </mxCell>
        <mxCell id="KQvg0cTNrWTqxEZgO_hI-101" style="edgeStyle=orthogonalEdgeStyle;orthogonalLoop=1;jettySize=auto;html=1;rounded=0;curved=0;dashed=1;fillColor=#dae8fc;strokeColor=#6c8ebf;movable=0;resizable=0;rotatable=0;deletable=0;editable=0;locked=1;connectable=0;" parent="1" source="KQvg0cTNrWTqxEZgO_hI-100" target="KQvg0cTNrWTqxEZgO_hI-81" edge="1">
          <mxGeometry relative="1" as="geometry">
            <Array as="points">
              <mxPoint x="-830" y="280" />
              <mxPoint x="-830" y="677" />
            </Array>
          </mxGeometry>
        </mxCell>
        <mxCell id="KQvg0cTNrWTqxEZgO_hI-100" value="&lt;span style=&quot;text-wrap: nowrap;&quot;&gt;fetches a “prekey bundle&quot;&amp;nbsp;&lt;/span&gt;&lt;div style=&quot;text-wrap: nowrap;&quot;&gt;&lt;span style=&quot;background-color: initial;&quot;&gt;from the server&lt;/span&gt;&lt;/div&gt;" style="rounded=1;whiteSpace=wrap;html=1;fillColor=#dae8fc;strokeColor=#6c8ebf;movable=0;resizable=0;rotatable=0;deletable=0;editable=0;locked=1;connectable=0;" parent="1" vertex="1">
          <mxGeometry x="-777.5" y="250" width="145" height="60" as="geometry" />
        </mxCell>
        <mxCell id="KQvg0cTNrWTqxEZgO_hI-113" style="edgeStyle=orthogonalEdgeStyle;orthogonalLoop=1;jettySize=auto;html=1;rounded=0;curved=0;endArrow=classic;endFill=1;dashed=1;fillColor=#f8cecc;strokeColor=#b85450;movable=0;resizable=0;rotatable=0;deletable=0;editable=0;locked=1;connectable=0;" parent="1" source="KQvg0cTNrWTqxEZgO_hI-102" target="KQvg0cTNrWTqxEZgO_hI-106" edge="1">
          <mxGeometry relative="1" as="geometry">
            <Array as="points">
              <mxPoint x="-870" y="442" />
              <mxPoint x="-870" y="1000" />
            </Array>
          </mxGeometry>
        </mxCell>
        <mxCell id="KQvg0cTNrWTqxEZgO_hI-102" value="&lt;div style=&quot;text-wrap: nowrap;&quot;&gt;&lt;div&gt;sends an&lt;/div&gt;&lt;div&gt;initial message to Bob&lt;/div&gt;&lt;/div&gt;" style="rounded=1;whiteSpace=wrap;html=1;fillColor=#f8cecc;strokeColor=#b85450;movable=0;resizable=0;rotatable=0;deletable=0;editable=0;locked=1;connectable=0;" parent="1" vertex="1">
          <mxGeometry x="-777.5" y="412" width="145" height="60" as="geometry" />
        </mxCell>
        <mxCell id="KQvg0cTNrWTqxEZgO_hI-105" style="edgeStyle=orthogonalEdgeStyle;orthogonalLoop=1;jettySize=auto;html=1;endArrow=classic;endFill=1;dashed=1;rounded=0;curved=0;fillColor=#e1d5e7;strokeColor=#9673a6;movable=0;resizable=0;rotatable=0;deletable=0;editable=0;locked=1;connectable=0;" parent="1" source="KQvg0cTNrWTqxEZgO_hI-103" target="KQvg0cTNrWTqxEZgO_hI-70" edge="1">
          <mxGeometry relative="1" as="geometry">
            <Array as="points">
              <mxPoint x="-120" y="252" />
              <mxPoint x="-120" y="695" />
            </Array>
          </mxGeometry>
        </mxCell>
        <mxCell id="KQvg0cTNrWTqxEZgO_hI-103" value="&lt;span style=&quot;text-wrap: nowrap;&quot;&gt;publishes a set of elliptic&lt;/span&gt;&lt;br style=&quot;text-wrap: nowrap;&quot;&gt;&lt;span style=&quot;text-wrap: nowrap;&quot;&gt;curve public keys&amp;nbsp;&lt;/span&gt;" style="rounded=1;whiteSpace=wrap;html=1;fillColor=#e1d5e7;strokeColor=#9673a6;movable=0;resizable=0;rotatable=0;deletable=0;editable=0;locked=1;connectable=0;" parent="1" vertex="1">
          <mxGeometry x="-305" y="230" width="135" height="60" as="geometry" />
        </mxCell>
        <mxCell id="N_Q1f8X5Kt0thkg9tTBP-2" style="edgeStyle=orthogonalEdgeStyle;rounded=0;orthogonalLoop=1;jettySize=auto;html=1;fillColor=#ffe6cc;strokeColor=#d79b00;dashed=1;movable=0;resizable=0;rotatable=0;deletable=0;editable=0;locked=1;connectable=0;" edge="1" parent="1" source="KQvg0cTNrWTqxEZgO_hI-104" target="KQvg0cTNrWTqxEZgO_hI-125">
          <mxGeometry relative="1" as="geometry">
            <Array as="points">
              <mxPoint x="-80" y="481" />
              <mxPoint x="-80" y="880" />
            </Array>
          </mxGeometry>
        </mxCell>
        <mxCell id="KQvg0cTNrWTqxEZgO_hI-104" value="Fetches and processes Alice’s initial message." style="rounded=1;whiteSpace=wrap;html=1;fillColor=#ffe6cc;strokeColor=#d79b00;movable=0;resizable=0;rotatable=0;deletable=0;editable=0;locked=1;connectable=0;" parent="1" vertex="1">
          <mxGeometry x="-312.5" y="451" width="135" height="60" as="geometry" />
        </mxCell>
        <mxCell id="KQvg0cTNrWTqxEZgO_hI-110" value="" style="group;fillColor=#f8cecc;strokeColor=#b85450;movable=0;resizable=0;rotatable=0;deletable=0;editable=0;locked=1;connectable=0;" parent="1" vertex="1" connectable="0">
          <mxGeometry x="-760" y="950" width="280" height="130" as="geometry" />
        </mxCell>
        <mxCell id="KQvg0cTNrWTqxEZgO_hI-106" value="&lt;ol&gt;&lt;li&gt;\(IK_A\)&lt;/li&gt;&lt;li&gt;\(EK_A\)&lt;br&gt;&lt;/li&gt;&lt;li&gt;ID of \(OPK_B^{ID}\)&lt;/li&gt;&lt;li&gt;Initial ciphertext with some AEAD encryption scheme, using \(SK\) or \(PRF(SK)\)&lt;/li&gt;&lt;/ol&gt;" style="rounded=0;whiteSpace=wrap;html=1;align=left;movable=0;resizable=0;rotatable=0;deletable=0;editable=0;locked=1;connectable=0;" parent="KQvg0cTNrWTqxEZgO_hI-110" vertex="1">
          <mxGeometry y="26" width="280" height="104" as="geometry" />
        </mxCell>
        <mxCell id="KQvg0cTNrWTqxEZgO_hI-107" value="Contents of Alice&#39;s initial message" style="text;html=1;align=center;verticalAlign=middle;resizable=0;points=[];autosize=1;strokeColor=none;fillColor=none;movable=0;rotatable=0;deletable=0;editable=0;locked=1;connectable=0;" parent="KQvg0cTNrWTqxEZgO_hI-110" vertex="1">
          <mxGeometry width="200" height="30" as="geometry" />
        </mxCell>
        <mxCell id="KQvg0cTNrWTqxEZgO_hI-112" value="" style="group;fillColor=#d5e8d4;strokeColor=#82b366;movable=0;resizable=0;rotatable=0;deletable=0;editable=0;locked=1;connectable=0;" parent="1" vertex="1" connectable="0">
          <mxGeometry x="-760" y="760" width="280" height="150" as="geometry" />
        </mxCell>
        <mxCell id="KQvg0cTNrWTqxEZgO_hI-89" value="&lt;ol&gt;&lt;li style=&quot;text-align: left;&quot;&gt;Verifies the prekey signatute and aborts if verification fails&lt;/li&gt;&lt;li style=&quot;text-align: left;&quot;&gt;Generates ephemeral key pair with public key \(EK_A\)&lt;/li&gt;&lt;li style=&quot;text-align: left;&quot;&gt;Calculates SK:&lt;br&gt;&amp;nbsp;\(SK = KDF(DH_1 || DH_2 || DH_3 || DH_4)\)&lt;/li&gt;&lt;/ol&gt;" style="rounded=0;whiteSpace=wrap;html=1;movable=0;resizable=0;rotatable=0;deletable=0;editable=0;locked=1;connectable=0;" parent="KQvg0cTNrWTqxEZgO_hI-112" vertex="1">
          <mxGeometry y="30" width="280" height="120" as="geometry" />
        </mxCell>
        <mxCell id="KQvg0cTNrWTqxEZgO_hI-109" value="Identity verification and secret key generation" style="text;html=1;align=center;verticalAlign=middle;resizable=0;points=[];autosize=1;strokeColor=none;fillColor=none;movable=0;rotatable=0;deletable=0;editable=0;locked=1;connectable=0;" parent="KQvg0cTNrWTqxEZgO_hI-112" vertex="1">
          <mxGeometry width="260" height="30" as="geometry" />
        </mxCell>
        <mxCell id="KQvg0cTNrWTqxEZgO_hI-116" value="" style="group;fillColor=#f8cecc;strokeColor=#b85450;align=left;movable=0;resizable=0;rotatable=0;deletable=0;editable=0;locked=1;connectable=0;" parent="1" vertex="1" connectable="0">
          <mxGeometry x="-1110" y="1080" width="220" height="112" as="geometry" />
        </mxCell>
        <mxCell id="KQvg0cTNrWTqxEZgO_hI-114" value="&lt;div&gt;ciphertext typically has two roles:&lt;/div&gt;&lt;div&gt;1.&amp;nbsp;&lt;span style=&quot;background-color: initial;&quot;&gt;first message within some post-X3DH protocol;&lt;br&gt;2. part of Alice’s&amp;nbsp;&lt;/span&gt;&lt;span style=&quot;background-color: initial;&quot;&gt;X3DH initial message.&lt;/span&gt;&lt;/div&gt;" style="rounded=0;whiteSpace=wrap;html=1;align=left;movable=0;resizable=0;rotatable=0;deletable=0;editable=0;locked=1;connectable=0;" parent="KQvg0cTNrWTqxEZgO_hI-116" vertex="1">
          <mxGeometry y="32" width="220" height="80" as="geometry" />
        </mxCell>
        <mxCell id="KQvg0cTNrWTqxEZgO_hI-115" value="Inital ciphertext notes" style="text;html=1;align=center;verticalAlign=middle;resizable=0;points=[];autosize=1;strokeColor=none;fillColor=none;movable=0;rotatable=0;deletable=0;editable=0;locked=1;connectable=0;" parent="KQvg0cTNrWTqxEZgO_hI-116" vertex="1">
          <mxGeometry width="140" height="30" as="geometry" />
        </mxCell>
        <mxCell id="KQvg0cTNrWTqxEZgO_hI-117" style="edgeStyle=orthogonalEdgeStyle;orthogonalLoop=1;jettySize=auto;html=1;rounded=0;curved=1;fillColor=#f8cecc;strokeColor=#b85450;endArrow=none;endFill=0;movable=0;resizable=0;rotatable=0;deletable=0;editable=0;locked=1;connectable=0;" parent="1" source="KQvg0cTNrWTqxEZgO_hI-106" target="KQvg0cTNrWTqxEZgO_hI-114" edge="1">
          <mxGeometry relative="1" as="geometry" />
        </mxCell>
        <mxCell id="KQvg0cTNrWTqxEZgO_hI-124" style="edgeStyle=orthogonalEdgeStyle;orthogonalLoop=1;jettySize=auto;html=1;startArrow=classic;startFill=1;movable=0;resizable=0;rotatable=0;deletable=0;editable=0;locked=1;connectable=0;" parent="1" source="KQvg0cTNrWTqxEZgO_hI-119" target="KQvg0cTNrWTqxEZgO_hI-121" edge="1">
          <mxGeometry relative="1" as="geometry" />
        </mxCell>
        <mxCell id="KQvg0cTNrWTqxEZgO_hI-119" value="A, B uses \(SK\) to communicate with some post-X3DH encryption" style="rounded=1;whiteSpace=wrap;html=1;movable=0;resizable=0;rotatable=0;deletable=0;editable=0;locked=1;connectable=0;" parent="1" vertex="1">
          <mxGeometry x="-537.5" y="520" width="120" height="60" as="geometry" />
        </mxCell>
        <mxCell id="KQvg0cTNrWTqxEZgO_hI-122" style="edgeStyle=orthogonalEdgeStyle;orthogonalLoop=1;jettySize=auto;html=1;startArrow=classic;startFill=1;movable=0;resizable=0;rotatable=0;deletable=0;editable=0;locked=1;connectable=0;" parent="1" source="KQvg0cTNrWTqxEZgO_hI-120" target="KQvg0cTNrWTqxEZgO_hI-119" edge="1">
          <mxGeometry relative="1" as="geometry">
            <Array as="points">
              <mxPoint x="-580" y="550" />
              <mxPoint x="-580" y="550" />
            </Array>
          </mxGeometry>
        </mxCell>
        <mxCell id="KQvg0cTNrWTqxEZgO_hI-120" value="Uses SK to communicate with Bob" style="rounded=1;whiteSpace=wrap;html=1;align=center;fillColor=#fff2cc;strokeColor=#d6b656;movable=0;resizable=0;rotatable=0;deletable=0;editable=0;locked=1;connectable=0;" parent="1" vertex="1">
          <mxGeometry x="-760" y="520" width="120" height="60" as="geometry" />
        </mxCell>
        <mxCell id="KQvg0cTNrWTqxEZgO_hI-121" value="&lt;div style=&quot;text-align: center;&quot;&gt;&lt;span style=&quot;background-color: initial;&quot;&gt;Uses SK to communicate with Alice&lt;/span&gt;&lt;/div&gt;" style="rounded=1;whiteSpace=wrap;html=1;align=left;fillColor=#fff2cc;strokeColor=#d6b656;movable=0;resizable=0;rotatable=0;deletable=0;editable=0;locked=1;connectable=0;" parent="1" vertex="1">
          <mxGeometry x="-305" y="520" width="120" height="60" as="geometry" />
        </mxCell>
        <mxCell id="KQvg0cTNrWTqxEZgO_hI-129" value="" style="edgeStyle=orthogonalEdgeStyle;orthogonalLoop=1;jettySize=auto;html=1;fillColor=#ffe6cc;strokeColor=#d79b00;movable=0;resizable=0;rotatable=0;deletable=0;editable=0;locked=1;connectable=0;" parent="1" source="KQvg0cTNrWTqxEZgO_hI-125" target="KQvg0cTNrWTqxEZgO_hI-128" edge="1">
          <mxGeometry relative="1" as="geometry" />
        </mxCell>
        <mxCell id="KQvg0cTNrWTqxEZgO_hI-137" style="edgeStyle=orthogonalEdgeStyle;orthogonalLoop=1;jettySize=auto;html=1;fillColor=#ffe6cc;strokeColor=#d79b00;movable=0;resizable=0;rotatable=0;deletable=0;editable=0;locked=1;connectable=0;" parent="1" source="KQvg0cTNrWTqxEZgO_hI-128" target="KQvg0cTNrWTqxEZgO_hI-130" edge="1">
          <mxGeometry relative="1" as="geometry" />
        </mxCell>
        <mxCell id="KQvg0cTNrWTqxEZgO_hI-128" value="&lt;div&gt;Using these keys, Bob repeats the DH and KDF calculations&lt;span style=&quot;background-color: initial;&quot;&gt;&amp;nbsp;to derive SK.&lt;/span&gt;&lt;/div&gt;" style="rounded=0;whiteSpace=wrap;html=1;movable=0;resizable=0;rotatable=0;deletable=0;editable=0;locked=1;connectable=0;" parent="1" vertex="1">
          <mxGeometry x="-390" y="972" width="230" height="60" as="geometry" />
        </mxCell>
        <mxCell id="KQvg0cTNrWTqxEZgO_hI-133" style="edgeStyle=orthogonalEdgeStyle;orthogonalLoop=1;jettySize=auto;html=1;rounded=0;curved=0;fillColor=#ffe6cc;strokeColor=#d79b00;movable=0;resizable=0;rotatable=0;deletable=0;editable=0;locked=1;connectable=0;" parent="1" source="KQvg0cTNrWTqxEZgO_hI-130" target="KQvg0cTNrWTqxEZgO_hI-132" edge="1">
          <mxGeometry relative="1" as="geometry">
            <Array as="points">
              <mxPoint x="-120" y="1125" />
            </Array>
          </mxGeometry>
        </mxCell>
        <mxCell id="KQvg0cTNrWTqxEZgO_hI-136" value="Decryption successed" style="edgeLabel;html=1;align=center;verticalAlign=middle;resizable=0;points=[];movable=0;rotatable=0;deletable=0;editable=0;locked=1;connectable=0;" parent="KQvg0cTNrWTqxEZgO_hI-133" vertex="1" connectable="0">
          <mxGeometry x="0.3806" y="-3" relative="1" as="geometry">
            <mxPoint x="3" y="9" as="offset" />
          </mxGeometry>
        </mxCell>
        <mxCell id="KQvg0cTNrWTqxEZgO_hI-134" style="edgeStyle=orthogonalEdgeStyle;orthogonalLoop=1;jettySize=auto;html=1;rounded=0;curved=0;fillColor=#ffe6cc;strokeColor=#d79b00;movable=0;resizable=0;rotatable=0;deletable=0;editable=0;locked=1;connectable=0;" parent="1" source="KQvg0cTNrWTqxEZgO_hI-130" target="KQvg0cTNrWTqxEZgO_hI-131" edge="1">
          <mxGeometry relative="1" as="geometry">
            <Array as="points">
              <mxPoint x="-440" y="1205" />
              <mxPoint x="-440" y="1340" />
            </Array>
          </mxGeometry>
        </mxCell>
        <mxCell id="KQvg0cTNrWTqxEZgO_hI-135" value="Decryption failed" style="edgeLabel;html=1;align=center;verticalAlign=middle;resizable=0;points=[];movable=0;rotatable=0;deletable=0;editable=0;locked=1;connectable=0;" parent="KQvg0cTNrWTqxEZgO_hI-134" vertex="1" connectable="0">
          <mxGeometry x="0.0667" y="1" relative="1" as="geometry">
            <mxPoint x="9" y="33" as="offset" />
          </mxGeometry>
        </mxCell>
        <mxCell id="KQvg0cTNrWTqxEZgO_hI-130" value="&lt;div&gt;Bob constructs the AD byte sequence using \(IK_A\)&amp;nbsp;and \(IK_B\).&amp;nbsp;&lt;span style=&quot;background-color: initial;&quot;&gt;Bob attempts to decrypt the initial ciphertext&amp;nbsp;&lt;/span&gt;&lt;span style=&quot;background-color: initial;&quot;&gt;using SK and AD.&lt;/span&gt;&lt;/div&gt;" style="rounded=0;whiteSpace=wrap;html=1;movable=0;resizable=0;rotatable=0;deletable=0;editable=0;locked=1;connectable=0;" parent="1" vertex="1">
          <mxGeometry x="-390" y="1090" width="230" height="70" as="geometry" />
        </mxCell>
        <mxCell id="KQvg0cTNrWTqxEZgO_hI-131" value="Abort" style="rounded=0;whiteSpace=wrap;html=1;movable=0;resizable=0;rotatable=0;deletable=0;editable=0;locked=1;connectable=0;" parent="1" vertex="1">
          <mxGeometry x="-480" y="1210" width="80" height="40" as="geometry" />
        </mxCell>
        <mxCell id="N_Q1f8X5Kt0thkg9tTBP-6" style="edgeStyle=orthogonalEdgeStyle;rounded=0;orthogonalLoop=1;jettySize=auto;html=1;fillColor=#ffe6cc;strokeColor=#d79b00;dashed=1;movable=0;resizable=0;rotatable=0;deletable=0;editable=0;locked=1;connectable=0;" edge="1" parent="1" source="KQvg0cTNrWTqxEZgO_hI-132" target="KQvg0cTNrWTqxEZgO_hI-121">
          <mxGeometry relative="1" as="geometry">
            <Array as="points">
              <mxPoint x="-40" y="1230" />
              <mxPoint x="-40" y="550" />
            </Array>
          </mxGeometry>
        </mxCell>
        <mxCell id="KQvg0cTNrWTqxEZgO_hI-132" value="Continue messaging &lt;span style=&quot;background-color: initial;&quot;&gt;using SK&lt;/span&gt;" style="rounded=0;whiteSpace=wrap;html=1;movable=0;resizable=0;rotatable=0;deletable=0;editable=0;locked=1;connectable=0;" parent="1" vertex="1">
          <mxGeometry x="-185" y="1210" width="120" height="40" as="geometry" />
        </mxCell>
        <mxCell id="N_Q1f8X5Kt0thkg9tTBP-3" value="" style="group;fillColor=#ffe6cc;strokeColor=#d79b00;movable=0;resizable=0;rotatable=0;deletable=0;editable=0;locked=1;connectable=0;" vertex="1" connectable="0" parent="1">
          <mxGeometry x="-390" y="810" width="230" height="110" as="geometry" />
        </mxCell>
        <mxCell id="KQvg0cTNrWTqxEZgO_hI-125" value="&lt;div style=&quot;text-align: left;&quot;&gt;Bob retrieves \(IK_A\) and&amp;nbsp;&lt;span style=&quot;background-color: initial;&quot;&gt;\(EK_A\)&amp;nbsp;&lt;/span&gt;&lt;span style=&quot;background-color: initial;&quot;&gt;from the message, loads his &lt;/span&gt;&lt;b style=&quot;background-color: initial;&quot;&gt;private&lt;/b&gt;&lt;span style=&quot;background-color: initial;&quot;&gt;&amp;nbsp;&lt;/span&gt;&lt;span style=&quot;background-color: initial;&quot;&gt;\(IK_B\)&amp;nbsp;&lt;/span&gt;&lt;span style=&quot;background-color: initial;&quot;&gt;and &lt;/span&gt;&lt;b style=&quot;background-color: initial; text-align: center;&quot;&gt;private&lt;/b&gt;&lt;span style=&quot;background-color: initial; text-align: center;&quot;&gt;&amp;nbsp;\(SPK_B\), \(OPK_B\) (if&amp;nbsp;&lt;/span&gt;&lt;span style=&quot;background-color: initial; text-align: center;&quot;&gt;any) was used.&lt;/span&gt;&lt;/div&gt;" style="rounded=0;whiteSpace=wrap;html=1;movable=0;resizable=0;rotatable=0;deletable=0;editable=0;locked=1;connectable=0;" parent="N_Q1f8X5Kt0thkg9tTBP-3" vertex="1">
          <mxGeometry y="30" width="230" height="80" as="geometry" />
        </mxCell>
        <mxCell id="KQvg0cTNrWTqxEZgO_hI-126" value="Process the received initial message" style="text;html=1;align=center;verticalAlign=middle;resizable=0;points=[];autosize=1;strokeColor=none;fillColor=none;movable=0;rotatable=0;deletable=0;editable=0;locked=1;connectable=0;" parent="N_Q1f8X5Kt0thkg9tTBP-3" vertex="1">
          <mxGeometry width="220" height="30" as="geometry" />
        </mxCell>
        <mxCell id="N_Q1f8X5Kt0thkg9tTBP-9" style="edgeStyle=orthogonalEdgeStyle;rounded=0;orthogonalLoop=1;jettySize=auto;html=1;curved=1;dashed=1;movable=0;resizable=0;rotatable=0;deletable=0;editable=0;locked=1;connectable=0;" edge="1" parent="1" source="N_Q1f8X5Kt0thkg9tTBP-8" target="KQvg0cTNrWTqxEZgO_hI-119">
          <mxGeometry relative="1" as="geometry">
            <Array as="points">
              <mxPoint x="-970" y="490" />
              <mxPoint x="-510" y="490" />
            </Array>
          </mxGeometry>
        </mxCell>
        <mxCell id="N_Q1f8X5Kt0thkg9tTBP-8" value="In Signal, the Double Ratchet algorithm is used" style="rounded=0;whiteSpace=wrap;html=1;movable=0;resizable=0;rotatable=0;deletable=0;editable=0;locked=1;connectable=0;" vertex="1" parent="1">
          <mxGeometry x="-1030" y="520" width="120" height="60" as="geometry" />
        </mxCell>
        <mxCell id="N_Q1f8X5Kt0thkg9tTBP-12" value="" style="shape=image;verticalLabelPosition=bottom;labelBackgroundColor=default;verticalAlign=top;aspect=fixed;imageAspect=0;image=data:image/png,iVBORw0KGgoAAAANSUhEUgAAAgAAAAIBCAYAAAA/JAdfAAAAAXNSR0IArs4c6QAAAAlwSFlzAAAJ2AAACdgBx6C5rQAAAdVpVFh0WE1MOmNvbS5hZG9iZS54bXAAAAAAADx4OnhtcG1ldGEgeG1sbnM6eD0iYWRvYmU6bnM6bWV0YS8iIHg6eG1wdGs9IlhNUCBDb3JlIDUuNC4wIj4KICAgPHJkZjpSREYgeG1sbnM6cmRmPSJodHRwOi8vd3d3LnczLm9yZy8xOTk5LzAyLzIyLXJkZi1zeW50YXgtbnMjIj4KICAgICAgPHJkZjpEZXNjcmlwdGlvbiByZGY6YWJvdXQ9IiIKICAgICAgICAgICAgeG1sbnM6dGlmZj0iaHR0cDovL25zLmFkb2JlLmNvbS90aWZmLzEuMC8iPgogICAgICAgICA8dGlmZjpDb21wcmVzc2lvbj41PC90aWZmOkNvbXByZXNzaW9uPgogICAgICAgICA8dGlmZjpQaG90b21ldHJpY0ludGVycHJldGF0aW9uPjI8L3RpZmY6UGhvdG9tZXRyaWNJbnRlcnByZXRhdGlvbj4KICAgICAgICAgPHRpZmY6T3JpZW50YXRpb24+MTwvdGlmZjpPcmllbnRhdGlvbj4KICAgICAgPC9yZGY6RGVzY3JpcHRpb24+CiAgIDwvcmRmOlJERj4KPC94OnhtcG1ldGE+CrDjMt0AAEAASURBVHgB7J0LfFTVtf/XZPIghEACBAJBEqI8RUAQecjjKlzBarEgUJ9FbT9FW6X6aT+1atXr9WqL1YvXW/+CV0ALVQpqESxa7IeXIo8YngkvFUgQERLCI+RBkpn5r7UzZ5iZTCaZZM7MOWd+6/PZzDn77LMf3wXstdd+HCIICIAACIAACIAACIAACIAACIAACIAACIAACIAACIAACIAACIAACIAACIAACIAACIAACIAACIAACIAACIAACIAACIAACIAACIAACIAACIAACIAACIAACIAACIAACIAACIAACIAACIAACIAACIAACIAACIAACIAACIAACIAACIAACIAACIAACIAACIAACIAACIAACIAACIAACIAACIAACIAACIAACIAACIAACIAACIAACIAACIAACIAACIAACIAACIAACIAACIAACIAACIAACIAACIAACIAACIAACIAACIAACIAACIAACIAACIAACIAACIAACIAACIAACIAACIAACIAACIAACIAACIAACIAACIAACIAACIAACIAACIAACIAACIAACIAACIAACIAACIAACIAACIAACIAACIAACIAACIAACIAACIAACIAACIAACIAACIAACIAACIAACIAACIAACIAACIAACIAACIAACIAACIAACIAACIAACIAACIAACIAACIAACIAACIAACIAACIAACIAACIAACIAACIAACIAACIAACIAACIAACIAACIAACIAACIAACIAACIAACIAACIAACIAACIAACIAACIAACIAACICAiQnYTFx3VB0EDEWgatq07Nq4uNttLtcNXLErOWS4XK5EQ1XSZJWx2Ww1XOUSDoUum21dgtO5LPmDD4pM1gxUFwQMSQAGgCHVgkqZiUDVjBk96xyOuWSzzeQOP85MdTdbXdkgcJLLtTzebn8secWKYrPVH/UFASMRgAFgJG2gLqYjUDFjxhSHw7GUK55qusqbu8Lldrv97pQVK1aZuxmoPQhEjwBGK9Fjj5JNTqD8ttvmOJ3Ov3Mz0PlHXpepwl50EPmiUSIIWIMAPADW0CNaEWECMvKXDggu/wiD9ytOpgTi4uKmwhPgBwa3INAMAjAAmgEJSUDAm4DM+dc6HAUch5G/N5joXZcn2O0DsSYgegpAyeYkgCkAc+oNtY4iAbXgD51/FDXQoOhUt04aPEAECIBA4wTgAWicDZ6AQAMCstWvzmY7rLfr//CFC5SWmEgdOXhLWU0NlV68SFnJyVRZV0dnams9jzsnJTVILw9Lqqt90nle4IvclBSKj/MdB5znPE9zOb34mVlEpgLiXa5cbBE0i8ZQTyMQiDdCJVAHEDALAdnnT06nb4+pQ+Vv2rSJHrziCnqkTx9P7ofKy+nmzz6jMZ070/9dcw3916FD9NrXX5PdVm/HO1wuSk9IoB/37ElP9O+vDAh5+b/90nky5IuCSZMoq21b7yj65Pvv6YV9+2gXPzOLiEGmdEM01yx1Rj1BINoEYABEWwMo31QE5JAfVxRqfOD8edX5T8rMpD8PHUpx7k7/6rQ02njDDapGMnLfdfYs/XrXLtpcWkobr7/eM7r3TheF6kekSPcBTDAAIkIbhViBgO4jGStAQhtAwIuAnPAXUSk8d47EI/CjrCx6zavz969Eex79j8vIoFVjxtBB9ha8ffSof5IW3YtnYeW339LW06c974s3Yj57H94+coSKKytVfDkbIMuPHSOZpvCWL9gYyS8r847S6zriutGrIcgXBCJBAAZAJCijDCsRyIhkY/byiF7c/ndnZ9PLQ4bwYYNNL9vpxusDru/ShbaHodOtczrpp9u3058OHlTrBaTtS9iw+PcNG2g3123tyZM04tNPaVNJCbWLj6f/LCykpUVFHkRONh5m8ftFbiPB80Cfi4jqRp8mIFcQiBwBTAFEjjVKAoGQCEgHO4873vO82C+VR/ehSA82Agp52kAT8Qhcv369dqt+Z19+Od3O6wUak4sOh+q8z/KIfs24cdSB63Ciqop+u3s3/YPvh6anq1cXsxfg4R07aNeNN9K9OTm0vLiY5vTurZ7JVEQtGxG3dO/eWDGIBwEQiBIBGABRAo9iTUtAPkyTFYnav89u92euvJI6806AX+3cSWN58d8oDs2Rau6807yMhi68Q+AXvKjQWwZ16OB963NdzZ32j7dsoXWnTqmOXTp/kc+4Q29jt5NMS0gQES/BkYoKZXCIp+L5/ftJ1iz0a9+e3uM2zLzsMkr022mgXgz/H6IbCAiAQDMJwABoJigkAwE3gUL+jYgB8CCP0H/dt68qVlzt9+fl0eYJEwJu9fPXzgEe8Q9zj9DlWTobETO4I26ufMcj/Qk8jTCiY0d6bM8eWjF6tHr1FG8plBH9mhMnfLK6uVs3dZ/Jnoeb+PpvvBbgSd6J8OHx47Sa1yRESEQ3EBAAgWYSwBqAZoJCMhAQAvJJ2kiRkLl8Tf6XF//JfPov8vO1qEZ/P+f5+PwzZ2h6CB2+f2aXcdmvDRumwnr2Amjz+r1TUymRPQBLR46kd0eNUmHRtdeqUX7vdu1UNvfxNMAKNgDkvct4i+FVvFMhEhJJ3USiPSgDBPQmAANAb8LI31IE5Hv06pO0EW6VHAj0Bu/9/5hH3rL6XpOLPBqXQ4MkFLBL/s9ffUW3s+v+Tp7bH9mpk5Ys5N8Et8u+D3f4cqbA4+wFEK+ALC5sxwbAfxQUkKwRkMOInuWFf+/wvH8Sx4tM6NqVv9jrot9zmp/wlEAkRHQiuolEWSgDBKxCAAaAVTSJdkSEgDppjr9HH5HC/AoZz52vLK6TjnUPLxAU2cdz7UPWrlXh1s8/VwbCHwYNovlsLIRLpEw5FVAW+slc/nKeDtjIXobuq1ZR7zVrSLYESpmayBkFs3r1UkZJKNMO2vst+mWd4BTAFpHDSzFMoOk9RTEMB00HgUAE8DGgeirneN9/PHf2Kbz9z1/EK1DECwNleiACgo8BRQAyirAeAXgArKdTtEhnAvLVObvdfnc0pgJ0blpI2cvOAP/OX6YJ5MCgRYcPk2wz1FtEB6ILfAlQb9LI34oEYABYUatok+4E3N+ffzTWjQB/0B/wtr+7t25VWw5HtGINgn++ge7d7B916yJQEsSBAAgEIYApgCBw8AgEmiJQMWPGFIfDsZTTpTaVFs/DSqBcRv7o/MPKFJnFGAF4AGJM4WhueAlIB5Rgtw9kSzoquwPC2xrj5yajfmEtzNH5G19fqKGxCcADYGz9oHYmIlA1bVq2fJLW/VU6+TBNBm+HSzRqE7ST/K4MciJgtOvOHb58WUhO+CuUff6y1Q+r/aOtFZQPAiAAAiBgdgKybx57582uRdQfBFpIoOH+nRZmhNdAAARMRwBTgKZTGSoMAuEjgP8AwscSOYEACIAACICAaQjAADCNqlBREAABEAABEAgfARgA4WOJnEAABEAABEDANARgAJhGVagoCIAACIAACISPAAyA8LFETiAAAiAAAiBgGgIwAEyjKlQUBEAABEAABMJHAAZA+FgiJxAAARAAARAwDQEYAKZRFSoKAiAAAiAAAuEjAAMgfCyREwiAAAiAAAiYhgAMANOoChUFARAAARAAgfARgAEQPpbICQRAAARAAARMQwBfAzSNqlBREAgLgd9wLtnunCa7fz9x/xbx70vua/yAAAiAAAiAAAhYiMBT3BYXB/nMbq07yLXEyTMICIAACIAACICABQnI6N/JQTp87yBx8gwCAiAAAiAAAiBgUQIbuV11HDQDQK4lDgICIAACIAACIGBhAvdw2xwcNANAriUOAgIgAAIgAAIgYGECbbltFRw0A0CuJQ4CAiAQQwSwDTCGlI2mgoCbQCX/LuMgi/8kyLXEQUAABEAABEAABCxOYCy3T/MAyDUEBEAABEAABEAgBgjIGSCy718CBARAIAYJxMdgm9FkEACB+tH/mwABAiAAAiAAAiAQewSyuckSICAAAjFIQNyAEBAAgSgRWLBggczDx6zMnj0b/wfFrPbR8GgTwC6AaGsA5YMACIAACIBAFAjAAIgCdBQJAiAAAiAAAtEmAAMg2hpA+SAAAiAAAiAQBQIwAKIAHUWCAAiAAAiAQLQJwACItgZQPgiAAAiAAAhEgQAMgChAR5EgAAIgAAIgEG0CMACirQGUDwI6ESgoKKAtW7Z4cq+qqqIlS5bQgQMHPHG4AAEQiF0CMABiV/doucUJnDx5koqK6k/6lc7/lVdeoeTkZOrXr5/FW47mgQAINIcADIDmUEIaEDAxAa3zHzBgAE2fPt3Tkh07dtCiRYto5cqVVFFRQbW1tbR8+XJyOBwqzblz5+ijjz7ypMcFCICAtQjAALCWPtEaEPAhUFlZqUb+8fHxdOutt3qeyTTAp59+SmPGjCGn06nSJCQkUHFxMR08eFCl+/LLL5Vh4HkJFyAAApYiAAPAUupEY0DAl8C2bdvoqquuotLSUtq5c6fnYV5eHg0ePJji4uJo0KBBVF5eTiUlJTRy5EjKz89X6eR3xIgRnndwAQIgYC0C+BqgtfSJ1oCADwHp0G+55RbKzc2lhQsXUk5ODqWnp9Px48fJ5XJRTU2NSj969GgSD8DQoUNp9erVVFZWpkb/kh4CAiBgTQLwAFhTr2gVCCgCsuhPROb/hw8fTosXL1Yu/yFDhlBWVhZNmTKFJk+erAyClJQUatu2LfXq1YveffddjP4VOfwBAtYlAAPAurpFy0DAh8C0adNIFvbJ3L94BgoLC2nevHn0zDPPKANBPAAi4vbfu3evSuOTAW5AAAQsRQBTAJZSJxoDApcITJgw4dINXyUmJtKzzz7riZszZ45y9bdp00aN/LUH7du3p4EDB1LHjh21KPyCAAhYkAAMAAsqFU0CgeYS8O/kt27dSuvWraOZM2c2NwukAwEQMCkBGAAmVRyqDQJ6EOjZsyeJZ6Bdu3Z6ZI88QQAEDEQABoCBlIGqgEC0CXTv3j3aVUD5IAACESKARYARAo1iQAAEQAAEQMBIBOABMJI2/OpS9eQPsmsdttttLucNRLYr+XEG791O9EuG2xAI2Gw22fheQuQqdNni1iXYXcuSn19Tf2B+CPkgKQiAAAiYnQAMAANqsOqxH/aso7q5dXU0k1zOOJeqY/2fBqyuqarkNqCyuNJZzPbGOpfthfLHbloeT/GPJc9dXWyqxqCyIAACINAKApgCaAU8PV6tePzmKbUuRwEf0nY7d1bQjx6QvfIUxsJamAt7r0e4BAEQAAFLE0AHYyD1lv/2B3OcTtff2T2daqBqxUhVXKnCXnQQIw1GM0EABGKcAAwAg/wFUKNPG83DqD96ClHsWQfwBERPBygZBEAgcgRgAESOdaMlyZy/w+Fais6/UUQReyA6EF2ITiJWKAoCARAAgSgQgAEQBej+RcqCP7j9/alE896VWq+TaNYBZYMACICAvgSwC0Bfvk3mLlv91Gp/MsYq/xqHk46eraTsDsmUFG9vsv7WTWCbybr5nVm2CFZXV9PJkyepR48eZLdf0pvT6aRjx45RfHy8+vqffAa4jv/CaSLfAcjIyKC4ON+xwPnz5+nMmTNaMp9f+Wpg586dfeJwAwIgYD4CMACirDPZ5y9b/aJcDU/xh89U0LWLPqfN915HV3Vp74nX8+LpjQdp1qAedHl6ip7FhJS3TAXUOuJu55fYOxOyzOc3dnFYxuFsKG+//fbb6hx+7TO+zX23uLiYXn75ZXrxxRepQ4cO6jXp/P/yl79QXl4ePfjgg8oAmD9/Pp06dYr4PASVhttJSUlJNH78eJo6darHENi2bRu99957AYsfNWoU3XvvvQGfIRIEQMA8BGAARFlXcsiPMcb+0QPxxo4impjT2VAGgNCoP4CpRQbAaH59Nof/4fAhh0UcPuXg4BBU8vPzVUccqgHgn6nW+Ut+Dz30EPXv39+TZNKkSSSfBha5cOECFRQU0DvvvKOuZ82a5UkndfjjH//oudcuvD0MWhx+QQAEzEcABkDUdSYn/BnXBFh/tJRy0tpSZa2D5DqZpwV+1C+TOiXXH0j4WfFpdV3Lo81NxWXUPjGeJvTqTD3aJyuyX5VVUNG5SprYK8NDevfJcyq/vp3a0b+OlFKd00Ubik6r5+OyO3nSRf9Cnb7YmmoIpB9xmMGBTx9UhsBb/HuAQ1D59ttv6cSJE8oNLy78IUOG0LBhw4K+oz3UOv8dO3bQww8/TH369NEeNfiVj/6MHDmStHfEOMjMzFTpxEsgUwQQEAABaxKAARB9vV7qGaNflwY1mPvF16qDP8zrAq7p1kF18q9sP0xf/nSsWiPwyrbDdKa6lkoqa2hcz050hNM9sf4ALZs2lMby/To2GpYVHPcxAFbsO0HF56vo6bF96G+FPCfNxoMYF+KVNpIBsOrQ910YyPIGUJqO8N5BkOBOLnp+lMNjHPI5vMlBpggCSmlpKS1dupTuvPNONUcvUwP9+vUjmX8PJlpHvnPnTnrkkUcoNzc3WHLPs+HDh6vpgoMHD3oMAM9DXIAACFiSAAwAS6o1vI2Szn/jT0ZToj2OSiouUp//t562HT/r6aylM99231jq1LbeK/Dbf+2jR9YWUh4bCcHkio4p9P6M4ZQ5by09O76vJ79g78TSM+nwR4wYoZq8fv16NXffq1evoAj++te/Kpe+uOkTEjTbI+gr6qGklbUDp0/Xe2Iksqqqip566imfl8Uj8OSTT/rE4QYEQMCcBGAARF9v4hqWs+kNK7f07qo6f6lgRkoSdU9NorJq+aZOvdzWr5un85eYB4Zl03ye1y86V+VOYc6fKX0yT3HNZ7ag9nv4navc79Xyr/TEIU0ByLve6wBkFb/D0eQSAjp69Cg9/vjjajT/5ptvqs46MbHeMJM8g4m4/NPT0z1JxCi4+eabPfdyIfWAgAAIWIMA/jVHXY+uQq6CoQ2AVJ7XDybaegAtjeYJKOVpgUDiMvCaB9/6Kt34RoV2JwBCWgQYWvYNU8ucf3Z2Nt1///30wgsv0IoVK+iuu+5qmNAvpqysjM6ePUveHgbp7GV9AAQEQMCaBAyz/cyaeJtulXyStulUxk5RUFLuU8H9pRfUfQ6fJRDPo8oanuP3lmPnq71vDXvdCt18wY16kENXDuJB+IRD08N3TtRaSUtLU1lkZWWp3QSbNm2iXbtkR2JwkSkG2Q4o70FAAARig0DwoV1sMIhqK+V79PJJWjMfA7z60En6+4ETdGvfTCqrqqGnNhygyZdnqOmCnLRk2nuqnLZ/d4au7Z6uFgX+85tTNOlyWV9XL4lxNjpWXkUXauqoXRPeBu0dvX/ZHe6MZ920sJwHWvgevfrqq+pVWfUvQZM5c0L/RtGECRNoz549tGTJEsrJySHNOCgvLyfZZSBSWVlJsud/8+bNartgKOsGtLrhFwRAwJwE4AGIst7qT5pztWSleZRrfqn4mQO60YtbvqFuvJiv92vrSaYMXptcPwV+Pe/vn9KnK01culU9f4nTPTAs59LLfDWV1xDM+aSA7lm50yc+ujeu5WY5BbAxTjKnLwf2yNqBxYsXkxz6I/LFF1/Qc889p8Lrr79OFRUVNHv2bBo4cGBjWSEeBEDAggTqjwOzYMPM1CT58Ix8j96M3wO4bUUeDe+eRr+7rjcd51F8WlICpQQYxZ+7WEu83Z/S2zR/ZXr0dGgrT7DZBybPXV2sdx0WLFhg3EMg9G4858+GB/4PigBnFAECgQjAAxCISoTjpKOx2213i9s5wkWHtbis1OSAnb8U0oENAzN0/qID0UUkOv+wwkdmIAACIBAiARgAIQLTK3nKH/6xihfHP2o2IyCXz+/PbGeN0+IUe9aB0oVeika+IAACIGAQAjAADKIIqUbqi2tejYuzTeVT6H2X1Ruojv5V+dPEAXTv4Mv8o014bysX9qIDE1YeVQYBEACBkAnAAAgZmb4vyOhT5p95/dYys3kD9CWjT+7CWFgLc4z89WGMXEEABIxJANsADagX9/zzHfI9evkkbf1X6dSHaTJ4JXfzjnUzYLuMUCXu8OVwHj6Vz1Uo+/xlq1/y8x8XGaFuqAMIgAAIRJIADIBI0g6xLPc2NPkevQQICIAACIAACISNAKYAwoYSGYEACIAACICAeQjAADCPrlBTEAABEAABEAgbARgAYUOJjEAABEAABEDAPARgAJhHV6gpCIAACIAACISNAAyAsKFERiAAAiAAAiBgHgLYBWAeXaGmINAiAvn5+ZSXl0elpaWUmZlJY8eOpb59+wbNS74YmJiYqD4RHDQhHoIACJiWADwAplUdKg4CTRPYsGEDrVq1isaNG0e//OUvaejQobRw4ULavXt30Jfff/99KiwsDJoGD0EABMxNAB4Ac+sPtQeBoATWr19P06dPpwEDBqh06enpVFZWRlu2bKHBgwfTmjVraPz48ZSSkkInTpygw4cPU7du3ejIkSN0/vx5ys7Opk6dOgUtAw9BAATMSQAeAHPqDbUGgSYJiMv/zJkz1K9fP5+0V199Ne3fv58cDgdt376dqqur1XMxDPbt20ddu3alLl26UP/+/Sk1NdXnXdyAAAhYhwAMAOvoEi0BAR8C33//PXXs2JESEhJ84tu0aUMXL16kmho5FbmhiDdAgoz8ZR0ABARAwJoEYABYU69oFQiokby49cUL4C0HDhygDh06UHJysne0xxPgE4kbEAAByxKAAWBZ1aJhsU4gIyNDufHXrl1L/BEphUNG/bIuYOLEieq+bdu2dPbsWXV96NAhH2TaOz6RuAEBELAMASwCtIwq0RAQaEjgvvvuo7feeoueeOIJ5dIvKSmhMWPGeAyAG2+8kZYsWUJpaWnKIxAXVz8myM3NpZUrV1JWVpbaOtgwZ8SAAAiYnYDN7A1A/UHAzAQWLFhQPzTXuREVFRV07tw5NS1gt9t9SpPFgBL85/tlnYDE8SeUfdKH82b27Nn6ZR7OiiIvELAgAXgALKhUNAkE/AloC/v84+VeDAJ/o0Dik5KS5AcCAiBgUQJYA2BRxaJZIAACIAACIBCMAAyAYHTwDARAAARAAAQsSgAGgEUVi2aBAAiAAAiAQDACMACC0cEzELAwgePHj5MECAiAAAiAAAiAQGwRWMbNlQABARCIQQLYBRCDSkeTQcBNAB5A/FUAgRgmgP8AYlj5aDoIgAAIgEDsEoABELu6R8tBAARAAARimAAMgBhWPpoOAiAAAiAQuwRgAMSu7tFyEAABEACBGCYAAyCGlY+mgwAIgAAIxC4B7AKIXd2j5SDQnRH05LAcKExD4B2u6UrT1BYVNTQBGACGVg8qBwIgAAIeAqPcVzAAPEhw0RoCMABaQw/vgoC5CXzH1Zcw09zNiJnaw1MTM6qOTEOxBiAynFEKCIAACIAACBiKAAwAQ6kDlQEBEAABEACByBCAARAZzigFBEAABEAABAxFwGao2qAyIAACehP4DReQ7S5ksvv3E/dvEf++5L7GjzEIQF/G0ANqAQIgAAKmJ/AUt8DFoYZDrTvItcTJM4ixCEBfxtIHagMCIAACpiUgo38nB+nwvYPEyTOIsQhAX8bSB2oDAiAAAqYmsJFrX8dBMwDkWuIgxiQAfRlTL6gVCIAACJiOwD1cYwcHzQCQa4mDGJMA9GVMvaBWIAACIGA6Am25xhUcNANAriUOYkwC0Jcx9WL6WmEboOlViAaAQMgEKvmNZRxk8Z8EuZY4iDEJQF/G1AtqBQIgAAKmJDCWa615AOQaYmwC0Jex9YPagQAIgIBpCNi4pkXuYJpKx3BFoa8YVr5eTcfHgPQii3xBwNgEZPT/prGriNp5EYC+vGDgEgRAAARAoHUEsvl1CRBzEIC+zKEn09RS3EoQEACBMBComjYtuzYu7naby3UDZ3clhwyXy5UYhqxjNgubzSaLFEs4FLpstnUJTuey5A8+kKmLVgv01WqEDTLQU18NCkNEqwnAAGg1QmQQ6wSqZszoWedwzCWbbSZ3+NhZo+NfCO5gnORyLY+32x9LXrGiuCVFQV8todayd8Khr5aVjLeaQwAGQHMoIQ0INEKgYsaMKQ6HYyk/Tm0kCaL1IVBut9vvTlmxYlUo2UNfodAKa9oW6SusNUBmDQhgtNIACSJAoHkEym+7bY7T6fw7p0bn3zxk4UyVKuxFB83NFPpqLild0oWsL11qgUx9CMAD4IMDNyDQPAIykpQOCC7/5vHSK5W4mOPi4qY25QmAvvTSQGj5NldfoeWK1C0lAAOgpeTwXswSkDnkWoejgAFg5G+MvwXlCXb7wMbWBEBfxlCSVy2C6ssrHS51JoApAJ0BI3vrEVAL/tD5G0mxqW6dBKwT9BUQSzQjg+ormhWLtbLhAYg1jaO9rSIgW8fqbLbDerv+D1+4QGmJidSRg7eU1dRQ6cWLlJWcTJV1dXSmttbzuHNSUoP08rCkutonnecFvshNSaH4ON9xwHnO8zSX04ufmUXEtRzvcuX6bxEMt76E/44zZ+iiw0HD0tMpk/VgdDGiPhvTl9FZWq1+OAnQahpFe3QlIPv8yen07TF1KPGmTZvowSuuoEf69PHkfqi8nG7+7DMa07kz/d8119B/HTpEr339Ndlt9Xa8w+Wi9IQE+nHPnvRE//7KgJCX/9svnSdDviiYNImy2vp+CPCT77+nF/bto138zCwiBpnSDdFc7zqHS1/S4f9m9256++hR6sm8ktho+oqNtEmZmfQG6yLdz1DzroP/9dMFBTQrJ4cub9fO/1GL7g+eP0/Ljx2jp66UoycaihH12Zi+GtYeMXoSgAGgJ13kbTkCcsiPnMkaaTnA/8lL5y8dzp+HDqU4d6d/dVoabbzhBlUdGentOnuWfr1rF20uLaWN11/vGd17p4t03SNVnvsAJh8DIFz6umfbNtrPOtg6YQIN6NBBNem7qiq6Y8sWmszG2mbWgb8npbF2v/HNNzSxa9ewGQBFlZW08MiRRg2AxuoR7fhA+op2nWKtfN1HMrEGFO21PIHAwywdm1147hyJR+BHWVn0mlfn719kex79j8vIoFVjxtBB9hbIaDUcIp6Fld9+S1tPn/ZkJ96I+ex9eJs7nmLugETK2QCRkai4yb3lCzZG8svKvKP0ug6km0BxIZW/qaSEZBT9zsiRns5fMujO7v8PrruOjlZU0JKiIpXnV8zlXydP+uS/m42yLcxAuAifOua54dQpknzrnE4Vd5afffTdd/TywYO06vhxqmaPgybrOa3w9pZ/cNpvmfsezvszzkc8FJL3Ea5LU2IgfbZaN021Fc+DE4ABEJwPnoKAP4EM/wg97/fyf/Ay8r87O5teHjKEDxtsetlON+6Yru/ShbaHodOVDuqn27fTn7hjkvUCIkvYsPj3DRtIOra13NmN+PRT1Zm1i4+n/ywspKXuzlDSOrmzm8Xvyyg1AhJIN4HiQqqKdMgjOnakq9jb4i+deN2FGGaruUMWWced9fM8feItK7hjfp1H/WIA/K24WHX60qlv5FDNfH+Wl0cz2ZMwj6dqxJj4/d69NGnjRhKjQGTu/v3KAPHO87c8HfEl61c8PmJIXOR8JG9ZOxJMDKbPVusmWFvxrGkCmAJomhFSgEBUCEgHO4873vO82C+VR/ehSA82AgrZZa2JeASuX79eu1W/sy+/nG7n9QKNiYwqpfOWjmjNuHHUgetwgt3e0vn8g++H8iI4kcXsBXh4xw7adeONdC/PbS/njmhO797qmUxF1HLndEv37urejH/IXH+f1MZ3fMoz8XI0JVfwnP/77DHI/PBDenbgQOWtucC6FRF9Lbr2WnUtnpTxrKtXv/qKnm5kXl8l5D9+wrwz27Shn3/5pcpbiw/0C30GohLbcTAAYlv/aH3oBEr4lazQXwv9jffZ7f4MdwCdeYHZr3bupLG8+G8Uh+aIuJDTvIyGLjxS/QUvKvSWQe65bO847VpGpj/mUamMaKVjl85f5DPu6NrY7STTEhJEZFQprmcxOMRT8TyPWGXNQr/27ek9bsPMyy6jRL+dBurF8P8huvGXVutL6i5GTGMi7W9t+37OxpgmYuwJx5XseWjKANDeaerXoPoMpK+mmoLnYSQAAyCMMJFVTBAo5FZGxAB4kDuFX/ftq6CKq/1+dhVv5kVo/lsDA1E/wCN+2aamiaxSn8EdcXNFFrhN4GkEcX0/tmcPrRg9Wr16ircUSme45sQJn6xu7tZN3cu2uJv4+m/s9n6SdyJ8yJ3Yal6TECER3fhLq/XVh0fuYgg1JnvYEOodxEPAK94be9UT76/TTqyvEt7u2Zg0naPvmwbVZyB9+VYcd7oSwBoAXfEic6sRkE/SRqpNMpevyf/y4j+ZT/9Ffr4W1ejv5zwnnM971aeH0OH7Z3YZl/3asGEqyHy1Nq8vHV0iewCW8oK4d0eNUkFc1zLK7+3e1nYfu6Vl3lveu4y3zAWaO/cvLxz3gXQTKC7Usu7g0fg+9mhIe/zlG54eEGPoLvdUSjyv0ajx8xYcY2OqKdnn9qZo6aS8bPf2TNldUOO1KFDyPxXEONDy8P41oj7DoRvvNuI6dAIwAEJnhjdimIB8j14OMYk0Ahkhyn7zj7mzkdX3msjiL1n4JaGAO5E/87zx7ey6v5M7pJGdOmnJQv5NcLvsZX5bzhR4nL0AMoqUxYXt2AD4D97LLnPKchjRs7zw7x2e90/ieJEJvMVNRr2/5zQ/4c4zEiI6Ed34lxUOfQ3kqZKf5ebSPVu3Ko+GtFk6YVnEdwsv0Pw33nnxQ14IKJLDCyX3sh62u3dMrGPPzT95B4G3yHTBMV4Uqc3/y7PneOHg16xDEdkxIAaXzO+LSJ6reJHhae70xfsi5wjISn5NJD+Z8hH9+BsfWhqj6bMxfWn1xW9kCMAAiAxnlGIRAuqkOf4efTSaM547X1lcJx2rbP8SkZHikLVrVbj188+VgfCHQYNoPhsL4RIpU04FlIV+0tks5+mAjexl6L5qFfVes0ZtUZMyNZEzCmb16qWMklCmHbT3W/TLOvE/BVDyCZe+ZAfG79gQkjMWslavVm2XswFu69HDMz0i5YmBNIUXPE7kVfzdeLHfS7yI8wGv+X1JM5XfmcMsxaDQRHYSyCJNeWfq5s30EDO/w+1V+BVfy0JMYZ3z0UdqPcaVvL5Ck0G8O6EHewv6f/wxLWNDrCkxhD4b0VdTdcfz8BKwhTc75AYC1ieAj8vU6/gcr1YXl3cKb//zF/EKFPHCQG1lu//zMN8H/bhMuPV1nEfv4nnJDXKSn7CRKZumTggUL4AYUnkTJ6r8TvAaC9kRoB305M1JdmDItsPWLjj0ztP7OoL6DKov7zrhWl8C8ADoyxe5W5CAfHXObrffHY2pACPhlJ0B/p2/uKHlwKBFhw+TbDPUW0QHoovGvgQo5YdbX3J0crDOX8oUNk11/pLOW8RNL8cMB+r8JZ2sCdGr85f8I6HP5uhL6gKJDAEYAJHhjFIsRsD9/flHY90I8FfrB7zt7252bcuWwxGtWIPgn2+gezf7R926CJTEE2dUfcl3HAazC19bP+GpsEEuwqnPUPRlkOZbvhqYArC8itFAPQlUzJgxxeFwLOUyGj8pRs8KxG7e5TLyb07n740I+vKmEdHrFukrojWMwcLgAYhBpaPJ4SMgHVCC3T6QLemo7A4IX0vMkZOMIoW1MA+185cWQl+R1XNr9RXZ2sZeafAAxJ7O0WKdCMi35+Xzs+6vnF3JxWTwdrhEnYprdbbaSX5XBjkRsNWFtDID7kDkQHw5Ma5Q9o3Ltr5Aq/1bUozZ9NWSNkb6HT31Fem2oDwQAAEQsDIB2TffYO+8lRuMtoEACFwi0HD/zqVnuAIBELA2AUwBWlu/aB0IBCWA/wCC4sFDEAABEAABELAmARgA1tQrWgUCIAACIAACQQnAAAiKBw9BAARAAARAwJoEYABYU69oFQiAAAiAAAgEJQADICgePAQBEAABEAABaxKAAWBNvaJVIAACIAACIBCUAAyAoHjwEARAAARAAASsSQAGgDX1ilaBAAiAAAiAQFACMACC4sFDEAABEAABELAmARgA1tQrWgUCIAACIAACQQnAAAiKBw9BAARAAARAwJoE8DVAa+oVrQKBxgj8hh9kux9Odv9+4v4t4t+X3Nf4AQEQAAEQAAEQsBCBp7gtLg7ymd1ad5BriZNnEBAAARAAARAAAQsSkNG/k4N0+N5B4uQZBARAAARAAARAwKIENnK76jhoBoBcSxwEBEAABEAABEDAwgTu4bY5OGgGgFxLHAQEQAAEQAAEQMDCBNpy2yo4aAaAXEscBARAIIYIYBtgDCkbTQUBN4FK/l3GQRb/SZBriYOAAAiAAAiAAAhYnMBYbp/mAZBrCAiAAAiAAAiAQAwQkDNAZN+/BAgIgEAMEoiPwTajySAAAvWj/zcBAgRAAARAAARAIPYIZHOTJUBAAARikIC4ASEgAAJRIrBgwQKZh49ZmT17Nv4Pilnto+HRJoBdANHWAMoHARAAARAAgSgQgAEQBegoEgRAAARAAASiTQAGQLQ1gPJBAARAAARAIAoEYABEATqKBAEQAAEQAIFoE4ABEG0NoHwQAAEQAAEQiAIBGABRgI4iQQAEQAAEQCDaBGAARFsDKB8EdCJQUFBAW7Zs8eReVVVFS5YsoQMHDnjicAECIBC7BGAAxK7u0XKLEzh58iQVFdWf9Cud/yuvvELJycnUr18/i7cczQMBEGgOARgAzaGENCBgYgJa5z9gwACaPn26pyU7duygRYsW0cqVK6miooJqa2tp+fLl5HA4VJpz587RRx995EmPCxAAAWsRgAFgLX2iNSDgQ6CyslKN/OPj4+nWW2/1PJNpgE8//ZTGjBlDTqdTpUlISKDi4mI6ePCgSvfll18qw8DzEi5AAAQsRQAGgKXUicaAgC+Bbdu20VVXXUWlpaW0c+dOz8O8vDwaPHgwxcXF0aBBg6i8vJxKSkpo5MiRlJ+fr9LJ74gRIzzv4AIEQMBaBPA1QGvpE60BAR8C0qHfcsstlJubSwsXLqScnBxKT0+n48ePk8vlopqaGpV+9OjRJB6AoUOH0urVq6msrEyN/iU9BARAwJoE4AGwpl7RKhBQBGTRn4jM/w8fPpwWL16sXP5DhgyhrKwsmjJlCk2ePFkZBCkpKdS2bVvq1asXvfvuuxj9K3L4AwSsSwAGgHV1i5aBgA+BadOmkSzsk7l/8QwUFhbSvHnz6JlnnlEGgngARMTtv3fvXpXGJwPcgAAIWIoApgAspU40BgQuEZgwYcKlG75KTEykZ5991hM3Z84c5epv06aNGvlrD9q3b08DBw6kjh07alH4BQEQsCABGAAWVCqaBALNJeDfyW/dupXWrVtHM2fObG4WSAcCIGBSAjAATKo4VBsE9CDQs2dPEs9Au3bt9MgeeYIACBiIAAwAAykDVQGBaBPo3r17tKuA8kEABCJEAIsAIwQaxYAACIAACICAkQjAA2AkbfjVperJH2TXOmy321zOG4hsV/LjDN67neiXDLchELDZbLLxvYTIVeiyxa1LsLuWJT+/pv7A/BDyQVIQAAEQMDsBGAAG1GDVYz/sWUd1c+vqaCa5nHEuVcf6Pw1YXVNVyW1AZXGls5jtjXUu2wvlj920PJ7iH0ueu7rYVI1BZUEABECgFQQwBdAKeHq8WvH4zVNqXY4CPqTtdu6soB89IHvlKYyFtTAX9l6PcAkCIAACliaADsZA6i3/7Q/mOJ2uv7N7OtVA1YqRqrhShb3oIEYajGaCAAjEOAEYAAb5C6BGnzaah1F/9BSi2LMO4AmIng5QMgiAQOQIwACIHOtGS5I5f4fDtRSdf6OIIvZAdCC6EJ1ErFAUBAIgAAJRIAADIArQ/YuUBX9w+/tTiea9K7VeJ9GsA8oGARAAAX0JYBeAvnybzF22+qnV/mSMVf41DicdPVtJ2R2SKSne3mT9rZvANpN18zuzbBGsrq6mkydPUo8ePchuv6Q3p9NJx44do/j4ePX1P/kMcB3/hdNEvgOQkZFBcXG+Y4Hz58/TmTNntGQ+v/LVwM6dO/vE4QYEQMB8BGAARFlnss9ftvpFuRqe4g+fqaBrF31Om++9jq7q0t4Tr+fF0xsP0qxBPejy9BQ9iwkpb5kKqHXE3c4vsXcmZJnPb+zisIzD2VDefvvtt9U5/NpnfJv7bnFxMb388sv04osvUocOHdRr0vn/5S9/oby8PHrwwQeVATB//nw6deoU8XkIKg23k5KSkmj8+PE0depUjyGwbds2eu+99wIWP2rUKLr33nsDPkMkCICAeQjAAIiyruSQH2OM/aMH4o0dRTQxp7OhDAChUX8AU4sMgNH8+mwO/8PhQw6LOHzKwcEhqOTn56uOOFQDwD9TrfOX/B566CHq37+/J8mkSZNIPg0scuHCBSooKKB33nlHXc+aNcuTTurwxz/+0XOvXXh7GLQ4/IIACJiPAAyAqOtMTvgzrgmw/mgp5aS1pcpaB8l1Mk8L/KhfJnVKrj+Q8LPi0+q6lkebm4rLqH1iPE3o1Zl6tE9WZL8qq6Cic5U0sVeGh/Tuk+dUfn07taN/HSmlOqeLNhSdVs/HZXfypIv+hTp9sTXVEEg/4jCDA58+qAyBt/j3AIeg8u2339KJEyeUG15c+EOGDKFhw4YFfUd7qHX+O3bsoIcffpj69OmjPWrwKx/9GTlyJGnviHGQmZmp0omXQKYIICAAAtYkAAMg+nq91DNGvy4NajD3i69VB3+Y1wVc062D6uRf2X6YvvzpWLVG4JVth+lMdS2VVNbQuJ6d6Aine2L9AVo2bSiN5ft1bDQsKzjuYwCs2HeCis9X0dNj+9DfCnlOmo0HMS7EK20kA2DVoe+7MJDlDaA0HeG9gyDBnVz0/CiHxzjkc3iTg0wRBJTS0lJaunQp3XnnnWqOXqYG+vXrRzL/Hky0jnznzp30yCOPUG5ubrDknmfDhw9X0wUHDx70GACeh7gAARCwJAEYAJZUa3gbJZ3/xp+MpkR7HJVUXKQ+/289bTt+1tNZS2e+7b6x1KltvVfgt//aR4+sLaQ8NhKCyRUdU+j9GcMpc95aenZ8X09+wd6JpWfS4Y8YMUI1ef369WruvlevXkER/PWvf1UufXHTJyRotkfQV9RDSStrB06frvfESGRVVRU99dRTPi+LR+DJJ5/0icMNCICAOQnAAIi+3sQ1LGfTG1Zu6d1Vdf5SwYyUJOqemkRl1fJNnXq5rV83T+cvMQ8My6b5PK9fdK7KncKcP1P6ZJ7ims9sQe338DtXud+r5V/piUOaApB3vdcByCp+h6PJJQR09OhRevzxx9Vo/s0331SddWJivWEmeQYTcfmnp6d7kohRcPPNN3vu5ULqAQEBELAGAfxrjroeXYVcBUMbAKk8rx9MtPUAWhrNE1DK0wKBxGXgNQ++9VW68Y0K7U4AhLQIMLTsG6aWOf/s7Gy6//776YUXXqAVK1bQXXfd1TChX0xZWRmdPXuWvD0M0tnL+gAICICANQkYZvuZNfE23Sr5JG3TqYydoqCk3KeC+0svqPscPksgnkeVNTzH7y3Hzld73xr2uhW6+YIb9SCHrhzEg/AJh6aH75yotZKWlqayyMrKUrsJNm3aRLt2yY7E4CJTDLIdUN6DgAAIxAaB4EO72GAQ1VbK9+jlk7RmPgZ49aGT9PcDJ+jWvplUVlVDT204QJMvz1DTBTlpybT3VDlt/+4MXds9XS0K/Oc3p2jS5bK+rl4S42x0rLyKLtTUUbsmvA3aO3r/sjvcGc+6aWE5D7TwPXr11VfVq7LqX4Imc+aE/o2iCRMm0J49e2jJkiWUk5NDmnFQXl5OsstApLKykmTP/+bNm9V2wVDWDWh1wy8IgIA5CcADEGW91Z8052rJSvMo1/xS8TMHdKMXt3xD3XgxX+/X1pNMGbw2uX4K/Hre3z+lT1eauHSrev4Sp3tgWM6ll/lqKq8hmPNJAd2zcqdPfHRvXMvNcgpgY5xkTl8O7JG1A4sXLyY59Efkiy++oOeee06F119/nSoqKmj27Nk0cODAxrJCPAiAgAUJ1B8HZsGGmalJ8uEZ+R69Gb8HcNuKPBrePY1+d11vOs6j+LSkBEoJMIo/d7GWeLs/pbdp/sr06OnQVp5gsw9Mnru6WO86LFiwwLiHQOjdeM6fDQ/8HxQBzigCBAIRgAcgEJUIx0lHY7fb7ha3c4SLDmtxWanJATt/KaQDGwZm6PxFB6KLSHT+YYWPzEAABEAgRAIwAEIEplfylD/8YxUvjn/UbEZALp/fn9nOGqfFKfasA6ULvRSNfEEABEDAIARgABhEEVKN1BfXvBoXZ5vKp9D7Lqs3UB39q/KniQPo3sGX+Ueb8N5WLuxFByasPKoMAiAAAiETgAEQMjJ9X5DRp8w/8/qtZWbzBuhLRp/chbGwFuYY+evDGLmCAAgYkwC2ARpQL+755zvke/TySdr6r9KpD9Nk8Eru5h3rZsB2GaFK3OHL4Tx8Kp+rUPb5y1a/5Oc/LjJC3VAHEAABEIgkARgAkaQdYlnubWjyPXoJEBAAARAAARAIGwFMAYQNJTICARAAARAAAfMQgAFgHl2hpiAAAiAAAiAQNgIwAMKGEhmBAAiAAAiAgHkIwAAwj65QUxAAARAAARAIGwEYAGFDiYxAAARAAARAwDwEsAvAPLpCTUGgRQTy8/MpLy+PSktLKTMzk8aOHUt9+/YNmpd8MTAxMVF9IjhoQjwEARAwLQF4AEyrOlQcBJomsGHDBlq1ahWNGzeOfvnLX9LQoUNp4cKFtHv37qAvv//++1RYWBg0DR6CAAiYmwA8AObWH2oPAkEJrF+/nqZPn04DBgxQ6dLT06msrIy2bNlCgwcPpjVr1tD48eMpJSWFTpw4QYcPH6Zu3brRkSNH6Pz585SdnU2dOnUKWgYeggAImJMAPADm1BtqDQJNEhCX/5kzZ6hfv34+aa+++mrav38/ORwO2r59O1VXV6vnYhjs27ePunbtSl26dKH+/ftTamqqz7u4AQEQsA4BGADW0SVaAgI+BL7//nvq2LEjJSQk+MS3adOGLl68SDU1cipyQxFvgAQZ+cs6AAgIgIA1CcAAsKZe0SoQUCN5ceuLF8BbDhw4QB06dKDk5GTvaI8nwCcSNyAAApYlAAPAsqpFw2KdQEZGhnLjr127lvgjUgqHjPplXcDEiRPVfdu2bens2bPq+tChQz7ItHd8InEDAiBgGQJYBGgZVaIhINCQwH333UdvvfUWPfHEE8qlX1JSQmPGjPEYADfeeCMtWbKE0tLSlEcgLq5+TJCbm0srV66krKwstXWwYc6IAQEQMDsBm9kbgPqDgJkJLFiwoH5ornMjKioq6Ny5c2pawG63+5QmiwEl+M/3yzoBieNPKPukD+fN7Nmz9cs8nBVFXiBgQQLwAFhQqWgSCPgT0Bb2+cfLvRgE/kaBxCclJckPBARAwKIEsAbAoopFs0AABEAABEAgGAEYAMHo4BkIgAAIgAAIWJQADACLKhbNAgEQAAEQAIFgBGAABKODZyBgYQLHjx8nCRAQAAEQAAEQAIHYIrCMmysBAgIgEIMEsAsgBpWOJoOAmwA8gPirAAIxTAD/AcSw8tF0EAABEACB2CUAAyB2dY+WgwAIgAAIxDABGAAxrHw0HQRAAARAIHYJwACIXd2j5SAAAiAAAjFMAAZADCsfTQcBEAABEIhdAtgFELu6R8tBoDsj6MlhOVCYhsA7XNOVpqktKmpoAjAADK0eVA4EQAAEPARGua9gAHiQ4KI1BGAAtIYe3gUBcxP4jqsvYaa5mxEztYenJmZUHZmGYg1AZDijFBAAARAAARAwFAEYAIZSByoDAiAAAiAAApEhAAMgMpxRCgiAAAiAAAgYioDNULVBZUAABPQm8BsuINtdyGT37yfu3yL+fcl9jR9jEIC+jKEH1AIEQAAETE/gKW6Bi0MNh1p3kGuJk2cQYxGAvoylD9QGBEAABExLQEb/Tg7S4XsHiZNnEGMRgL6MpQ/UBgRAAARMTWAj176Og2YAyLXEQYxJAPoypl5QKxAAARAwHYF7uMYODpoBINcSBzEmAejLmHpBrUAABEDAdATaco0rOGgGgFxLHMSYBKAvY+rF9LXCNkDTqxANAIGQCVTyG8s4yOI/CXItcRBjEoC+jKkX1AoEQAAETElgLNda8wDINcTYBKAvY+sHtQMBEAAB0xCwcU2L3ME0lY7hikJfMax8vZqOjwHpRRb5goCxCcjo/01jVxG18yIAfXnBwCUIgAAIgEDrCGTz6xIg5iAAfZlDT6appbiVICAAAmEgUDVtWnZtXNztNpfrBs7uSg4ZLpcrMQxZx2wWNptNFimWcCh02WzrEpzOZckffCBTF60W6KvVCBtkoKe+GhSGiFYTgAHQaoTIINYJVM2Y0bPO4ZhLNttM7vCxs0bHvxDcwTjJ5Voeb7c/lrxiRXFLioK+WkKtZe+EQ18tKxlvNYcADIDmUEIaEGiEQMWMGVMcDsdSfpzaSBJE60Og3G63352yYsWqULKHvkKhFda0LdJXWGuAzBoQwGilARJEgEDzCJTfdtscp9P5d06Nzr95yMKZKlXYiw6amyn01VxSuqQLWV+61AKZ+hCAB8AHB25AoHkEZCQpHRBc/s3jpVcqcTHHxcVNbcoTAH3ppYHQ8m2uvkLLFalbSgAGQEvJ4b2YJSBzyLUORwEDwMjfGH8LyhPs9oGNrQmAvoyhJK9aBNWXVzpc6kwAUwA6A0b21iOgFvyh8zeSYlPdOglYJ+grIJZoRgbVVzQrFmtlwwMQaxpHe1tFQLaO1dlsh/V2/R++cIHSEhOpIwdvKaupodKLFykrOZkq6+roTG2t53HnpKQG6eVhSXW1TzrPC3yRm5JC8XG+44DznOdpLqcXPzOLiGs53uXK9d8iGG59Cf8dZ87QRYeDhqWnUybrwehiRH02pi+js7Ra/XASoNU0ivboSkD2+ZPT6dtj6lDiTZs20YNXXEGP9Onjyf1QeTnd/NlnNKZzZ/q/a66h/zp0iF77+muy2+rteIfLRekJCfTjnj3pif79lQEhL/+3XzpPhnxRMGkSZbX1/RDgJ99/Ty/s20e7+JlZRAwypRuiud51Dpe+pMP/ze7d9PbRo9STeSWx0fQVG2mTMjPpDdZFup+h5l0H/+unCwpoVk4OXd6unf+jFt0fPH+elh87Rk9dKUdPNBQj6rMxfTWsPWL0JAADQE+6yNtyBOSQHzmTNdJygP+Tl85fOpw/Dx1Kce5O/+q0NNp4ww2qOjLS23X2LP161y7aXFpKG6+/3jO6904X6bpHqjz3AUw+BkC49HXPtm20n3WwdcIEGtChg2rSd1VVdMeWLTSZjbXNrAN/T0pj7X7jm29oYteuYTMAiioraeGRI40aAI3VI9rxgfQV7TrFWvm6j2RiDSjaa3kCgYdZOja78Nw5Eo/Aj7Ky6DWvzt+/yPY8+h+XkUGrxoyhg+wtkNFqOEQ8Cyu//Za2nj7tyU68EfPZ+/A2dzzF3AGJlLMBIiNRcZN7yxdsjOSXlXlH6XUdSDeB4kIqf1NJCcko+p2RIz2dv2TQnd3/H1x3HR2tqKAlRUUqz6+Yy79OnvTJfzcbZVuYgXARPnXMc8OpUyT51jmdKu4sP/vou+/o5YMHadXx41TNHgdN1nNa4e0t/+C03zL3PZz3Z5yPeCgk7yNcl6bEQPpstW6aaiueBycAAyA4HzwFAX8CGf4Ret7v5f/gZeR/d3Y2vTxkCB822PSynW7cMV3fpQttD0OnKx3UT7dvpz9xxyTrBUSWsGHx7xs2kHRsa7mzG/Hpp6ozaxcfT/9ZWEhL3Z2hpHVyZzeL35dRagQkkG4CxYVUFemQR3TsSFext8VfOvG6CzHMVnOHLLKOO+vnefrEW1Zwx/w6j/rFAPhbcbHq9KVT38go398kAAAmz0lEQVShmvn+LC+PZrInYR5P1Ygx8fu9e2nSxo0kRoHI3P37lQHinedveTriS9aveHzEkLjI+UjesnYkmBhMn63WTbC24lnTBDAF0DQjpACBqBCQDnYed7znebFfKo/uQ5EebAQUsstaE/EIXL9+vXarfmdffjndzusFGhMZVUrnLR3RmnHjqAPX4QS7vaXz+QffD+VFcCKL2Qvw8I4dtOvGG+lenttezh3RnN691TOZiqjlzumW7t3VvRn/kLn+PqmN7/iUZ+LlaEqu4Dn/99ljkPnhh/TswIHKW3OBdSsi+lp07bXqWjwp41lXr371FT3dyLy+Ssh//IR5Z7ZpQz//8kuVtxYf6Bf6DEQltuNgAMS2/tH60AmU8CtZob8W+hvvs9v9Ge4AOvMCs1/t3EljefHfKA7NEXEhp3kZDV14pPoLXlToLYPcc9necdq1jEx/zKNSGdFKxy6dv8hn3NG1sdtJpiUkiMioUlzPYnCIp+J5HrHKmoV+7dvTe9yGmZddRol+Ow3Ui+H/Q3TjL63Wl9RdjJjGRNrf2vb9nI0xTcTYE44r2fPQlAGgvdPUr0H1GUhfTTUFz8NIAAZAGGEiq5ggUMitjIgB8CB3Cr/u21dBFVf7/ewq3syL0Py3BgaifoBH/LJNTRNZpT6DO+Lmiixwm8DTCOL6fmzPHloxerR69RRvKZTOcM2JEz5Z3dytm7qXbXE38fXf2O39JO9E+JA7sdW8JiFCIrrxl1brqw+P3MUQakz2sCHUO4iHgFe8N/aqJ95fp51YXyW83bMxaTpH3zcNqs9A+vKtOO50JYA1ALriReZWIyCfpI1Um2QuX5P/5cV/Mp/+i/x8LarR3895Tjif96pPD6HD98/sMi77tWHDVJD5am1eXzq6RPYALOUFce+OGqWCuK5llN/bva3tPnZLy7y3vHcZb5kLNHfuX1447gPpJlBcqGXdwaPxfezRkPb4yzc8PSDG0F3uqZR4XqNR4+ctOMbGVFOyz+1N0dJJednu7Zmyu6DGa1Gg5H8qiHGg5eH9a0R9hkM33m3EdegEYACEzgxvxDAB+R69HGISaQQyQpT95h9zZyOr7zWRxV+y8EtCAXcif+Z549vZdX8nd0gjO3XSkoX8m+B22cv8tpwp8Dh7AWQUKYsL27EB8B+8l13mlOUwomd54d87PO+fxPEiE3iLm4x6f89pfsKdZyREdCK68S8rHPoayFMlP8vNpXu2blUeDWmzdMKyiO8WXqD5b7zz4oe8EFAkhxdK7mU9bHfvmFjHnpt/8g4Cb5HpgmO8KFKb/5dnz/HCwa9ZhyKyY0AMLpnfF5E8V/Eiw9Pc6Yv3Rc4RkJX8mkh+MuUj+vE3PrQ0RtNnY/rS6ovfyBCAARAZzijFIgTUSXP8PfpoNGc8d76yuE46Vtn+JSIjxSFr16pw6+efKwPhD4MG0Xw2FsIlUqacCigL/aSzWc7TARvZy9B91SrqvWaN2qImZWoiZxTM6tVLGSWhTDto77fol3Xifwqg5BMufckOjN+xISRnLGStXq3aLmcD3Najh2d6RMoTA2kKL3icyKv4u/Fiv5d4EecDXvP7kmYqvzOHWYpBoYnsJJBFmvLO1M2b6SFmfofbq/ArvpaFmMI656OP1HqMK3l9hSaDeHdCD/YW9P/4Y1rGhlhTYgh9NqKvpuqO5+ElYAtvdsgNBKxPAB+XqdfxOV6tLi7vFN7+5y/iFSjihYHaynb/52G+D/pxmXDr6ziP3sXzkhvkJD9hI1M2TZ0QKF4AMaTyJk5U+Z3gNRayI0A76Mmbk+zAkG2HrV1w6J2n93UE9RlUX951wrW+BOAB0JcvcrcgAfnqnN1uvzsaUwFGwik7A/w7f3FDy4FBiw4fJtlmqLeIDkQXjX0JUMoPt77k6ORgnb+UKWya6vwlnbeIm16OGQ7U+Us6WROiV+cv+UdCn83Rl9QFEhkCMAAiwxmlWIyA+/vzj8a6EeCv1g9429/d7NqWLYcjWrEGwT/fQPdu9o+6dREoiSfOqPqS7zgMZhe+tn7CU2GDXIRTn6HoyyDNt3w1MAVgeRWjgXoSqJgxY4rD4VjKZTR+UoyeFYjdvMtl5N+czt8bEfTlTSOi1y3SV0RrGIOFwQMQg0pHk8NHQDqgBLt9IFvSUdkdEL6WmCMnGUUKa2EeaucvLYS+Iqvn1uorsrWNvdLgAYg9naPFOhGQb8/L52fdXzm7kovJ4O1wiToV1+pstZP8rgxyImCrC2llBtyByIH4cmJcoewbl219gVb7t6QYs+mrJW2M9Dt66ivSbUF5IAACIGBlArJvvsHeeSs3GG0DARC4RKDh/p1Lz3AFAiBgbQKYArS2ftE6EAhKAP8BBMWDhyAAAiAAAiBgTQIwAKypV7QKBEAABEAABIISgAEQFA8eggAIgAAIgIA1CcAAsKZe0SoQAAEQAAEQCEoABkBQPHgIAiAAAiAAAtYkAAPAmnpFq0AABEAABEAgKAEYAEHx4CEIgAAIgAAIWJMADABr6hWtAgEQAAEQAIGgBGAABMWDhyAAAiAAAiBgTQIwAKypV7QKBEAABEAABIISgAEQFA8eggAIgAAIgIA1CeBrgNbUK1oFAo0R+A0/yHY/nOz+/cT9W8S/L7mv8QMCIAACIAACIGAhAk9xW1wc5DO7te4g1xInzyAgAAIgAAIgAAIWJCCjfycH6fC9g8TJMwgIgAAIgAAIgIBFCWzkdtVx0AwAuZY4CAiAAAiAAAiAgIUJ3MNtc3DQDAC5ljgICIAACIAACICAhQm05bZVcNAMALmWOAgIgEAMEcA2wBhSNpoKAm4Clfy7jIMs/pMg1xIHAQEQAAEQAAEQsDiBsdw+zQMg1xAQAAEQAAEQAIEYICBngMi+fwkQEACBGCQQH4NtRpNBAATqR/9vAgQIgAAIgAAIgEDsEcjmJkuAgAAIxCABcQNCQAAEokRgwYIFMg8fszJ79mz8HxSz2kfDo00AuwCirQGUDwIgAAIgAAJRIAADIArQUSQIgAAIgAAIRJsADIBoawDlgwAIgAAIgEAUCMAAiAJ0FAkCIAACIAAC0SYAAyDaGkD5IAACIAACIBAFAjAAogAdRYIACIAACIBAtAnAAIi2BlA+COhEoKCggLZs2eLJvaqqipYsWUIHDhzwxOECBEAgdgnAAIhd3aPlFidw8uRJKiqqP+lXOv9XXnmFkpOTqV+/fhZvOZoHAiDQHAIwAJpDCWlAwMQEtM5/wIABNH36dE9LduzYQYsWLaKVK1dSRUUF1dbW0vLly8nhcKg0586do48++siTHhcgAALWIgADwFr6RGtAwIdAZWWlGvnHx8fTrbfe6nkm0wCffvopjRkzhpxOp0qTkJBAxcXFdPDgQZXuyy+/VIaB5yVcgAAIWIoADABLqRONAQFfAtu2baOrrrqKSktLaefOnZ6HeXl5NHjwYIqLi6NBgwZReXk5lZSU0MiRIyk/P1+lk98RI0Z43sEFCICAtQjga4DW0idaAwI+BKRDv+WWWyg3N5cWLlxIOTk5lJ6eTsePHyeXy0U1NTUq/ejRo0k8AEOHDqXVq1dTWVmZGv1LeggIgIA1CcADYE29olUgoAjIoj8Rmf8fPnw4LV68WLn8hwwZQllZWTRlyhSaPHmyMghSUlKobdu21KtXL3r33Xcx+lfk8AcIWJcADADr6hYtAwEfAtOmTSNZ2Cdz/+IZKCwspHnz5tEzzzyjDATxAIiI23/v3r0qjU8GuAEBELAUAUwBWEqdaAwIXCIwYcKESzd8lZiYSM8++6wnbs6cOcrV36ZNGzXy1x60b9+eBg4cSB07dtSi8AsCIGBBAjAALKhUNAkEmkvAv5PfunUrrVu3jmbOnNncLJAOBEDApARgAJhUcag2COhBoGfPniSegXbt2umRPfIEARAwEAEYAAZSBqoCAtEm0L1792hXAeWDAAhEiAAWAUYINIoBARAAARAAASMRgAfASNrwq0vVkz/IrnXYbre5nDcQ2a7kxxm8dzvRLxluQyBgs9lk43sJkavQZYtbl2B3LUt+fk39gfkh5IOkIAACIGB2AjAADKjBqsd+2LOO6ubW1dFMcjnjXKqO9X8asLqmqpLbgMriSmcx2xvrXLYXyh+7aXk8xT+WPHd1sakag8qCAAiAQCsIYAqgFfD0eLXi8Zun1LocBXxI2+3cWUE/ekD2ylMYC2thLuy9HuESBEAABCxNAB2MgdRb/tsfzHE6XX9n93SqgaoVI1VxpQp70UGMNBjNBAEQiHECMAAM8hdAjT5tNA+j/ugpRLFnHcATED0doGQQAIHIEYABEDnWjZYkc/4Oh2spOv9GEUXsgehAdCE6iVihKAgEQAAEokAABkAUoPsXKQv+4Pb3pxLNe1dqvU6iWQeUDQIgAAL6EsAuAH35Npm7bPVTq/3JGKv8axxOOnq2krI7JFNSvL3J+ls3gW0m6+Z3ZtkiWF1dTSdPnqQePXqQ3X5Jb06nk44dO0bx8fHq63/yGeA6/guniXwHICMjg+LifMcC58+fpzNnzmjJfH7lq4GdO3f2icMNCICA+QjAAIiyzmSfv2z1i3I1PMUfPlNB1y76nDbfex1d1aW9J17Pi6c3HqRZg3rQ5ekpehYTUt4yFVDriLudX2LvTMgyn9/YxWEZh7OhvP3222+rc/i1z/g2993i4mJ6+eWX6cUXX6QOHTqo16Tz/8tf/kJ5eXn04IMPKgNg/vz5dOrUKeLzEFQabiclJSXR+PHjaerUqR5DYNu2bfTee+8FLH7UqFF07733BnyGSBAAAfMQgAEQZV3JIT/GGPtHD8QbO4poYk5nQxkAQqP+AKYWGQCj+fXZHP6Hw4ccFnH4lIODQ1DJz89XHXGoBoB/plrnL/k99NBD1L9/f0+SSZMmkXwaWOTChQtUUFBA77zzjrqeNWuWJ53U4Y9//KPnXrvw9jBocfgFARAwHwEYAFHXmZzwZ1wTYP3RUspJa0uVtQ6S62SeFvhRv0zqlFx/IOFnxafVdS2PNjcVl1H7xHia0Ksz9WifrMh+VVZBRecqaWKvDA/p3SfPqfz6dmpH/zpSSnVOF20oOq2ej8vu5EkX/Qt1+mJrqiGQfsRhBgc+fVAZAm/x7wEOQeXbb7+lEydOKDe8uPCHDBlCw4YNC/qO9lDr/Hfs2EEPP/ww9enTR3vU4Fc++jNy5EjS3hHjIDMzU6UTL4FMEUBAAASsSQAGQPT1eqlnjH5dGtRg7hdfqw7+MK8LuKZbB9XJv7L9MH3507FqjcAr2w7TmepaKqmsoXE9O9ERTvfE+gO0bNpQGsv369hoWFZw3McAWLHvBBWfr6Knx/ahvxXynDQbD2JciFfaSAbAqkPfd2EgyxtAaTrCewdBgju56PlRDo9xyOfwJgeZIggopaWltHTpUrrzzjvVHL1MDfTr149k/j2YaB35zp076ZFHHqHc3NxgyT3Phg8frqYLDh486DEAPA9xAQIgYEkCMAAsqdbwNko6/40/GU2J9jgqqbhIff7fetp2/Kyns5bOfNt9Y6lT23qvwG//tY8eWVtIeWwkBJMrOqbQ+zOGU+a8tfTs+L6e/IK9E0vPpMMfMWKEavL69evV3H2vXr2CIvjrX/+qXPripk9I0GyPoK+oh5JW1g6cPl3viZHIqqoqeuqpp3xeFo/Ak08+6ROHGxAAAXMSgAEQfb2Ja1jOpjes3NK7q+r8pYIZKUnUPTWJyqrlmzr1clu/bp7OX2IeGJZN83lev+hclTuFOX+m9Mk8xTWf2YLa7+F3rnK/V8u/0hOHNAUg73qvA5BV/A5Hk0sI6OjRo/T444+r0fybb76pOuvExHrDTPIMJuLyT09P9yQRo+Dmm2/23MuF1AMCAiBgDQL41xx1PboKuQqGNgBSeV4/mGjrAbQ0mieglKcFAonLwGsefOurdOMbFdqdAAhpEWBo2TdMLXP+2dnZdP/999MLL7xAK1asoLvuuqthQr+YsrIyOnv2LHl7GKSzl/UBEBAAAWsSMMz2M2vibbpV8knaplMZO0VBSblPBfeXXlD3OXyWQDyPKmt4jt9bjp2v9r417HUrdPMFN+pBDl05iAfhEw5ND985UWslLS1NZZGVlaV2E2zatIl27ZIdicFFphhkO6C8BwEBEIgNAsGHdrHBIKqtlO/RyydpzXwM8OpDJ+nvB07QrX0zqayqhp7acIAmX56hpgty0pJp76ly2v7dGbq2e7paFPjPb07RpMtlfV29JMbZ6Fh5FV2oqaN2TXgbtHf0/mV3uDOeddPCch5o4Xv06quvqldl1b8ETebMCf0bRRMmTKA9e/bQkiVLKCcnhzTjoLy8nGSXgUhlZSXJnv/Nmzer7YKhrBvQ6oZfEAABcxKAByDKeqs/ac7VkpXmUa75peJnDuhGL275hrrxYr7er60nmTJ4bXL9FPj1vL9/Sp+uNHHpVvX8JU73wLCcSy/z1VReQzDnkwK6Z+VOn/jo3riWm+UUwMY4yZy+HNgjawcWL15McuiPyBdffEHPPfecCq+//jpVVFTQ7NmzaeDAgY1lhXgQAAELEqg/DsyCDTNTk+TDM/I9ejN+D+C2FXk0vHsa/e663nScR/FpSQmUEmAUf+5iLfF2f0pv0/yV6dHToa08wWYfmDx3dbHedViwYIFxD4HQu/GcPxse+D8oApxRBAgEIgAPQCAqEY6TjsZut90tbucIFx3W4rJSkwN2/lJIBzYMzND5iw5EF5Ho/MMKH5mBAAiAQIgEYACECEyv5Cl/+McqXhz/qNmMgFw+vz+znTVOi1PsWQdKF3opGvmCAAiAgEEIwAAwiCKkGqkvrnk1Ls42lU+h911Wb6A6+lflTxMH0L2DL/OPNuG9rVzYiw5MWHlUGQRAAARCJgADIGRk+r4go0+Zf+b1W8vM5g3Ql4w+uQtjYS3MMfLXhzFyBQEQMCYBbAM0oF7c8893yPfo5ZO09V+lUx+myeCV3M071s2A7TJClbjDl8N5+FQ+V6Hs85etfsnPf1xkhLqhDiAAAiAQSQIwACJJO8Sy3NvQ5Hv0EiAgAAIgAAIgEDYCmAIIG0pkBAIgAAIgAALmIQADwDy6Qk1BAARAAARAIGwEYACEDSUyAgEQAAEQAAHzEIABYB5doaYgAAIgAAIgEDYCMADChhIZgQAIgAAIgIB5CGAXgHl0hZqCQIsI5OfnU15eHpWWllJmZiaNHTuW+vbtGzQv+WJgYmKi+kRw0IR4CAIgYFoC8ACYVnWoOAg0TWDDhg20atUqGjduHP3yl7+koUOH0sKFC2n37t1BX37//fepsLAwaBo8BAEQMDcBeADMrT/UHgSCEli/fj1Nnz6dBgwYoNKlp6dTWVkZbdmyhQYPHkxr1qyh8ePHU0pKCp04cYIOHz5M3bp1oyNHjtD58+cpOzubOnXqFLQMPAQBEDAnAXgAzKk31BoEmiQgLv8zZ85Qv379fNJeffXVtH//fnI4HLR9+3aqrq5Wz8Uw2LdvH3Xt2pW6dOlC/fv3p9TUVJ93cQMCIGAdAjAArKNLtAQEfAh8//331LFjR0pISPCJb9OmDV28eJFqauRU5IYi3gAJMvKXdQAQEAABaxKAAWBNvaJVIKBG8uLWFy+Atxw4cIA6dOhAycnJ3tEeT4BPJG5AAAQsSwAGgGVVi4bFOoGMjAzlxl+7di3xR6QUDhn1y7qAiRMnqvu2bdvS2bNn1fWhQ4d8kGnv+ETiBgRAwDIEsAjQMqpEQ0CgIYH77ruP3nrrLXriiSeUS7+kpITGjBnjMQBuvPFGWrJkCaWlpSmPQFxc/ZggNzeXVq5cSVlZWWrrYMOcEQMCIGB2AjazNwD1BwEzE1iwYEH90FznRlRUVNC5c+fUtIDdbvcpTRYDSvCf75d1AhLHn1D2SR/Om9mzZ+uXeTgrirxAwIIE4AGwoFLRJBDwJ6At7POPl3sxCPyNAolPSkqSHwgIgIBFCWANgEUVi2aBAAiAAAiAQDACMACC0cEzEAABEAABELAoARgAFlUsmgUCIAACIAACwQjAAAhGB89AwMIEjh8/ThIgIAACIAACIAACsUVgGTdXAgQEQCAGCWAXQAwqHU0GATcBeADxVwEEYpgA/gOIYeWj6SAAAiAAArFLAAZA7OoeLQcBEAABEIhhAjAAYlj5aDoIgAAIgEDsEoABELu6R8tBAARAAARimAAMgBhWPpoOAiAAAiAQuwSwCyB2dY+Wg0B3RtCTw3KgMA2Bd7imK01TW1TU0ARgABhaPagcCIAACHgIjHJfwQDwIMFFawjAAGgNPbwLAuYm8B1XX8JMczcjZmoPT03MqDoyDcUagMhwRikgAAIgAAIgYCgCMAAMpQ5UBgRAAARAAAQiQwAGQGQ4oxQQAAEQAAEQMBQBm6Fqg8qAAAjoTeA3XEC2u5DJ7t9P3L9F/PuS+xo/xiAAfRlDD6gFCIAACJiewFPcAheHGg617iDXEifPIMYiAH0ZSx+oDQiAAAiYloCM/p0cpMP3DhInzyDGIgB9GUsfqA0IgAAImJrARq59HQfNAJBriYMYkwD0ZUy9oFYgAAIgYDoC93CNHRw0A0CuJQ5iTALQlzH1glqBAAiAgOkItOUaV3DQDAC5ljiIMQlAX8bUi+lrhW2AplchGgACIROo5DeWcZDFfxLkWuIgxiQAfRlTL6gVCIAACJiSwFiuteYBkGuIsQlAX8bWD2oHAiAAAqYhYOOaFrmDaSodwxWFvmJY+Xo1HR8D0oss8gUBYxOQ0f+bxq4iaudFAPrygoFLEAABEACB1hHI5tclQMxBAPoyh55MU0txK0FAAATCQKBq2rTs2ri4220u1w2c3ZUcMlwuV2IYso7ZLGw2myxSLOFQ6LLZ1iU4ncuSP/hApi5aLdBXqxE2yEBPfTUoDBGtJgADoNUIkUGsE6iaMaNnncMxl2y2mdzhY2eNjn8huINxksu1PN5ufyx5xYrilhQFfbWEWsveCYe+WlYy3moOARgAzaGENCDQCIGKGTOmOByOpfw4tZEkiNaHQLndbr87ZcWKVaFkD32FQiusaVukr7DWAJk1IIDRSgMkiACB5hEov+22OU6n8++cGp1/85CFM1WqsBcdNDdT6Ku5pHRJF7K+dKkFMvUhAA+ADw7cgEDzCMhIUjoguPybx0uvVOJijouLm9qUJwD60ksDoeXbXH2FlitSt5QADICWksN7MUtA5pBrHY4CBoCRvzH+FpQn2O0DG1sTAH0ZQ0letQiqL690uNSZAKYAdAaM7K1HQC34Q+dvJMWmunUSsE7QV0As0YwMqq9oVizWyoYHINY0jva2ioBsHauz2Q7r7fo/fOECpSUmUkcO3lJWU0OlFy9SVnIyVdbV0ZnaWs/jzklJDdLLw5Lqap90nhf4IjclheLjfMcB5znP01xOL35mFhHXcrzLleu/RTDc+hL+O86coYsOBw1LT6dM1oPRxYj6bExfRmdptfrhJECraRTt0ZWA7PMnp9O3x9ShxJs2baIHr7iCHunTx5P7ofJyuvmzz2hM5870f9dcQ/916BC99vXXZLfV2/EOl4vSExLoxz170hP9+ysDQl7+b790ngz5omDSJMpq6/shwE++/55e2LePdvEzs4gYZEo3RHO96xwufUmH/5vdu+nto0epJ/NKYqPpKzbSJmVm0husi3Q/Q827Dv7XTxcU0KycHLq8XTv/Ry26P3j+PC0/doyeulKOnmgoRtRnY/pqWHvE6EkABoCedJG35QjIIT9yJmuk5QD/Jy+dv3Q4fx46lOLcnf7VaWm08YYbVHVkpLfr7Fn69a5dtLm0lDZef71ndO+dLtJ1j1R57gOYfAyAcOnrnm3baD/rYOuECTSgQwfVpO+qquiOLVtoMhtrm1kH/p6Uxtr9xjff0MSuXcNmABRVVtLCI0caNQAaq0e04wPpK9p1irXydR/JxBpQtNfyBAIPs3RsduG5cyQegR9lZdFrXp2/f5HtefQ/LiODVo0ZQwfZWyCj1XCIeBZWfvstbT192pOdeCPms/fhbe54irkDEilnA0RGouIm95Yv2BjJLyvzjtLrOpBuAsWFVP6mkhKSUfQ7I0d6On/JoDu7/z+47jo6WlFBS4qKVJ5fMZd/nTzpk/9uNsq2MAPhInzqmOeGU6dI8q1zOlXcWX720Xff0csHD9Kq48epmj0OmqzntMLbW/7Bab9l7ns47884H/FQSN5HuC5NiYH02WrdNNVWPA9OAAZAcD54CgL+BDL8I/S838v/wcvI/+7sbHp5yBA+bLDpZTvduGO6vksX2h6GTlc6qJ9u305/4o5J1guILGHD4t83bCDp2NZyZzfi009VZ9YuPp7+s7CQlro7Q0nr5M5uFr8vo9QISCDdBIoLqSrSIY/o2JGuYm+Lv3TidRdimK3mDllkHXfWz/P0ibes4I75dR71iwHwt+Ji1elLp76RQzXz/VleHs1kT8I8nqoRY+L3e/fSpI0bSYwCkbn79ysDxDvP3/J0xJesX/H4iCFxkfORvGXtSDAxmD5brZtgbcWzpglgCqBpRkgBAlEhIB3sPO54z/Niv1Qe3YciPdgIKGSXtSbiEbh+/XrtVv3Ovvxyup3XCzQmMqqUzls6ojXjxlEHrsMJdntL5/MPvh/Ki+BEFrMX4OEdO2jXjTfSvTy3vZw7ojm9e6tnMhVRy53TLd27q3sz/iFz/X1SG9/xKc/Ey9GUXMFz/u+zxyDzww/p2YEDlbfmAutWRPS16Npr1bV4Usazrl796it6upF5fZWQ//gJ885s04Z+/uWXKm8tPtAv9BmISmzHwQCIbf2j9aETKOFXskJ/LfQ33me3+zPcAXTmBWa/2rmTxvLiv1EcmiPiQk7zMhq68Ej1F7yo0FsGueeyveO0axmZ/phHpTKilY5dOn+Rz7ija2O3k0xLSBCRUaW4nsXgEE/F8zxilTUL/dq3p/e4DTMvu4wS/XYaqBfD/4foxl9arS+puxgxjYm0v7Xt+zkbY5qIsSccV7LnoSkDQHunqV+D6jOQvppqCp6HkQAMgDDCRFYxQaCQWxkRA+BB7hR+3bevgiqu9vvZVbyZF6H5bw0MRP0Aj/hlm5omskp9BnfEzRVZ4DaBpxHE9f3Ynj20YvRo9eop3lIoneGaEyd8srq5Wzd1L9vibuLrv7Hb+0neifAhd2KreU1ChER04y+t1lcfHrmLIdSY7GFDqHcQDwGveG/sVU+8v047sb5KeLtnY9J0jr5vGlSfgfTlW3Hc6UoAawB0xYvMrUZAPkkbqTbJXL4m/8uL/2Q+/Rf5+VpUo7+f85xwPu9Vnx5Ch++f2WVc9mvDhqkg89XavL50dInsAVjKC+LeHTVKBXFdyyi/t3tb233slpZ5b3nvMt4yF2ju3L+8cNwH0k2guFDLuoNH4/vYoyHt8ZdveHpAjKG73FMp8bxGo8bPW3CMjammZJ/bm6Klk/Ky3dszZXdBjdeiQMn/VBDjQMvD+9eI+gyHbrzbiOvQCcAACJ0Z3ohhAvI9ejnEJNIIZIQo+80/5s5GVt9rIou/ZOGXhALuRP7M88a3s+v+Tu6QRnbqpCUL+TfB7bKX+W05U+Bx9gLIKFIWF7ZjA+A/eC+7zCnLYUTP8sK/d3jeP4njRSbwFjcZ9f6e0/yEO89IiOhEdONfVjj0NZCnSn6Wm0v3bN2qPBrSZumEZRHfLbxA899458UPeSGgSA4vlNzLetju3jGxjj03/+QdBN4i0wXHeFGkNv8vz57jhYNfsw5FZMeAGFwyvy8iea7iRYanudMX74ucIyAr+TWR/GTKR/Tjb3xoaYymz8b0pdUXv5EhAAMgMpxRikUIqJPm+Hv00WjOeO58ZXGddKyy/UtERopD1q5V4dbPP1cGwh8GDaL5bCyES6RMORVQFvpJZ7OcpwM2speh+6pV1HvNGrVFTcrURM4omNWrlzJKQpl20N5v0S/rxP8UQMknXPqSHRi/Y0NIzljIWr1atV3OBritRw/P9IiUJwbSFF7wOJFX8XfjxX4v8SLOB7zm9yXNVH5nDrMUg0IT2UkgizTlnambN9NDzPwOt1fhV3wtCzGFdc5HH6n1GFfy+gpNBvHuhB7sLej/8ce0jA2xpsQQ+mxEX03VHc/DS8AW3uyQGwhYnwA+LlOv43O8Wl1c3im8/c9fxCtQxAsDtZXt/s/DfB/04zLh1tdxHr2L5yU3yEl+wkambJo6IVC8AGJI5U2cqPI7wWssZEeAdtCTNyfZgSHbDlu74NA7T+/rCOozqL6864RrfQnAA6AvX+RuQQLy1Tm73X53NKYCjIRTdgb4d/7ihpYDgxYdPkyyzVBvER2ILhr7EqCUH259ydHJwTp/KVPYNNX5SzpvETe9HDMcqPOXdLImRK/OX/KPhD6boy+pCyQyBGAARIYzSrEYAff35x+NdSPAX60f8La/u9m1LVsOR7RiDYJ/voHu3ewfdesiUBJPnFH1Jd9xGMwufG39hKfCBrkIpz5D0ZdBmm/5amAKwPIqRgP1JFAxY8YUh8OxlMto/KQYPSsQu3mXy8i/OZ2/NyLoy5tGRK9bpK+I1jAGC4MHIAaVjiaHj4B0QAl2+0C2pKOyOyB8LTFHTjKKFNbCPNTOX1oIfUVWz63VV2RrG3ulwQMQezpHi3UiIN+el8/Pur9ydiUXk8Hb4RJ1Ki4msuUORA7ElxPjCmXfuGzrC7TavyUwoK+WUAv+jp76Cl4ynoIACIAACIAACIAACIAACIAACIAACIAACIAACIAACIAACIAACIAACIAACIAACIAACIAACIAACIAACIAACIAACIAACIAACIAACIAACIAACIAACIAACIAACIAACIAACIAACIAACIAACIAACIAACIAACPz/duhABgAAAGCQv/U9vkLIgAEDBgwYMGDAgAEDBgwYMGDAgAEDBgwYMGDAgAEDBgwYMGDAgAEDBgwYMGDAgAEDBgwYMGDAgAEDBgwYMGDAgAEDBgwYMGDAgAEDBgwYMGDAgAEDBgwYMGDAgAEDBgwYMGDAgAEDBgwYMGDAgAEDBgwYMGDAgAEDBgwYMGDAgAEDBgwYMGDAgAEDBgwYMGDAgAEDBgwYMGDAgAEDBgwYMGDAgAEDBgwYMGDAgAEDBgwYMGDAgAEDBgwYMGDAgAEDBgwYMGDAgAEDBgwYMGDAgAEDBgwYMGDAgAEDBgwYMGDAgAEDBgwYMGDAgAEDBgwYMGDAgAEDBgwYMGDAgAEDBgwYMGDAgAEDBgwYMGDAgAEDBgwYMGDAgAEDBgwYMGDAgAEDh4EAGWesBEkSrLgAAAAASUVORK5CYII=;" vertex="1" parent="1">
          <mxGeometry x="900" y="94" width="355.31" height="356" as="geometry" />
        </mxCell>
        <mxCell id="N_Q1f8X5Kt0thkg9tTBP-14" value="&lt;b&gt;KDF Chain&lt;/b&gt; is a core concept in the Double Ratchet" style="text;html=1;align=left;verticalAlign=middle;whiteSpace=wrap;rounded=0;" vertex="1" parent="1">
          <mxGeometry x="880" y="40" width="400" height="30" as="geometry" />
        </mxCell>
        <mxCell id="N_Q1f8X5Kt0thkg9tTBP-15" style="rounded=0;orthogonalLoop=1;jettySize=auto;html=1;" edge="1" parent="1" source="KQvg0cTNrWTqxEZgO_hI-28" target="N_Q1f8X5Kt0thkg9tTBP-12">
          <mxGeometry relative="1" as="geometry" />
        </mxCell>
        <mxCell id="N_Q1f8X5Kt0thkg9tTBP-16" value="&lt;strong&gt;KDF&lt;/strong&gt;&amp;nbsp;is as a cryptographic function that takes a secret random &lt;strong&gt;KDF key&lt;/strong&gt; and some input data and returns output data (e.g. HMAC, HKDF)" style="rounded=0;whiteSpace=wrap;html=1;align=left;" vertex="1" parent="1">
          <mxGeometry x="1320" y="70" width="160" height="90" as="geometry" />
        </mxCell>
        <mxCell id="N_Q1f8X5Kt0thkg9tTBP-17" value="properties of KDF chain:&lt;div&gt;&lt;ol&gt;&lt;li&gt;Resilience&lt;/li&gt;&lt;li&gt;Forward security&lt;/li&gt;&lt;li&gt;Break-in recovery&lt;/li&gt;&lt;/ol&gt;&lt;/div&gt;" style="rounded=0;whiteSpace=wrap;html=1;align=left;" vertex="1" parent="1">
          <mxGeometry x="1320" y="200" width="160" height="80" as="geometry" />
        </mxCell>
        <mxCell id="N_Q1f8X5Kt0thkg9tTBP-21" style="edgeStyle=orthogonalEdgeStyle;rounded=0;orthogonalLoop=1;jettySize=auto;html=1;" edge="1" parent="1" source="N_Q1f8X5Kt0thkg9tTBP-18" target="N_Q1f8X5Kt0thkg9tTBP-17">
          <mxGeometry relative="1" as="geometry">
            <Array as="points">
              <mxPoint x="1520" y="170" />
              <mxPoint x="1520" y="220" />
            </Array>
          </mxGeometry>
        </mxCell>
        <mxCell id="N_Q1f8X5Kt0thkg9tTBP-18" value="1. The output keys appear random to an adversary without knowledge of the KDF keys." style="rounded=0;whiteSpace=wrap;html=1;align=left;verticalAlign=top;" vertex="1" parent="1">
          <mxGeometry x="1560" y="134" width="150" height="66" as="geometry" />
        </mxCell>
        <mxCell id="N_Q1f8X5Kt0thkg9tTBP-22" style="edgeStyle=orthogonalEdgeStyle;rounded=0;orthogonalLoop=1;jettySize=auto;html=1;" edge="1" parent="1" source="N_Q1f8X5Kt0thkg9tTBP-19" target="N_Q1f8X5Kt0thkg9tTBP-17">
          <mxGeometry relative="1" as="geometry">
            <Array as="points">
              <mxPoint x="1520" y="260" />
              <mxPoint x="1520" y="240" />
            </Array>
          </mxGeometry>
        </mxCell>
        <mxCell id="N_Q1f8X5Kt0thkg9tTBP-19" value="2. Output keys from the past appear random to an adversary who learns the KDF key at some point in time." style="rounded=0;whiteSpace=wrap;html=1;align=left;verticalAlign=top;" vertex="1" parent="1">
          <mxGeometry x="1560" y="220" width="150" height="80" as="geometry" />
        </mxCell>
        <mxCell id="N_Q1f8X5Kt0thkg9tTBP-23" style="edgeStyle=orthogonalEdgeStyle;rounded=0;orthogonalLoop=1;jettySize=auto;html=1;entryX=1;entryY=0.75;entryDx=0;entryDy=0;" edge="1" parent="1" target="N_Q1f8X5Kt0thkg9tTBP-17">
          <mxGeometry relative="1" as="geometry">
            <mxPoint x="1560" y="342.0000000000001" as="sourcePoint" />
            <mxPoint x="1479.9999999999995" y="252" as="targetPoint" />
            <Array as="points">
              <mxPoint x="1560" y="370" />
              <mxPoint x="1500" y="370" />
              <mxPoint x="1500" y="260" />
            </Array>
          </mxGeometry>
        </mxCell>
        <mxCell id="N_Q1f8X5Kt0thkg9tTBP-20" value="3. Future output keys appear random to an adversary who learns the KDF key at some point in time." style="rounded=0;whiteSpace=wrap;html=1;align=left;horizontal=1;verticalAlign=top;" vertex="1" parent="1">
          <mxGeometry x="1560" y="323.5" width="150" height="86.5" as="geometry" />
        </mxCell>
        <mxCell id="N_Q1f8X5Kt0thkg9tTBP-24" value="Alice" style="shape=umlActor;verticalLabelPosition=bottom;verticalAlign=top;html=1;outlineConnect=0;" vertex="1" parent="1">
          <mxGeometry x="1055" y="600" width="30" height="60" as="geometry" />
        </mxCell>
        <mxCell id="N_Q1f8X5Kt0thkg9tTBP-25" value="Bob" style="shape=umlActor;verticalLabelPosition=bottom;verticalAlign=top;html=1;outlineConnect=0;" vertex="1" parent="1">
          <mxGeometry x="1295" y="600" width="30" height="60" as="geometry" />
        </mxCell>
        <mxCell id="N_Q1f8X5Kt0thkg9tTBP-26" value="Root chain" style="rounded=0;whiteSpace=wrap;html=1;" vertex="1" parent="1">
          <mxGeometry x="1030" y="720" width="80" height="40" as="geometry" />
        </mxCell>
        <mxCell id="N_Q1f8X5Kt0thkg9tTBP-39" style="rounded=0;orthogonalLoop=1;jettySize=auto;html=1;endArrow=none;endFill=0;fillColor=#dae8fc;strokeColor=#6c8ebf;" edge="1" parent="1" source="N_Q1f8X5Kt0thkg9tTBP-27" target="N_Q1f8X5Kt0thkg9tTBP-33">
          <mxGeometry relative="1" as="geometry" />
        </mxCell>
        <mxCell id="N_Q1f8X5Kt0thkg9tTBP-51" value="Matches" style="edgeLabel;html=1;align=center;verticalAlign=middle;resizable=0;points=[];" vertex="1" connectable="0" parent="N_Q1f8X5Kt0thkg9tTBP-39">
          <mxGeometry x="-0.5152" y="-2" relative="1" as="geometry">
            <mxPoint as="offset" />
          </mxGeometry>
        </mxCell>
        <mxCell id="N_Q1f8X5Kt0thkg9tTBP-27" value="A Receiving chain" style="rounded=0;whiteSpace=wrap;html=1;fillColor=#dae8fc;strokeColor=#6c8ebf;" vertex="1" parent="1">
          <mxGeometry x="1030" y="800" width="80" height="40" as="geometry" />
        </mxCell>
        <mxCell id="N_Q1f8X5Kt0thkg9tTBP-40" style="rounded=0;orthogonalLoop=1;jettySize=auto;html=1;endArrow=none;endFill=0;fillColor=#ffe6cc;strokeColor=#d79b00;" edge="1" parent="1" source="N_Q1f8X5Kt0thkg9tTBP-28" target="N_Q1f8X5Kt0thkg9tTBP-29">
          <mxGeometry relative="1" as="geometry" />
        </mxCell>
        <mxCell id="N_Q1f8X5Kt0thkg9tTBP-52" value="Matches" style="edgeLabel;html=1;align=center;verticalAlign=middle;resizable=0;points=[];" vertex="1" connectable="0" parent="N_Q1f8X5Kt0thkg9tTBP-40">
          <mxGeometry x="0.4662" relative="1" as="geometry">
            <mxPoint as="offset" />
          </mxGeometry>
        </mxCell>
        <mxCell id="N_Q1f8X5Kt0thkg9tTBP-28" value="A Sending chain" style="rounded=0;whiteSpace=wrap;html=1;fillColor=#ffe6cc;strokeColor=#d79b00;" vertex="1" parent="1">
          <mxGeometry x="1030" y="880" width="80" height="40" as="geometry" />
        </mxCell>
        <mxCell id="N_Q1f8X5Kt0thkg9tTBP-29" value="B Receiving chain" style="rounded=0;whiteSpace=wrap;html=1;fillColor=#ffe6cc;strokeColor=#d79b00;" vertex="1" parent="1">
          <mxGeometry x="1270" y="800" width="80" height="40" as="geometry" />
        </mxCell>
        <mxCell id="N_Q1f8X5Kt0thkg9tTBP-30" value="Root chain" style="rounded=0;whiteSpace=wrap;html=1;" vertex="1" parent="1">
          <mxGeometry x="1270" y="720" width="80" height="40" as="geometry" />
        </mxCell>
        <mxCell id="N_Q1f8X5Kt0thkg9tTBP-33" value="B Sending chain" style="rounded=0;whiteSpace=wrap;html=1;fillColor=#dae8fc;strokeColor=#6c8ebf;" vertex="1" parent="1">
          <mxGeometry x="1270" y="880" width="80" height="40" as="geometry" />
        </mxCell>
        <mxCell id="N_Q1f8X5Kt0thkg9tTBP-42" style="edgeStyle=orthogonalEdgeStyle;rounded=0;orthogonalLoop=1;jettySize=auto;html=1;" edge="1" parent="1" source="N_Q1f8X5Kt0thkg9tTBP-41" target="N_Q1f8X5Kt0thkg9tTBP-24">
          <mxGeometry relative="1" as="geometry" />
        </mxCell>
        <mxCell id="N_Q1f8X5Kt0thkg9tTBP-45" style="edgeStyle=orthogonalEdgeStyle;rounded=0;orthogonalLoop=1;jettySize=auto;html=1;" edge="1" parent="1" source="N_Q1f8X5Kt0thkg9tTBP-41" target="N_Q1f8X5Kt0thkg9tTBP-26">
          <mxGeometry relative="1" as="geometry">
            <Array as="points">
              <mxPoint x="955" y="740" />
            </Array>
          </mxGeometry>
        </mxCell>
        <mxCell id="N_Q1f8X5Kt0thkg9tTBP-46" style="edgeStyle=orthogonalEdgeStyle;rounded=0;orthogonalLoop=1;jettySize=auto;html=1;" edge="1" parent="1" source="N_Q1f8X5Kt0thkg9tTBP-41" target="N_Q1f8X5Kt0thkg9tTBP-27">
          <mxGeometry relative="1" as="geometry">
            <Array as="points">
              <mxPoint x="955" y="820" />
            </Array>
          </mxGeometry>
        </mxCell>
        <mxCell id="N_Q1f8X5Kt0thkg9tTBP-47" style="edgeStyle=orthogonalEdgeStyle;rounded=0;orthogonalLoop=1;jettySize=auto;html=1;" edge="1" parent="1" source="N_Q1f8X5Kt0thkg9tTBP-41" target="N_Q1f8X5Kt0thkg9tTBP-28">
          <mxGeometry relative="1" as="geometry">
            <Array as="points">
              <mxPoint x="955" y="900" />
            </Array>
          </mxGeometry>
        </mxCell>
        <mxCell id="N_Q1f8X5Kt0thkg9tTBP-41" value="KDF Key" style="rounded=0;whiteSpace=wrap;html=1;" vertex="1" parent="1">
          <mxGeometry x="920" y="610" width="70" height="40" as="geometry" />
        </mxCell>
        <mxCell id="N_Q1f8X5Kt0thkg9tTBP-44" style="edgeStyle=orthogonalEdgeStyle;rounded=0;orthogonalLoop=1;jettySize=auto;html=1;" edge="1" parent="1" source="N_Q1f8X5Kt0thkg9tTBP-43" target="N_Q1f8X5Kt0thkg9tTBP-25">
          <mxGeometry relative="1" as="geometry" />
        </mxCell>
        <mxCell id="N_Q1f8X5Kt0thkg9tTBP-48" style="edgeStyle=orthogonalEdgeStyle;rounded=0;orthogonalLoop=1;jettySize=auto;html=1;" edge="1" parent="1" source="N_Q1f8X5Kt0thkg9tTBP-43" target="N_Q1f8X5Kt0thkg9tTBP-30">
          <mxGeometry relative="1" as="geometry">
            <Array as="points">
              <mxPoint x="1425" y="740" />
            </Array>
          </mxGeometry>
        </mxCell>
        <mxCell id="N_Q1f8X5Kt0thkg9tTBP-49" style="edgeStyle=orthogonalEdgeStyle;rounded=0;orthogonalLoop=1;jettySize=auto;html=1;" edge="1" parent="1" source="N_Q1f8X5Kt0thkg9tTBP-43" target="N_Q1f8X5Kt0thkg9tTBP-29">
          <mxGeometry relative="1" as="geometry">
            <Array as="points">
              <mxPoint x="1425" y="820" />
            </Array>
          </mxGeometry>
        </mxCell>
        <mxCell id="N_Q1f8X5Kt0thkg9tTBP-50" style="edgeStyle=orthogonalEdgeStyle;rounded=0;orthogonalLoop=1;jettySize=auto;html=1;" edge="1" parent="1" source="N_Q1f8X5Kt0thkg9tTBP-43" target="N_Q1f8X5Kt0thkg9tTBP-33">
          <mxGeometry relative="1" as="geometry">
            <Array as="points">
              <mxPoint x="1425" y="900" />
            </Array>
          </mxGeometry>
        </mxCell>
        <mxCell id="N_Q1f8X5Kt0thkg9tTBP-43" value="KDF Key" style="rounded=0;whiteSpace=wrap;html=1;" vertex="1" parent="1">
          <mxGeometry x="1390" y="610" width="70" height="40" as="geometry" />
        </mxCell>
        <mxCell id="N_Q1f8X5Kt0thkg9tTBP-55" value="Each party has 3 KDF chains" style="text;html=1;align=left;verticalAlign=middle;resizable=0;points=[];autosize=1;strokeColor=none;fillColor=none;" vertex="1" parent="1">
          <mxGeometry x="890" y="530" width="180" height="30" as="geometry" />
        </mxCell>
        <mxCell id="N_Q1f8X5Kt0thkg9tTBP-59" value="" style="shape=image;verticalLabelPosition=bottom;labelBackgroundColor=default;verticalAlign=top;aspect=fixed;imageAspect=0;image=data:image/png,iVBORw0KGgoAAAANSUhEUgAAAgAAAAF5CAYAAADpvZJuAAAAAXNSR0IArs4c6QAAAAlwSFlzAAAJ2AAACdgBx6C5rQAAAdVpVFh0WE1MOmNvbS5hZG9iZS54bXAAAAAAADx4OnhtcG1ldGEgeG1sbnM6eD0iYWRvYmU6bnM6bWV0YS8iIHg6eG1wdGs9IlhNUCBDb3JlIDUuNC4wIj4KICAgPHJkZjpSREYgeG1sbnM6cmRmPSJodHRwOi8vd3d3LnczLm9yZy8xOTk5LzAyLzIyLXJkZi1zeW50YXgtbnMjIj4KICAgICAgPHJkZjpEZXNjcmlwdGlvbiByZGY6YWJvdXQ9IiIKICAgICAgICAgICAgeG1sbnM6dGlmZj0iaHR0cDovL25zLmFkb2JlLmNvbS90aWZmLzEuMC8iPgogICAgICAgICA8dGlmZjpDb21wcmVzc2lvbj41PC90aWZmOkNvbXByZXNzaW9uPgogICAgICAgICA8dGlmZjpQaG90b21ldHJpY0ludGVycHJldGF0aW9uPjI8L3RpZmY6UGhvdG9tZXRyaWNJbnRlcnByZXRhdGlvbj4KICAgICAgICAgPHRpZmY6T3JpZW50YXRpb24+MTwvdGlmZjpPcmllbnRhdGlvbj4KICAgICAgPC9yZGY6RGVzY3JpcHRpb24+CiAgIDwvcmRmOlJERj4KPC94OnhtcG1ldGE+CrDjMt0AAEAASURBVHgB7Z0JeBRV1vdP0kkgCQEChC1IILITBFkEEUFBETccUBG3cfnGj3FmZHR0xGUcR2dRXEZf53n95H1VVHAZcGFAQUFBEFkF2cIm+76EsIQQIOnkO/9KV9sJ3Z3upDq91P88T9HVdW/d5Xea3HPPPbdKhEICJEACJEACJEACJEACJEACJEACJEACJEACJEACJEACJEACJEACJEACJEACJEACJEACJEACJEACJEACJEACJEACJEACJEACJEACJEACJEACJEACJEACJEACJEACJEACJEACJEACJEACJEACJEACJEACJEACJEACJEACJEACJEACJEACJEACJEACJEACJEACJEACJEACJEACJEACJEACJEACJEACJEACJEACJEACJEACJEACJEACJEACJEACJEACJEACJEACJEACJEACJEACJEACJEACJEACJEACJEACJEACJEACJEACJEACJEACJEACJEACJEACJEACJEACJEACJEACJEACJEACJEACJEACJEACJEACJEACJEACJEACJEACJEACJEACJEACJEACJEACJEACJEACJEACJEACJEACJEACJEACJEACJEACJEACJEACJEACJEACJEACJEACJEACJEACJEACJEACJEACJEACJEACJEACJEACJEACJEACJEACJEACJEACJEACJEACJEACJEACJEACJEACJEACJEACJEACJEACJEACJEACJEACJEACJEACJEACJEACJEACJEACJEACJEACJEACJEACJEACJBDFBOKiuO1sOglEFIGikSOziuPjR8eVlQ3WhnXVI6OsrCwpohoZZY2Ji4s7q00+rEduWVzc3MTS0o+SP/10Z5R1g80lgYgkQAMgItXCRkUTgaKbb25d4nSOl7i4UTrgx0dT26OtrWoQlEpZ2ZQEh2Nc8tSpu6Kt/WwvCUQSARoAkaQNtiXqCBTefPNwp9M5WRueFnWNj+4GFzgcjjtSp06dHt3dYOtJIHwEOFsJH3vWHOUECm68cWxpaeln2g0O/rWvyzSwhw5qv2rWSAKxQYAegNjQI3tRywQw88cARJd/LYOvVB2WBOLj40fQE1AJDL+SQAAEaAAEAIlZSMCTANb8i53OdXqNM39PMOE7L0h0OHIYExA+BbDm6CTAJYDo1BtbHUYCRsAfB/8wauCcqtNcOjkngRdIgAR8E6AHwDcbppDAOQSw1a8kLm5bKFz/WqZsKyyUNceOSUpCgvRs2FAy6tZ1t+HY2bNyoqREWqekuK8Fc7KvqEjqxMdL4zp1grnNyFuTe4OurBo3YCkgoawsm1sEqwGPt9iWAD0AtlU9O14dAtjnH4rBf9vJk3Lp3LnSZ84ceWnTJrl32TLp8uWX8o/1693N/Pfu3XLX0qXu78GePLxqlfzrp5+Cvc3IX5N7q1VhkDdBJ9BNkLcxOwnYmkCCrXvPzpNAkATwkJ+yIO+pKvtRndkP/vZbGZSRIV8NGiSpOvsvLi0VDPi/WbFCWiYny91t21ZVTJXpD3XoIGmJiVXmi9YMrgcwjY/W9rPdJFDbBGgA1DZx1hftBPCEP0vlnzrjr6+D/tsXXSSOuPJVuUR11d+RlSXfHT4sX+zfX8EAOHj6tHyyZ4+cVSPh8qZNpbsuFZhyorhY/rN3r+xRd39DHeyva9lSznMtGZToEkOJ3gOZd+iQtElNlVO6pIDzZIdDfpGZGfDyAJYEFublyYAmTQwDBWV+c/CgsXzRIS1NBmm76mmfNpw4IfBuXKvtMAVLHR9r+2HwNPVY4jDTa/BpuW5q0BbeSgIRT4BLABGvIjYwwghkWN2eWQcOyO062JuDv2f5E3r3lqn9+7sv5Z05I0PnzzcG2q91wL1s3jxZqEYCBIZB36+/lv/dtk2Qb5oaApd8840c0usQuP9hOEDGb9ggf1q7Vn61fLlsKiiQ1zQNZZ1xOo10f/9s1zgFtGFFfr600AG8VAf025YskT+uXi07T52S57TsqzQ9Xz0bhWpg3Kppu/S6KYuPHJGxK1cacQ7mNYs+LdeNRe1iMSQQkQToAYhItbBRdiHg1MFzu86Qz69XL6AuYyBdOHiwdHPN+q//7jtjUB+gs+lZ6ilI01n3N5ddJvAgYGDO+vxzWa4DtecM3KwIM/P5WlaS5j2sRkKHWbNkqeYdqGX5ks1qLKDOX2Vnyx87dTKyvbt9u/yk1xcNGSJ11ZOAem/8/nt5dfNmeTYnR3IaNJCpupzxcMeORn7M/ke0amV4CHzVw+skQAKhJ0APQOgZs4bYIlA+3baoT3D4awS7nHG55qsqtr26183BH3nh/sdMG4I4gWVXXmnM+GerV+GvGkB4XJcEfJWN5QEM/hDsNmipR756DnwJ3PmY2TfXfObgj7xfal1ZusyAQX7Sjh3y/s6dRp7P9+0zirqnTRv5965dxjkMHngm7lSPRwjEUt2EoH0skgQiigANgIhSBxsTBQRyrWxjvA7+WIvfqIOrN/lUZ8twt5uCGX5lMYMSN2kZ/dXlf+OiRUYcQDPd7tdMB2tfEmxA4DcaK/CQzuLXaz0Y5E3BcsMO9UzMVA+EeRxTw6NXerqRZVTr1sbSALY3ztcyEJtwscYOhEAs1U0I2sciSSCiCJz71ySimsfGkEBkEcArafVtdEOtbNVwnYm/rW70xzp3NnYAeJb9kc6c0wOM3H86N1c6qodgogYTmvKiBhhaJWPU7T+2fXvDxf/YmjVGACJ2KLTT5Qu4/l+98EJ3VVt0eWG/BgpCGmj7b1SX/xT1EGDHQ4hm/2Loxt0CnpAACVRFgB6AqggxnQQ8COB99MYraT2u1fQUgyrW7K/TtfV1x48bAyyC5/6mLnwE+j3RpUtAVZzUeyBYg0e0P3YXHNbZua8lgIAK9ciENkIe0PYiZgGBfJB7dOkBhspcbSsi/PeqN+D2SoF/d+syAAwAeAhuVY+A1QKdQDdWl8vySCCWCdADEMvaZd8sJ4AnzRWMHDlFC7bsoTMNk5KMwD7s+R+oDwPCunyRRuO31aUB7ADw3Obnr0N/0H3+92pU/3kzZhhGAAbmkbq17wEdqK9s1szfrUGlYbfC6z17Gg8uwpr/nTq4v9yjh1H3aW03nmOALYW3eQz0FzVuLI20n3iKYXP1GlguZWVT+BRAy6mywBgnEBfj/WP3SMByAqF8GRD29iOivkkV6/e+OoUHCB3QiH4E6pk7ARAkiPJqQ7AVsanWhcBGT4FnoOfs2fLXbt2MZxN4pllwzpcBWQCRRdiPQMX/pfbrP3tMAtUiwNcBB44NWwe/0p0CE7ZulVVDh0qCaykh8BJ854Trn68D9s2HKSTgjwBjAPzRYRoJ+CDgev/8Q1bHA/ioLqovI1bgHQ1y/B99qJHVg7+Cecili6hmxMaTQDgI0AMQDuqsM2YIwBPgdDona4fSYqZT0dGRAofDcQcH/+hQFlsZmQToAYhMvbBVUUIAA1Ciw5GjlrTluwOiBEGtNhMeF7AGcw7+tYqelcUgAXoAYlCp7FJ4CBSNHJmFV9K63kqHF9NkaPBbUnhaU3WtubrlENJVH9UbqaIDPh5ziCf85WKfP7b6Mdo/UrXFdpEACZAACUQLAeyb5975aNEW20kCFhPgcwAsBsriSCCKCHAJMIqUxaaSgNUE+AfAaqIsjwRIgARIgASigAANgChQEptIAiRAAiRAAlYToAFgNVGWRwIkQAIkQAJRQIAGQBQoiU0kARIgARIgAasJ0ACwmijLIwESIAESIIEoIEADIAqUxCaSAAmQAAmQgNUEaABYTZTlkQAJkAAJkEAUEKABEAVKYhNJgARIgARIwGoCNACsJsrySIAESIAESCAKCNAAiAIlsYkkQAIkQAIkYDUBGgBWE2V5JEACJEACJBAFBPg2wChQEptIAhYSeETLynKVN8z1+aXrc6d+vuQ65wcJkAAJkAAJkEAMEXhK+1KmB16zW+w6cI5rSKOQAAmQAAmQAAnEIAHM/kv1wIDveeAa0igkQAIkQAIkQAIxSmC+9qtED9MAwDmuUUiABEiABEiABGKYwJ3aN6cepgGAc1yjkAAJkAAJkAAJxDCBFO1boR6mAYBzXKOQAAnYiAC3AdpI2ewqCbgInNLPj/RA8B8OnOMahQRIgARIgARIIMYJXKr9Mz0AOKeQAAmQAAmQAAnYgACeAYJ9/zgoJEACNiSQYMM+s8skQALls/83CYIESIAESIAESMB+BLK0yzgoJEACNiQANyCFBEggTAQmTJiAdXjbypgxY/g3yLbaZ8fDTYC7AMKtAdZPAiRAAiRAAmEgQAMgDNBZJQmQAAmQAAmEmwANgHBrgPWTAAmQAAmQQBgI0AAIA3RWSQIkQAIkQALhJkADINwaYP0kQAIkQAIkEAYCNADCAJ1VkgAJkAAJkEC4CdAACLcGWD8JhIjAunXrZPHixe7Si4qKZNKkSbJx40b3NZ6QAAnYlwANAPvqnj2PcQIHDx6UnTvLn/SLwf/VV1+V5ORk6dSpU4z3nN0jARIIhAANgEAoMQ8JRDEBc/Dv0qWL3HTTTe6erFy5Ut5++22ZNm2aFBYWSnFxsUyZMkWcTqeR5/jx4/L555+78/OEBEggtgjQAIgtfbI3JFCBwKlTp4yZf0JCgtxwww3uNCwDzJkzRwYMGCClpaVGnsTERNm1a5ds2rTJyPfDDz8YhoH7Jp6QAAnEFAEaADGlTnaGBCoSWLp0qXTr1k3y8vLkxx9/dCcuX75cunfvLvHx8XLBBRdIQUGBHD58WPr16ycrVqww8uGzb9++7nt4QgIkEFsE+DbA2NIne0MCFQhgQL/uuuskOztb3nrrLWnTpo2kp6fL3r17paysTM6ePWvk79+/v8AD0LNnT5kxY4bk5+cbs3/kp5AACcQmAXoAYlOv7BUJGAQQ9AfB+n+fPn1k4sSJhsu/R48ekpmZKcOHD5dhw4YZBkFqaqqkpKRI27Zt5cMPP+Ts3yDHf0ggdgnQAIhd3bJnJFCBwMiRIwWBfVj7h2cgNzdXXnnlFXn66acNAwEeAAjc/mvXrjXyVCiAX0iABGKKAJcAYkqd7AwJ/ExgyJAhP3/Rs6SkJHnmmWfc18aOHWu4+uvWrWvM/M2E+vXrS05OjjRq1Mi8xE8SIIEYJEADIAaVyi6RQKAEKg/yS5Yskblz58qoUaMCLYL5SIAEopQADYAoVRybTQKhINC6dWuBZ6BevXqhKJ5lkgAJRBABGgARpAw2hQTCTaBly5bhbgLrJwESqCUCDAKsJdCshgRIgARIgAQiiQA9AJGkjUptKXrymqxiZ9zouLLSwSJxXTU5Q/duJ1XKxq9BEIiLi8PG98MiZbllcfFzEx1lHyX/fWb5A/ODKIdZSYAESCDaCdAAiEANFo27vnWJlIwvKZFRUlYaX2a0sfzfCGxuVDXJZUBlaqMzle3QkrK4fxSMu3pKgiSMSx4/Y1dUdYaNJQESIIEaEOASQA3gheLWwsevHV5c5lynD2kbrYMV9RMKyB5lgjFYgznYeyTxlARIgARimgAHmAhSb8Gj14wtLS37TN3TaRHULJs0pSwN7KEDm3SY3SQBErA5ARoAEfIDMGafcfIKZ/3hU4jBXnVAT0D4dMCaSYAEao8ADYDaY+2zJqz5O51lkzn4+0RUawnQAXQBndRapayIBEiABMJAgAZAGKBXrhIBf6F2+ztLGURYmbvv72Vp5TrxnYMpJEACJBDtBLgLIMwaxFY/I9pfrB+gi52l8uLirTJ722FZd7hA6jripVeLBvJo/3ZyyXm1+5z37cdOSXrdRGmoh1WSd+qMnC4plVb1y994Z1W55eXEjVLdPBYtWwRPnz4tBw8elFatWonD4XCjKC0tld27d0tCQoLx9j+8BrhEf3Cm4D0AGRkZEh9fcS5w4sQJOXr0qJmtwifeGtikSZMK1/iFBEgg+gjQAAizzrDPH1v9rG7GiTPFMnLqD4KB9w/9suX55p1lc/5J+XTjAbn2o6XywYieck27ZlZX67O84f9eJmP7tJX7emb5zBNswmvLd8jyfcdk1q19g721yvxYCih2xo/WjOqdCVre0DtW6fGRHseCufvdd981nsNvvsY30Ht37dolL7/8srzwwgvSoEED4zYM/u+9954sX75c7r//fsMAeOONN+TQoUOiz0Mw8mg/pU6dOjJo0CAZMWKE2xBYunSpfPzxx16rv/jii+Xuu+/2msaLJEAC0UOABkCYdYWH/Fg/9xd5Zek22Xr0lMz/ZX9p3aB8htyvVbrclpMpA99dJI9+vaFWDYAwY65W9eUPYKqWAdBfKxyjx3/p8R893tZjjh5OPfzKihUrjIE4WAOgcqHm4I/yfve730nnzp3dWa666irBq4EhJ0+elHXr1skHH3xgnN91113ufGjD888/7/5unnh6GMxr/CQBEog+AjQAwq4zPOHPWhOgqNgpr/+wQx7ud7578De7maCu3jev624sC8BLUL9OopToTHH8oq3yn00HZF/BaemcUc+4d9j5TY3bZm05JO+t3S2/7tlGnl2wWTYcKZAOjerJy1d20SWFhkaejzfsk5d0uQFGR3pyotzQobn8/fJOhgfinumrjHJfWrJV3l+3V75VowQxCX/9brNM1fsOFp6VxnrP7Tmt5KlL2xuz00e/Xi/tG6VK/uli+VDvOaafg9s2kVeGdpUG2uZRn/wgP+w/Lqe0r/0nLpQXhnSWAa0bm9206NN4+mJNysJTG3+hx8166NMHDUPgHf3cqIdf2bNnj+zfv99ww8OF36NHD+nVq5ffe8xEc/BfuXKlPPDAA9KhQwcz6ZxPvPSnX79+Yt4D46B58+ZGPngJsERAIQESiE0CNADCr9cMq5uw9WihFOna+GVtvA+IXTLSBIcpY75YI9/uPCLPDe6sA3uqTN98UEZ/ukLeu+FCGa4DOQbfBTvz5bAO1I9d0k7qJsTr4P2T/Orz1fLjfYNkY16B3DtjtTHgD83OkC35hfLAV+skIyVJ/q+6/HHPQ7NzBWmmUfHi4i0yYeVOee2qHMlpmibL9h4z7rm0dSO5vE0T2XH8lHymBsmw8zPkzeu7y1Yt8+E56+VV9Ww8PbCjjNFyHat26fVTRvnttN1Wy/TNB2ABTalGuZ47CMygB+j5IT3G6bFCjzf1wBKBV8nLy5PJkyfLbbfdZqzRY2mgU6dOgvV3f2IO5D/++KM8+OCDkp2d7S+7O61Pnz7GcsGmTZvcBoA7kSckQAIxSYAGQAyqdefxIqNXLepVPXvboIP31A375eObehsDNG7s0byBzsrPyDM624cBACk4WyKvX91NOjQuf03suP6lMkJjDI6rF+HAyTNGnn6Z6dJR03EkJzqkUO9B0B/KeHLeRrmgaX25tn153EHdBIeM11n7zV3K3z7XSe/58/xNhvEAAwDSRA2Ifw3rZpz3Vk/Dgl35slJn/ZAhbTNkvn4/drrE3UYjIYb+wYDft295fMO8efOMtfu2bdv67eH7779vuPThpk9MNG0Pv7cYiciL2IEjR464MxcVFclTTz3l/o4TeASefPLJCtf4hQRIIDoJ0AAIv97gGsaz6S2TxjpwQvJOnZXzvETIl2rg14kzJZKqg/SqAyckIT5OBlfyFlylM+9Ja/cYgzjKSktKcA/++N4stQ4+BMsN2FEwUGfuV76/WGAEDNDvV+nywWDXQG5krPTPg32zdbmgUCbqLH5D3kn5fk++HFVPg+diSE81RDwFdSKQsbZEDZdDWteoatS3Ru8pt1xEivUcI3FQSwCo0zMOAFH8TmeVIQSyY8cOefzxx43Z/JtvvmkM1klJgb0/Ci7/9PR0VG0IjIJrr73W/Gp8oh0UEiCB2CBgefR5bGCpzV6U5VpdW7v0FKPIFfu9B6Av1Jlz69e+lm26Q+CMbhVMVAPA4YoKN9tSR7cMQs66nh+Q6CiPGjfTPT8TNe+MWy6Sr27rJ4OyGuvM/IgMmbxYfq/LAL7kmQWbjGDEXN2eiCWA/9aZfhtXsKJ5Tx1dagiv1Fg3ePPgND2u1qOFHo/pUeX6v+aptmDNPysrS+69917BMsLUqVMDKis/X70px46Jp4cBgz3iAzyP3r17B1QeM5EACUQ+gXD/hY18QiFuIV5Ja3UVTVLqyNU6A0cgIGboleXf6/dJ83p1DFd9pyb1jHiB1QdPVMi2eM9RY5aPvftVybJ9R43gvr46+3/8kvYy5/aL5S8DO8g7q3cbQXqV70ebXl26XV66oou8dGVX+eUF50n3ZvUNr0TlvOH8XgPdLNJ2368H1jvgQfhSj3MVoRetloYNy4MyMzMzjd0ECxYskFWrVlVZDZYYsB0Q91FIgATsQYAGQJj1jPfRq+u11Opm/FkHYETXX/PhUlmy96g+MMcph3RdH5H3cO2/OKSLUSVc9jh+M2utEcyHhwdN27Rf/t+KHfJgX//rzWabsZwwVmf7M7ccFCwvoC7sJmiqLvsUXWaAwKOwWQP58FwCU7boEgDyHyk6K49o1D8i/k9q3ECggjLRp81HTno1NAItx1s+6AS68ZYWwLVfa5439PDugvFTwGuvvSb169c3ov4999qPHTtW2rVr5+fOc5OGDBkiHTt2lEmTJhmzezNHQUGBYJcBjs2b9feg6XPmzJH77rsvqLgBszx+kgAJRCcBLuiFWW940hzeR6/NGG1lU7pqlD+eAXD/rDVy9QdLjYEW6+stdOb/tkbV39Cxubu6D0ZcaETg93/ne2N7Xj1d7//jxe3k/l5t3Hn8nVyhAXmP6JZD7AQ4o7sPMKifr8sQ7w7v4b5tdNdMfSrhFnlb1/yPPDJMI/k7yN8W/iT/XLJNsLzw4EXZcme3VvIXDTwcoPEEgQjiFN5ds1t6v/WdfKgPNjIDDAO5t+o8ZVOS/z5rZ9X5IjcH1vRhRDz77LMyceJEY1cAWrto0SLjwHlKSophJIwZM0ZycnJwiUICJGATAr4Xdm0CIBK6iRfP4H30oXofAGbkm3SWjKj6zLTyhwJ56/cZzXdYAwcz0+q6nxTnLZ+va2fVe4CZf7JG+DdTQ6MqwS6BPJ39t9I2OTQOAU+lw+6D5gHsXqiq7JqlxxUkxjlyksfP2FWzcqq+e8KECZ5xj1XfEGM51PDg36AY0ym7Ez0EuAQQAbrCQONwxN0RiqUAdA9b7ro3a+B38Ee+OpoPz9XHzLE6kqQu+TYNUwIa/FF+qnoashqkGIM/vqPecA/+0AF0URuDP/pMIQESIIFwEaABEC7ylepNfe6L6boH7qFQGQGVquNXLwQM9qoDQxde0nmJBEiABGKJAA2ACNJm2gszX4uPjxuhc+GCCGqWTZoSVwD20IFNOsxukgAJ2JwADYAI+wFg9on1Z/WGh2R3QIR1N+zNwawfrMGcM/+wq4MNIAESqEUC3AVQi7ADrcq1/nwr3kePV9KWv5XOeDFNhgbKBfZYt0Ars1k+HfDxcB59Kl9ZLvb5J+hWv2iP9reZCtldEiABiwjQALAIZCiKwRZBLXe86whFFSyTBEiABEjApgS4BGBTxbPbJEACJEAC9iZAA8De+mfvSYAESIAEbEqABoBNFc9ukwAJkAAJ2JsADQB765+9JwESIAESsCkBGgA2VTy7TQIkQAIkYG8C3AVgb/2z9zYgsGLFClm+fLnk5eVJ8+bN5dJLLzVeAOSv63hjYFJSkvGKYH/5mEYCJBC9BOgBiF7dseUkUCWBb7/9VqZPny4DBw6U3/72t9KzZ0956623ZPXq1X7v/eSTTyQ3N9dvHiaSAAlENwF6AKJbf2w9CfglMG/ePLnpppukS5cuRr709HTJz8+XxYsXS/fu3WXmzJkyaNAgSU1Nlf3798u2bdukRYsWsn37djlx4oRkZWVJ48aN/dbBRBIggegkQA9AdOqNrSaBKgnA5X/06FHp1KlThbwXXnihbNiwQZxOpyxbtkxOnz5tpMMwWL9+vTRr1kyaNm0qnTt3lrS0tAr38gsJkEDsEKABEDu6ZE9IoAKBAwcOSKNGjSQxMbHC9bp168qZM2fk7Fk8FflcgTcAB2b+iAOgkAAJxCYBGgCxqVf2igSMmTzc+vACeMrGjRulQYMGkpyc7HnZ7QmocJFfSIAEYpYADYCYVS07ZncCGRkZhht/9uzZoi+RMnBg1o+4gCuuuML4npKSIseOHTPON2/eXAGZeU+Fi/xCAiQQMwQYBBgzqmRHSOBcAvfcc4+888478sQTTxgu/cOHD8uAAQPcBsDQoUNl0qRJ0rBhQ8MjEB9fPifIzs6WadOmSWZmprF18NySeYUESCDaCcRFewfYfhKIZgITJkwon5qHuBOFhYVy/PhxY1nA4XBUqA3BgDgqr/cjTgDX9BXKFfJb+WXMmDGhK9zKhrIsEohBAvQAxKBS2SUSqEzADOyrfB3fYRBUNgpwvU6dOvigkAAJxCgBxgDEqGLZLRIgARIgARLwR4AGgD86TCMBEiABEiCBGCVAAyBGFctukQAJkAAJkIA/AjQA/NFhGgnEMIG9e/cKDgoJkAAJkAAJkIC9CHyk3cVBIQESsCEB7gKwodLZZRJwEaAHkD8FErAxAf4BsLHy2XUSIAESIAH7EqABYF/ds+ckQAIkQAI2JkADwMbKZ9dJgARIgATsS4AGgH11z56TAAmQAAnYmAANABsrn10nARIgARKwLwHuArCv7tlzEmipCFrrMYUooobAB9rSaVHTWjY0ognQAIho9bBxJEACJOAmcLHrjAaAGwlPakKABkBN6PFeEohuAvu0+ThGRXc3bNN6empso+ra6ShjAGqHM2shARIgARIggYgiQAMgotTBxpAACZAACZBA7RCgAVA7nFkLCZAACZAACUQUgbiIag0bQwIkEGoCj2gFWa5Khrk+v3R97tTPl1zn/IgMAtRXZOiBrSABEiCBqCfwlPagTI+zehS7DpzjGtIokUWA+oosfbA1JEACJBC1BDD7L9UDA77ngWtIo0QWAeorsvTB1pAACZBAVBOYr60v0cM0AHCOa5TIJEB9RaZe2CoSIAESiDoCd2qLnXqYBgDOcY0SmQSor8jUC1tFAiRAAlFHIEVbXKiHaQDgHNcokUmA+opMvUR9q7gNMOpVyA6QQNAETukdH+mB4D8cOMc1SmQSoL4iUy9sFQmQAAlEJYFLtdWmBwDnlMgmQH1Ftn7YOhIgARKIGgJx2tKdriNqGm3jhlJfNlZ+qLrOlwGFiizLJYHIJoDZ/5uR3US2zoMA9eUBg6ckQAIkQAI1I5Clt+OgRAcB6is69BQ1rYRbiUICJGABgaKRI7OK4+NHx5WVDdbiuuqRUVZWlmRB0bYtIi4uDkGKh/XILYuLm5tYWvpR8qefYumixkJ91RjhOQWEUl/nVMYLNSZAA6DGCFmA3QkU3Xxz6xKnc7zExY3SAZ87a0L4g9ABplTKyqYkOBzjkqdO3VWdqqiv6lCr3j1W6Kt6NfOuQAjQAAiEEvOQgA8ChTffPNzpdE7W5DQfWXg5NAQKHA7HHalTp04PpnjqKxhaluatlr4sbQELO4cAZyvnIOEFEgiMQMGNN44tLS39THNz8A8MmZW50sAeOgi0UOorUFIhyRe0vkLSChZagQA9ABVw8AsJBEYAM0kMQHT5B8YrVLngYo6Pjx9RlSeA+gqVBoIrN1B9BVcqc1eXAA2A6pLjfbYlgDXkYqdznQLgzD8yfgUFiQ5Hjq+YAOorMpTk0Qq/+vLIx9MQE+ASQIgBs/jYI2AE/HHwjyTFprl04rVN1JdXLOG86Fdf4WyY3eqmB8BuGmd/a0QAW8dK4uK2hcL1r2XKtsJCWXPsmKQkJEjPhg0lo25dd3uPnT0rJ0pKpHVK9d7bs6+oSOrEx0vjOnXcZQZ6UpN7A62jJvngWk4oK8uuvEUwGH1tV/bFpaXSIc27Y+fg6dNyvLhYzlP+yQ5HTZobMfee0P4c0d9V29TUWm2TL33VaiNYmdADwB8BCQRBAPv8QzH4bzt5Ui6dO1f6zJkjL23aJPcuWyZdvvxS/rF+vbt1/969W+5autT9PdiTh1etkn/99FOwtxn5a3JvtSoM8iboBLqpfFsw+vrFwoXSW/kvOXKkcjHG92sWLDDSV+Tne02PxotfHjggI7TftS2+9FXb7bB7fXwUsN1/Aex/UATwkB88k9VKOaozsMHffiuDMjLkq0GDJFVn/5iJYsD/zYoV0jI5We5u27bGVT7UoYOkJSbWuJxILcD1AKbxnu0LVl+pOrOfvHOn9Gvc2LMYWapGAbwgFOsIeNOXdaWzpEAI0AAIhBLzkMDPBPCEP0vlnzrjr6+D/tsXXSSOuPJVuUR11d+RlSXfHT4sX+zfX8EAgCv6kz175KwaCZc3bSrddanAFLh0/7N3r+zRwaqhDvbXtWxpuKyRXqJLDCV6D2TeoUPSRt2+p3RJAedwaf8iMzPg5QEMhgvz8mRAkyaGgYIyvzl40Fi+gAt9kLarnvZpw4kTAu/GtdoOU7DU8bG2HwZPU48lDjO9Bp/edOPtms8qRrZqJZ9p217s3r2Cm/99NQqQNkk/PQVLAl+qfg6oTmA09PUwHPLVsIMukIZlg+HKoL7LAPOXhvI3FxTIbJ2dF6h+slVPw1U3nssO644fl4X628BS0fVa7iLVxUWNGrmXjHD/XNUH7rm8WbOAl42cqpsZ2ubmanSaRpC3sgq037O0fVdo2Y2Sfn7YJdqBZaZe2pYAJCjdBFAeswRJgEsAQQJjdtsTyLCaAP6Q3q6DvTn4e5Y/oXdvmdq/v/tS3pkzMnT+fGOg/Vr/wF82b54xECADDIO+X38t/7ttmyDfNP1Dfsk338ghvQ6B+x+GA2T8hg3yp7Vr5VfLl8smHSxe0zSUdcbpNNL9/YO1crQBrvAWOoCX6qBx25Il8sfVq2XnqVPynJZ9laZjkCvUAexWTdul101ZrLPpsStXGoOXec2iT2+68XbNZ3UwpjBYT1d2phQpk0+VG3TkKT8pN/D9aNcu+UmNnNGLF8uTa9YYWcC8n+oCvOHheX3LFrlc+cLg8peGm1E3yoXxBz0+nZtrLAmZdaOsK9RjtFz5z9HfwPXffSe/VZ4btT2QSTt2yJWavlpjSWZrel9d1ligZVUlMA7/jy49vagGKYwOiK+yYNw9q+2Ct8QU/A7u0vvxGwhQgtJNgGUyWxAE6AEIAhazkoDVBDDj2q6Dx/n16gVUNAbShYMHSzfXrB9//DHIDNDZ9CydiabpH+ZvLrtM4EHAH+Sszz83BgrPGbhZEWbm87WsJM17WAesDrNmyVIdVAZqWb4Es0HU+avsbPljp05Gtne3bxcMhouGDJG6OuNEvTd+/728unmzPJuTIzkNGshUXc54uGNHIz9m/yN0No1BJNIE/hcM9Jjx39K6tdG8Gfv2SQudEfdKT6/Q3EfU4LlR+/GM9hEyTnnAALvpvPNkpxpJ8A78Z8AAw7CDYTVSmcDY8pd2odYBL8Ovzz9f/tqtm1HuNS1ayKhFi4xzeF5guMEoHKKzb8hbavA9pPEdkP2a/qi264uBA6Wnq70TVT8PqIGwauhQfVp1uYfJyOzxD9qHwRuBpjP13gbqqaiqrLvbtJEpavyMbd/eKOl7nf1j6QpeJ0p0EIi8/4HRwY2ttC8BTKUyreo+/hzjj/IZl2u+qnLbq3vdHPyRFzPW3a4ZF+IEcOzV77nqesdMG4OQr7LxhxqDPwS7DVrqka8zTl8Cdz5m9tiFYA7+yItAsiy9hkHelOZa1uc6cMIAuEcHCnglYADA4IFn4v2+fc2sVn56m+YGra9bdAD/y7p1skc5ttJ+wRioPPs/rQPmt7p00ldd3Zglm9JKDQUYDDCQElWvw5TXzVreJbpUgkEZ0kzZ+EpDOgZ3cFqvbv4NajCg/mL9DsEyC+43B39cu00NFtMA+E4HYRhhuXovDghm9vDa4DcBY6yynNb0W9R7MVf7AyMBgz+kqrKwRPV39fZs1HI71a9vLOuM0r6av6nK9Xj57k1fXrLxUqgI0AAIFVmWG6sEcrVjlhkA8TpIYC0ef0S9CVzPb2zdKrM1OBCCGX5lMYMSN2kZ96hLHzNwzFa76R97DBa+JNiAwG90gPhz167yV3X9eg6KcFMfU0NjpnogPMWcMY/SmfSfdEDF9kbkRWzCxToghkCgm8oStL4Ql4C17Q91dnurth1r7RN69apQLpY3wB07Bta6BlpkgCcHQZs4llxxhcHpMzV4ntBZO9I+7NdPsvXTX9p7alDAvd5FB9XOemBtH8s9kKPK2YwjMC7oP3XViEvQ3xEEywuYhVfWxbXqRfAl8CoM0ZgNGDPjdAnDXHKqqizECVyt5SJY9cnOnY14hxnq8QhCvOkriNuZtaYEzv1rUtMSeT8JxDABvJJW30Y31MouIjjsbXXTPqZ/RLEDwFOwvpzumpF5Xvd2jrXijuohmKjBhKZgPdcqGaOzWrh7YWA8pgMFAhAx0LXTAQ2zzlcvvNBd1RZdXoALGYIZJVzlU3SgwHr4nZXW0t031fDE0E2lMqqrL8z4n1ajBYM8+onBzjM+ArEP2DEArwYCHk2Zr0YSYghg0CEgc5zqFAeWWIbpNsL/0liL+9W97yvtOXX7//7HH+Vd1SEC/yAIrPuHzrQhWJvfobP5kxpLYC6hrFEDBAGeEHiIkrRdk9XQMGNKEMOAQMX2qidvcp727b/VwMHyTn+NPcC6Pmb3gZQF7w68D/01+BH99vROeavL85o3fXmm8zz0BBgEGHrGrCGGCOB99HiIiZVdwqCKNfvrdG0d0d0YYBE89zd9BgBmfk906RJQdRgUILgfbl/sLjisM25fSwABFeqRCW2EPKDtxWwWgXyQe3TZAYYKos4R4Y8liNsrBf7drQMFDADMTDGrtlqgE+imcrnV1dcwndlito04hsruf9SBZRsst8DoQn/Rb7jn79DnNGBghldgtDJAbAQEBhKuI2LeXxoGa7j/oUMIZuHPuwZ/LDtcqZ6JxlrGOF3nP6K63aqG1iM6AGNJAQJjpZ7WhSUMGCwIOnxG2/iB6qeOXvcmpl6xe+MJNVYeV+MOXoFAysJSBPoOD88vgzDsfOnLW/t4LXQEaACEji1LjkECxpPm9H30Vnatof5BR2AfBoeB+jCgltOnG8fHOmDCHeu5zc9fvX/Qff7Y0nfejBnGAXf7SJ1FIgAM51YJZpav9+xp1IX1b2x9e7lHD7lXlx9aaNsHarQ7tgfe5jHQX6R50L8+6mbGbNpyUZ1Ufgog6qiuvrCOjbV7DKwIwvMmT6lh1lVd9N1nzzb0heC8fyoHLCHA4wHPDnYCtNFAzLZffCEZ+gRGGHv+0vCUxt9rnrs1IC9L9YgZOQwNeFFu1XV6DOLT1M2OXQftZ840YjKQjmUBDORo9xT9zczXZQv8jpAHM/vnLrjAWxfOuYb24amA+M0EUhaWsO7S+hFQCl4Biw99BXw/M1pCoNxstKQoFkIC9iAQypfLYG8/Zo1NdCDwt37vizTWf7HvHEF4GBAwk8R6NcqrDcFWxKZaF2bInoJZYk8dKBHZHoIocb8vlwmlvtBHMEf0vOdjm82+Y0YPJjB+Kq/d+0vDEgG8QNh9AIF3B7M1DLgY0BHMB08BdIzyMdBvvPpq9zMZcA8CQBEbUHlZCWnBir+y4GHAzgY8xyJA8auvAMtgNgsIVPxfakGBLIIE7ECAr5cNXMsYsL7SnQITNJgRUeYJOmhZJXAl2+l1wFgGOF+9CY9o7MF9GkuAmAosAcBAMHcZWMW2qnKwTIBtqbfoFkV4HTwfguTr3kD15et+XreWgHX/E61tF0sjgYgm4Hr//EP4gxbRDY2AxiFW4B0NcvwffaiR1YO/du8hly789jRW9IVYAiwBYEdGF31uA7YZYgnJM/DTLwgLE7FD5Q6Nc/hNu3YBD/6B6svCZrIoPwToAfADh0kkUBUBeAKcTudkzef9FXJVFcD06hIocDgcdwQy+HtWQH150qjV82rpq1ZbaMPK6AGwodLZZesIYABKdDhy1JK2fHeAda2MnZLgcQFrMA928AcF6qt2fws11VftttZ+tdEDYD+ds8chIoB3z+P1s663nHXVajI0+C0pRNXVuFjzSXFdvTwdrsaFW1SADiBntSg8MS4X+8axrc9btH91qos2fVWnj7V9Tyj1Vdt9YX0kQAIkEMsEsG/+nL3zsdxh9o0ESOBnAhUfO/bzdZ6RAAnEPgEuAca+jtlDEvBJgH8AfKJhAgmQAAmQAAnELgEaALGrW/aMBEiABEiABHwSoAHgEw0TSIAESIAESCB2CdAAiF3dsmckQAIkQAIk4JMADQCfaJhAAiRAAiRAArFLgAZA7OqWPSMBEiABEiABnwRoAPhEwwQSIAESIAESiF0CNABiV7fsGQmQAAmQAAn4JEADwCcaJpAACZAACZBA7BKgARC7umXPSIAESIAESMAnARoAPtEwgQRIgARIgARilwDfBhi7umXPSMAbgUf0YpYrYZjr80vX5079fMl1zg8SIAESIAESIIEYIvCU9qVMD7xmt9h14BzXkEYhARIgARIgARKIQQKY/ZfqgQHf88A1pFFIgARIgARIgARilMB87VeJHqYBgHNco5AACZAACZAACcQwgTu1b049TAMA57hGIQESIAESIAESiGECKdq3Qj1MAwDnuEYhARKwEQFuA7SRstlVEnAROKWfH+mB4D8cOMc1CgmQAAmQAAmQQIwTuFT7Z3oAcE4hARIgARIgARKwAQE8AwT7/nFQSIAEbEggwYZ9ZpdJgATKZ/9vEgQJkAAJkAAJkID9CGRpl3FQSIAEbEgAbkAKCZBAmAhMmDAB6/C2lTFjxvBvkG21z46HmwB3AYRbA6yfBEiABEiABMJAgAZAGKCzShIgARIgARIINwEaAOHWAOsnARIgARIggTAQoAEQBuiskgRIgARIgATCTYAGQLg1wPpJgARIgARIIAwEaACEATqrJAESIAESIIFwE6ABEG4NsH4SCBGBdevWyeLFi92lFxUVyaRJk2Tjxo3uazwhARKwLwEaAPbVPXse4wQOHjwoO3eWP+kXg/+rr74qycnJ0qlTpxjvObtHAiQQCAEaAIFQYh4SiGIC5uDfpUsXuemmm9w9Wblypbz99tsybdo0KSwslOLiYpkyZYo4nU4jz/Hjx+Xzzz935+cJCZBAbBGgARBb+mRvSKACgVOnThkz/4SEBLnhhhvcaVgGmDNnjgwYMEBKS0uNPImJibJr1y7ZtGmTke+HH34wDAP3TTwhARKIKQI0AGJKnewMCVQksHTpUunWrZvk5eXJjz/+6E5cvny5dO/eXeLj4+WCCy6QgoICOXz4sPTr109WrFhh5MNn37593ffwhARIILYI8G2AsaVP9oYEKhDAgH7ddddJdna2vPXWW9KmTRtJT0+XvXv3SllZmZw9e9bI379/f4EHoGfPnjJjxgzJz883Zv/ITyEBEohNAvQAxKZe2SsSMAgg6A+C9f8+ffrIxIkTDZd/jx49JDMzU4YPHy7Dhg0zDILU1FRJSUmRtm3byocffsjZv0GO/5BA7BKgARC7umXPSKACgZEjRwoC+7D2D89Abm6uvPLKK/L0008bBgI8ABC4/deuXWvkqVAAv5AACcQUAS4BxJQ62RkS+JnAkCFDfv6iZ0lJSfLMM8+4r40dO9Zw9detW9eY+ZsJ9evXl5ycHGnUqJF5iZ8kQAIxSIAGQAwqlV0igUAJVB7klyxZInPnzpVRo0YFWgTzkQAJRCkBGgBRqjg2mwRCQaB169YCz0C9evVCUTzLJAESiCACNAAiSBlsCgmEm0DLli3D3QTWTwIkUEsEGARYS6BZDQmQAAmQAAlEEgF6ACJJG5XaUvTkNVnFzrjRcWWlg0Xiumpyhu7dTqqUjV+DIBAXF4eN74dFynLL4uLnJjrKPkr++8zyB+YHUQ6zkgAJkEC0E6ABEIEaLBp3fesSKRlfUiKjpKw0vsxoY/m/EdjcqGqSy4DK1EZnKtuhJWVx/ygYd/WUBEkYlzx+xq6o6gwbSwIkQAI1IMAlgBrAC8WthY9fO7y4zLlOH9I2Wgcr6icUkD3KBGOwBnOw90jiKQmQAAnENAEOMBGk3oJHrxlbWlr2mbqn0yKoWTZpSlka2EMHNukwu0kCJGBzAjQAIuQHYMw+4+QVzvrDpxCDveqAnoDw6YA1kwAJ1B4BGgC1x9pnTVjzdzrLJnPw94mo1hKgA+gCOqm1SlkRCZAACYSBAA2AMECvXCUC/kLt9neWMoiwMnff38vSynXiOwdTSIAESCDaCXAXQJg1iK1+RrS/WD9AFztL5cXFW2X2tsOy7nCB1HXES68WDeTR/u3kkvNq9znv24+dkvS6idJQD6sk79QZOV1SKq3ql7/xzqpyy8uJG6W6eSxatgiePn1aDh48KK1atRKHw+FGUVpaKrt375aEhATj7X94DXCJ/uBMwXsAMjIyJD6+4lzgxIkTcvToUTNbhU+8NbBJkyYVrvELCZBA9BGgARBmnWGfP7b6Wd2ME2eKZeTUHwQD7x/6ZcvzzTvL5vyT8unGA3LtR0vlgxE95Zp2zayu1md5w/+9TMb2aSv39czymSfYhNeW75Dl+47JrFv7BntrlfmxFFDsjB+tGdU7E7S8oXes0uMjPY4Fc/e7775rPIfffI1voPfu2rVLXn75ZXnhhRekQYMGxm0Y/N977z1Zvny53H///YYB8MYbb8ihQ4dEn4dg5NF+Sp06dWTQoEEyYsQItyGwdOlS+fjjj71Wf/HFF8vdd9/tNY0XSYAEoocADYAw6woP+bF+7i/yytJtsvXoKZn/y/7SukH5DLlfq3S5LSdTBr67SB79ekOtGgBhxlyt6ssfwFQtA6C/VjhGj//S4z96vK3HHD2ceviVFStWGANxsAZA5ULNwR/l/e53v5POnTu7s1x11VWCVwNDTp48KevWrZMPPvjAOL/rrrvc+dCG559/3v3dPPH0MJjX+EkCJBB9BGgAhF1neMKftSZAUbFTXv9hhzzc73z34G92M0FdvW9e191YFoCXoH6dRCnRmeL4RVvlP5sOyL6C09I5o55x77Dzmxq3zdpySN5bu1t+3bONPLtgs2w4UiAdGtWTl6/soksKDY08H2/YJy/pcgOMjvTkRLmhQ3P5++WdDA/EPdNXGeW+tGSrvL9ur3yrRgliEv763WaZqvcdLDwrjfWe23NayVOXtjdmp49+vV7aN0qV/NPF8qHec0w/B7dtIq8M7SoNtM2jPvlBfth/XE5pX/tPXCgvDOksA1o3Nrtp0afx9MWalIWnNv5Cj5v10KcPGobAO/q5UQ+/smfPHtm/f7/hhocLv0ePHtKrVy+/95iJ5uC/cuVKeeCBB6RDhw5m0jmfeOlPv379xLwHxkHz5s2NfPASYImAQgIkEJsEaACEX68ZVjdh69FCKdK18cvaeB8Qu2SkCQ5TxnyxRr7deUSeG9xZB/ZUmb75oIz+dIW8d8OFMlwHcgy+C3bmy2EdqB+7pJ3UTYjXwfsn+dXnq+XH+wbJxrwCuXfGamPAH5qdIVvyC+WBr9ZJRkqS/F91+eOeh2bnCtJMo+LFxVtkwsqd8tpVOZLTNE2W7T1m3HNp60ZyeZsmsuP4KflMDZJh52fIm9d3l61a5sNz1sur6tl4emBHGaPlOlbt0uunjPLbabutlumbD8ACmlKNcj13EJhBD9DzQ3qM02OFHm/qgSUCr5KXlyeTJ0+W2267zVijx9JAp06dBOvv/sQcyH/88Ud58MEHJTs72192d1qfPn2M5YJNmza5DQB3Ik9IgARikgANgBhU687jRUavWtSreva2QQfvqRv2y8c39TYGaNzYo3kDnZWfkWd0tg8DAFJwtkRev7qbdGhc/prYcf1LZYTGGBxXL8KBk2eMPP0y06WjpuNITnRIod6DoD+U8eS8jXJB0/pybfvyuIO6CQ4Zr7P2m7uUv32uk97z5/mbDOMBBgCkiRoQ/xrWzTjvrZ6GBbvyZaXO+iFD2mbIfP1+7HSJu41GQgz9gwG/b9/y+IZ58+YZa/dt27b128P333/fcOnDTZ+YaNoefm8xEpEXsQNHjhxxZy4qKpKnnnrK/R0n8Ag8+eSTFa7xCwmQQHQSoAEQfr3BNYxn01smjXXghOSdOivneYmQL9XArxNnSiRVB+lVB05IQnycDK7kLbhKZ96T1u4xBnGUlZaU4B788b1Zah18CJYbsKNgoM7cr3x/scAIGKDfr9Llg8GugdzIWOmfB/tm63JBoUzUWfyGvJPy/Z58OaqeBs/FkJ5qiHgK6kQgY22JGi6HtK5R1ahvjd5TbrmIFOs5RuKglgBQp2ccAKL4nc4qQwhkx44d8vjjjxuz+TfffNMYrJOSAnt/FFz+6enpqNoQGAXXXnut+dX4RDsoJEACsUHA8ujz2MBSm70oy7W6tnbpKUaRK/Z7D0BfqDPn1q99Ldt0h8AZ3SqYqAaAwxUVbraljm4ZhJx1PT8g0VEeNW6me34mat4Zt1wkX93WTwZlNdaZ+REZMnmx/F6XAXzJMws2GcGIubo9EUsA/60z/TauYEXznjq61BBeqbFu8ObBaXpcrUcLPR7To8r1f81TbcGaf1ZWltx7772CZYSpU6cGVFZ+vnpTjh0TTw8DBnvEB3gevXv3Dqg8ZiIBEoh8AuH+Cxv5hELcQryS1uoqmqTUkat1Bo5AQMzQK8u/1++T5vXqGK76Tk3qGfECqw+eqJBt8Z6jxiwfe/erkmX7jhrBfX119v/4Je1lzu0Xy18GdpB3Vu82gvQq3482vbp0u7x0RRd56cqu8ssLzpPuzeobXonKecP5vQa6WaTtvl8PrHfAg/ClHucqQi9aLQ0blgdlZmZmGrsJFixYIKtWraqyGiwxYDsg7qOQAAnYgwANgDDrGe+jV9drqdXN+LMOwIiuv+bDpbJk71F9YI5TDum6PiLv4dp/cUgXo0q47HH8ZtZaI5gPDw+atmm//L8VO+TBvv7Xm802YzlhrM72Z245KFheQF3YTdBUXfYpuswAgUdhswby4bkEpmzRJQDkP1J0Vh7RqH9E/J/UuIFABWWiT5uPnPRqaARajrd80Al04y0tgGu/1jxv6OHdBeOngNdee03q169vRP177rUfO3astGvXzs+d5yYNGTJEOnbsKJMmTTJm92aOgoICwS4DHJs36+9B0+fMmSP33XdfUHEDZnn8JAESiE4CXNALs97wpDm8j16bMdrKpnTVKH88A+D+WWvk6g+WGgMt1tdb6Mz/bY2qv6Fjc3d1H4y40IjA7//O98b2vHq63v/Hi9vJ/b3auPP4O7lCA/Ie0S2H2AlwRncfYFA/X5ch3h3ew33b6K6Z+lTCLfK2rvkfeWSYRvJ3kL8t/En+uWSbYHnhwYuy5c5ureQvGng4QOMJAhHEKby7Zrf0fus7+VAfbGQGGAZyb9V5yqYk/33WzqrzRW4OrOnDiHj22Wdl4sSJxq4AtHbRokXGgfOUlBTDSBgzZozk5OTgEoUESMAmBHwv7NoEQCR0Ey+ewfvoQ/U+AMzIN+ksGVH1mWnlDwXy1u8zmu+wBg5mptV1PynOWz5f186q9wAz/2SN8G+mhkZVgl0CeTr7b6VtcmgcAp5Kh90HzQPYvVBV2TVLjytIjHPkJI+fsatm5VR994QJEzzjHqu+IcZyqOHBv0ExplN2J3oIcAkgAnSFgcbhiLsjFEsB6B623HVv1sDv4I98dTQfnquPmWN1JEld8m0apgQ0+KP8VPU0ZDVIMQZ/fEe94R78oQPoojYGf/SZQgIkQALhIkADIFzkK9Wb+twX03UP3EOhMgIqVcevXggY7FUHhi68pPMSCZAACcQSARoAEaTNtBdmvhYfHzdC58IFEdQsmzQlrgDsoQObdJjdJAESsDkBGgAR9gPA7BPrz+oND8nw+JTmAAAVwUlEQVTugAjrbtibg1k/WIM5Z/5hVwcbQAIkUIsEuAugFmEHWpVr/flWvI8er6Qtfyud8WKaDA2UC+yxboFWZrN8OuDj4Tz6VL6yXOzzT9CtftEe7W8zFbK7JEACFhGgAWARyFAUgy2CWu541xGKKlgmCZAACZCATQlwCcCmime3SYAESIAE7E2ABoC99c/ekwAJkAAJ2JQADQCbKp7dJgESIAESsDcBGgD21j97TwIkQAIkYFMCNABsqnh2mwRIgARIwN4EuAvA3vpn721AYMWKFbJ8+XLJy8uT5s2by6WXXmq8AMhf1/HGwKSkJOMVwf7yMY0ESCB6CdADEL26Y8tJoEoC3377rUyfPl0GDhwov/3tb6Vnz57y1ltvyerVq/3e+8knn0hubq7fPEwkARKIbgL0AES3/th6EvBLYN68eXLTTTdJly5djHzp6emSn58vixcvlu7du8vMmTNl0KBBkpqaKvv375dt27ZJixYtZPv27XLixAnJysqSxo0b+62DiSRAAtFJgB6A6NQbW00CVRKAy//o0aPSqVOnCnkvvPBC2bBhgzidTlm2bJmcPn3aSIdhsH79emnWrJk0bdpUOnfuLGlpaRXu5RcSIIHYIUADIHZ0yZ6QQAUCBw4ckEaNGkliYmKF63Xr1pUzZ87I2bN4KvK5Am8ADsz8EQdAIQESiE0CNABiU6/sFQkYM3m49eEF8JSNGzdKgwYNJDk52fOy2xNQ4SK/kAAJxCwBGgAxq1p2zO4EMjIyDDf+7NmzRV8iZeDArB9xAVdccYXxPSUlRY4dO2acb968uQIy854KF/mFBEggZggwCDBmVMmOkMC5BO655x5555135IknnjBc+ocPH5YBAwa4DYChQ4fKpEmTpGHDhoZHID6+fE6QnZ0t06ZNk8zMTGPr4Lkl8woJkEC0E4iL9g6w/SQQzQQmTJhQPjUPcScKCwvl+PHjxrKAw+GoUBuCAXFUXu9HnACu6SuUK+S38suYMWNCV7iVDWVZJBCDBOgBiEGlskskUJmAGdhX+Tq+wyCobBTgep06dfBBIQESiFECjAGIUcWyWyRAAiRAAiTgjwANAH90mEYCJEACJEACMUqABkCMKpbdIgESIAESIAF/BGgA+KPDNBKIYQJ79+4VHBQSIAESIAESIAF7EfhIu4uDQgIkYEMC3AVgQ6WzyyTgIkAPIH8KJGBjAvwDYGPls+skQAIkQAL2JUADwL66Z89JgARIgARsTIAGgI2Vz66TAAmQAAnYlwANAPvqnj0nARIgARKwMQEaADZWPrtOAiRAAiRgXwLcBWBf3bPnJNBSEbTWYwpRRA2BD7Sl06KmtWxoRBOgARDR6mHjSIAESMBN4GLXGQ0ANxKe1IQADYCa0OO9JBDdBPZp83GMiu5u2Kb19NTYRtW101HGANQOZ9ZCAiRAAiRAAhFFgAZARKmDjSEBEiABEiCB2iFAA6B2OLMWEiABEiABEogoAnER1Ro2hgRIINQEHtEKslyVDHN9fun63KmfL7nO+REZBKivyNADW0ECJEACUU/gKe1BmR5n9Sh2HTjHNaRRIosA9RVZ+mBrSIAESCBqCWD2X6oHBnzPA9eQRoksAtRXZOmDrSEBEiCBqCYwX1tfoodpAOAc1yiRSYD6iky9sFUkQAIkEHUE7tQWO/UwDQCc4xolMglQX5GpF7aKBEiABKKOQIq2uFAP0wDAOa5RIpMA9RWZeon6VnEbYNSrkB0ggaAJnNI7PtIDwX84cI5rlMgkQH1Fpl7YKhIgARKISgKXaqtNDwDOKZFNgPqKbP2wdSRAAiQQNQTitKU7XUfUNNrGDaW+bKz8UHWdLwMKFVmWSwKRTQCz/zcju4lsnQcB6ssDBk9JgARIgARqRiBLb8dBiQ4C1Fd06ClqWgm3EoUESMACAkUjR2YVx8ePjisrG6zFddUjo6ysLMmCom1bRFxcHIIUD+uRWxYXNzextPSj5E8/xdJFjYX6qjHCcwoIpb7OqYwXakyABkCNEbIAuxMouvnm1iVO53iJixulAz531oTwB6EDTKmUlU1JcDjGJU+duqs6VVFf1aFWvXus0Ff1auZdgRCgARAIJeYhAR8ECm++ebjT6ZysyWk+svByaAgUOByOO1KnTp0eTPHUVzC0LM1bLX1Z2gIWdg4BzlbOQcILJBAYgYIbbxxbWlr6mebm4B8YMitzpYE9dBBoodRXoKRCki9ofYWkFSy0AgF6ACrg4BcSCIwAZpIYgOjyD4xXqHLBxRwfHz+iKk8A9RUqDQRXbqD6Cq5U5q4uARoA1SXH+2xLAGvIxU7nOgXAmX9k/AoKEh2OHF8xAdRXZCjJoxV+9eWRj6chJsAlgBADZvGxR8AI+OPgH0mKTXPpxGubqC+vWMJ50a++wtkwu9VND4DdNM7+1ogAto6VxMVtC4XrX8uUbYWFsubYMUlJSJCeDRtKRt267vYeO3tWTpSUSOuU6r23Z19RkdSJj5fGdeq4ywz0pCb3BlpHTfLBtZxQVpZdeYtgMPraruyLS0ulQ5p3x87B06fleHGxnKf8kx2OmjQ3Yu49of05or+rtqmptdomX/qq1UawMqEHgD8CEgiCAPb5h2Lw33bypFw6d670mTNHXtq0Se5dtky6fPml/GP9enfr/r17t9y1dKn7e7AnD69aJf/66adgbzPy1+TealUY5E3QCXRT+bZg9PWLhQult/JfcuRI5WKM79csWGCkr8jP95oejRe/PHBARmi/a1t86au222H3+vgoYLv/Atj/oAjgIT94JquVclRnYIO//VYGZWTIV4MGSarO/jETxYD/mxUrpGVystzdtm2Nq3yoQwdJS0yscTmRWoDrAUzjPdsXrL5SdWY/eedO6de4sWcxslSNAnhBKNYR8KYv60pnSYEQoAEQCCXmIYGfCeAJf5bKP3XGX18H/bcvukgcceWrconqqr8jK0u+O3xYvti/v4IBAFf0J3v2yFk1Ei5v2lS661KBKXDp/mfvXtmjg1VDHeyva9nScFkjvUSXGEr0Hsi8Q4ekjbp9T+mSAs7h0v5FZmbAywMYDBfm5cmAJk0MAwVlfnPwoLF8ARf6IG1XPe3ThhMnBN6Na7UdpmCp42NtPwyeph5LHGZ6DT696cbbNZ9VjGzVSj7Ttr3YvXsFN//7ahQgbZJ+egqWBL5U/RxQncBo6OthOOSrYQddIA3LBsOVQX2XAeYvDeVvLiiQ2To7L1D9ZKuehqtuPJcd1h0/Lgv1t4Glouu13EWqi4saNXIvGeH+uaoP3HN5s2YBLxs5VTcztM3N1eg0jSBvZRVov2dp+67Qshsl/fywS7QDy0y9tC0BSFC6CaA8ZgmSAJcAggTG7LYnkGE1AfwhvV0He3Pw9yx/Qu/eMrV/f/elvDNnZOj8+cZA+7X+gb9s3jxjIEAGGAZ9v/5a/nfbNkG+afqH/JJvvpFDeh0C9z8MB8j4DRvkT2vXyq+WL5dNOli8pmko64zTaaT7+wdr5WgDXOEtdAAv1UHjtiVL5I+rV8vOU6fkOS37Kk3HIFeoA9itmrZLr5uyWGfTY1euNAYv85pFn9504+2az+pgTGGwnq7sTClSJp8qN+jIU35SbuD70a5d8pMaOaMXL5Yn16wxsoB5P9UFeMPD8/qWLXK58oXB5S8NN6NulAvjD3p8OjfXWBIy60ZZV6jHaLnyn6O/geu/+05+qzw3ansgk3bskCs1fbXGkszW9L66rLFAy6pKYBz+H116elENUhgdEF9lwbh7VtsFb4kp+B3cpffjNxCgBKWbAMtktiAI0AMQBCxmJQGrCWDGtV0Hj/Pr1QuoaAykCwcPlm6uWT/++GOQGaCz6Vk6E03TP8zfXHaZwIOAP8hZn39uDBSeM3CzIszM52tZSZr3sA5YHWbNkqU6qAzUsnwJZoOo81fZ2fLHTp2MbO9u3y4YDBcNGSJ1dcaJem/8/nt5dfNmeTYnR3IaNJCpupzxcMeORn7M/kfobBqDSKQJ/C8Y6DHjv6V1a6N5M/btkxY6I+6Vnl6huY+owXOj9uMZ7SNknPKAAXbTeefJTjWS4B34z4ABhmEHw2qkMoGx5S/tQq0DXoZfn3++/LVbN6Pca1q0kFGLFhnn8LzAcINROERn35C31OB7SOM7IPs1/VFt1xcDB0pPV3snqn4eUANh1dCh+rTqcg+TkdnjH7QPgzcCTWfqvQ3UU1FVWXe3aSNT1PgZ2769UdL3OvvH0hW8TpToIBB5/wOjgxtbaV8CmEplWtV9/DnGH+UzLtd8VeW2V/e6OfgjL2asu10zLsQJ4Nir33PV9Y6ZNgYhX2XjDzUGfwh2G7TUI19nnL4E7nzM7LELwRz8kReBZFl6DYO8Kc21rM914IQBcI8OFPBKwACAwQPPxPt9+5pZrfz0Ns0NWl+36AD+l3XrZI9ybKX9gjFQefZ/WgfMb3XppK+6ujFLNqWVGgowGGAgJapehymvm7W8S3SpBIMypJmy8ZWGdAzu4LRe3fwb1GBA/cX6HYJlFtxvDv64dpsaLKYB8J0OwjDCcvVeHBDM7OG1wW8CxlhlOa3pt6j3Yq72B0YCBn9IVWVhierv6u3ZqOV2ql/fWNYZpX01f1OV6/Hy3Zu+vGTjpVARoAEQKrIsN1YJ5GrHLDMA4nWQwFo8/oh6E7ie39i6VWZrcCAEM/zKYgYlbtIy7lGXPmbgmK120z/2GCx8SbABgd/oAPHnrl3lr+r69RwU4aY+pobGTPVAeIo5Yx6lM+k/6YCK7Y3Ii9iEi3VADIFAN5UlaH0hLgFr2x/q7PZWbTvW2if06lWhXCxvgDt2DKx1DbTIAE8OgjZxLLniCoPTZ2rwPKGzdqR92K+fZOunv7T31KCAe72LDqqd9cDaPpZ7IEeVsxlHYFzQf+qqEZegvyMIlhcwC6+si2vVi+BL4FUYojEbMGbG6RKGueRUVVmIE7hay0Ww6pOdOxvxDjPU4xGEeNNXELcza00JnPvXpKYl8n4SiGECeCWtvo1uqJVdRHDY2+qmfUz/iGIHgKdgfTndNSPzvO7tHGvFHdVDMFGDCU3Beq5VMkZntXD3wsB4TAcKBCBioGunAxpmna9eeKG7qi26vAAXMgQzSrjKp+hAgfXwOyutpbtvquGJoZtKZVRXX5jxP61GCwZ59BODnWd8BGIfsGMAXg0EPJoyX40kxBDAoENA5jjVKQ4ssQzTbYT/pbEW96t731fac+r2//2PP8q7qkME/kEQWPcPnWlDsDa/Q2fzJzWWwFxCWaMGCAI8IfAQJWm7JquhYcaUIIYBgYrtVU/e5Dzt23+rgYPlnf4ae4B1fczuAykL3h14H/pr8CP67emd8laX5zVv+vJM53noCTAIMPSMWUMMEcD76PEQEyu7hEEVa/bX6do6orsxwCJ47m/6DADM/J7o0iWg6jAoQHA/3L7YXXBYZ9y+lgACKtQjE9oIeUDbi9ksAvkg9+iyAwwVRJ0jwh9LELdXCvy7WwcKGACYmWJWbbVAJ9BN5XKrq69hOrPFbBtxDJXd/6gDyzZYboHRhf6i33DP36HPacDADK/AaGWA2AgIDCRcR8S8vzQM1nD/Q4cQzMKfdw3+WHa4Uj0TjbWMcbrOf0R1u1UNrUd0AMaSAgTGSj2tC0sYMFgQdPiMtvED1U8dve5NTL1i98YTaqw8rsYdvAKBlIWlCPQdHp5fBmHY+dKXt/bxWugI0AAIHVuWHIMEjCfN6fvorexaQ/2DjsA+DA4D9WFALadPN46PdcCEO9Zzm5+/ev+g+/yxpe+8GTOMA+72kTqLRAAYzq0SzCxf79nTqAvr39j69nKPHnKvLj+00LYP1Gh3bA+8zWOgv0jzoH991M2M2bTlojqp/BRA1FFdfWEdG2v3GFgRhOdNnlLDrKu66LvPnm3oC8F5/1QOWEKAxwOeHewEaKOBmG2/+EIy9AmMMPb8peEpjb/XPHdrQF6W6hEzchga8KLcquv0GMSnqZsduw7az5xpxGQgHcsCGMjR7in6m5mvyxb4HSEPZvbPXXCBty6ccw3tw1MB8ZsJpCwsYd2l9SOgFLwCFh/6Cvh+ZrSEQLnZaElRLIQE7EEglC+Xwd5+zBqb6EDgb/3eF2ms/2LfOYLwMCBgJon1apRXG4KtiE21LsyQPQWzxJ46UCKyPQRR4n5fLhNKfaGPYI7oec/HNpt9x4weTGD8VF6795eGJQJ4gbD7AALvDmZrGHAxoCOYD54C6BjlY6DfePXV7mcy4B4EgCI2oPKyEtKCFX9lwcOAnQ14jkWA4ldfAZbBbBYQqPi/1IICWQQJ2IEAXy8buJYxYH2lOwUmaDAjoswTdNCySuBKttPrgLEMcL56Ex7R2IP7NJYAMRVYAoCBYO4ysIptVeVgmQDbUm/RLYrwOng+BMnXvYHqy9f9vG4tAev+J1rbLpZGAhFNwPX++YfwBy2iGxoBjUOswDsa5Pg/+lAjqwd/7d5DLl347Wms6AuxBFgCwI6MLvrcBmwzxBKSZ+CnXxAWJmKHyh0a5/Cbdu0CHvwD1ZeFzWRRfgjQA+AHDpNIoCoC8AQ4nc7Jms/7K+SqKoDp1SVQ4HA47ghk8PesgPrypFGr59XSV6220IaV0QNgQ6Wzy9YRwACU6HDkqCVt+e4A61oZOyXB4wLWYB7s4A8K1Fft/hZqqq/aba39aqMHwH46Z49DRADvnsfrZ11vOeuq1WRo8FtSiKqzRbE6gJzVjuKJcbnYN45tfd6i/asDg/qqDjX/94RSX/5rZioJkAAJkAAJkAAJkAAJkAAJkAAJkAAJkAAJkAAJkAAJkAAJkAAJkAAJkAAJkAAJkAAJkAAJkAAJkAAJkAAJkAAJkAAJkAAJkAAJkAAJkAAJkAAJkAAJkAAJkAAJkAAJkAAJkAAJkAAJkAAJkAAJkAAJkAAJkAAJkAAJkAAJkAAJkAAJkAAJkAAJkAAJkAAJkAAJkAAJkAAJkAAJkAAJkAAJkAAJkAAJkAAJkAAJkAAJkAAJkAAJkAAJkAAJkAAJkAAJkAAJkAAJkAAJkAAJkAAJkAAJkAAJkAAJkAAJkAAJkAAJkAAJkAAJkAAJkAAJkAAJkAAJkAAJkAAJkAAJkAAJkAAJkAAJkAAJkAAJkAAJkAAJkAAJkAAJkAAJkAAJkAAJkAAJkAAJkAAJkAAJkAAJkAAJkAAJkAAJkAAJkAAJkAAJkAAJkAAJkAAJkAAJkAAJkAAJkAAJkAAJkAAJkAAJkAAJkAAJkAAJkAAJkAAJkAAJkAAJkAAJkAAJkAAJkAAJkAAJkAAJkAAJkAAJkAAJkAAJkAAJkAAJkAAJkAAJkAAJkAAJkAAJkAAJkAAJkAAJkAAJkAAJkAAJkAAJkAAJkAAJkAAJkAAJkAAJkAAJkAAJkAAJkAAJkAAJkAAJkAAJkAAJkAAJkAAJkAAJkAAJkAAJxAKB/w/Gzl4EaHaFQgAAAABJRU5ErkJggg==;" vertex="1" parent="1">
          <mxGeometry x="920" y="1080" width="330" height="243" as="geometry" />
        </mxCell>
        <mxCell id="N_Q1f8X5Kt0thkg9tTBP-58" value="Symmetric-key ratchet" style="text;html=1;align=left;verticalAlign=middle;resizable=0;points=[];autosize=1;strokeColor=none;fillColor=none;" vertex="1" parent="1">
          <mxGeometry x="900" y="1020" width="140" height="30" as="geometry" />
        </mxCell>
        <mxCell id="N_Q1f8X5Kt0thkg9tTBP-60" value="Receiving/sending KDF chain structure" style="text;html=1;align=left;verticalAlign=middle;whiteSpace=wrap;rounded=0;strokeColor=none;fontColor=#82B366;" vertex="1" parent="1">
          <mxGeometry x="960" y="1052" width="270" height="30" as="geometry" />
        </mxCell>
        <mxCell id="N_Q1f8X5Kt0thkg9tTBP-61" value="sending/receiving a new message" style="rounded=0;whiteSpace=wrap;html=1;" vertex="1" parent="1">
          <mxGeometry x="1240" y="1160" width="100" height="50" as="geometry" />
        </mxCell>
        <mxCell id="N_Q1f8X5Kt0thkg9tTBP-62" value="sending/receiving a new message" style="rounded=0;whiteSpace=wrap;html=1;" vertex="1" parent="1">
          <mxGeometry x="1240" y="1260" width="100" height="50" as="geometry" />
        </mxCell>
        <mxCell id="N_Q1f8X5Kt0thkg9tTBP-64" value="" style="endArrow=classic;html=1;rounded=0;" edge="1" parent="1" target="N_Q1f8X5Kt0thkg9tTBP-61">
          <mxGeometry width="50" height="50" relative="1" as="geometry">
            <mxPoint x="1160" y="1192" as="sourcePoint" />
            <mxPoint x="1210" y="1142" as="targetPoint" />
          </mxGeometry>
        </mxCell>
        <mxCell id="N_Q1f8X5Kt0thkg9tTBP-65" value="" style="endArrow=classic;html=1;rounded=0;" edge="1" parent="1">
          <mxGeometry width="50" height="50" relative="1" as="geometry">
            <mxPoint x="1160" y="1284" as="sourcePoint" />
            <mxPoint x="1240" y="1280" as="targetPoint" />
          </mxGeometry>
        </mxCell>
        <mxCell id="N_Q1f8X5Kt0thkg9tTBP-68" value="" style="rounded=0;whiteSpace=wrap;html=1;fillColor=none;dashed=1;strokeColor=#82B366;" vertex="1" parent="1">
          <mxGeometry x="960" y="1082" width="250" height="238" as="geometry" />
        </mxCell>
        <mxCell id="N_Q1f8X5Kt0thkg9tTBP-66" value="" style="rounded=0;whiteSpace=wrap;html=1;fillColor=none;dashed=1;strokeColor=#6C8EBF;" vertex="1" parent="1">
          <mxGeometry x="980" y="1100" width="210" height="110" as="geometry" />
        </mxCell>
        <mxCell id="N_Q1f8X5Kt0thkg9tTBP-67" value="single ratchet step" style="text;html=1;align=left;verticalAlign=middle;whiteSpace=wrap;rounded=0;fillColor=none;strokeColor=none;fontColor=#6C8EBF;" vertex="1" parent="1">
          <mxGeometry x="985" y="1105" width="70" height="40" as="geometry" />
        </mxCell>
        <mxCell id="N_Q1f8X5Kt0thkg9tTBP-69" value="&lt;br&gt;&lt;p&gt;The KDF inputs for the sending and receiving chains are constant, so &lt;br&gt;these chains don&#39;t provide break-in recovery. The sending and receiving chains just ensure that each message is encrypted with a unique key that can be deleted after encryption or decryption. Calculating the next chain key and message key from a given chain key is a single&amp;nbsp;&lt;strong&gt;ratchet step&lt;/strong&gt; in the&amp;nbsp;&lt;strong&gt;symmetric-key ratchet&lt;/strong&gt;.&lt;/p&gt;&lt;div&gt;&lt;br/&gt;&lt;/div&gt;" style="rounded=0;whiteSpace=wrap;html=1;" vertex="1" parent="1">
          <mxGeometry x="1400" y="1080" width="200" height="200" as="geometry" />
        </mxCell>
        <mxCell id="N_Q1f8X5Kt0thkg9tTBP-70" value="We use the term &lt;strong&gt;KDF chain&amp;nbsp;&lt;/strong&gt;when some of the output from a KDF is used as an &lt;strong&gt;output key&lt;/strong&gt; and some is used to replace the KDF key" style="rounded=0;whiteSpace=wrap;html=1;" vertex="1" parent="1">
          <mxGeometry x="1320" y="321" width="160" height="79" as="geometry" />
        </mxCell>
        <mxCell id="N_Q1f8X5Kt0thkg9tTBP-71" value="Diffie-Hellman ratchet" style="text;html=1;align=center;verticalAlign=middle;resizable=0;points=[];autosize=1;strokeColor=none;fillColor=none;" vertex="1" parent="1">
          <mxGeometry x="1720" y="1010" width="140" height="30" as="geometry" />
        </mxCell>
        <mxCell id="N_Q1f8X5Kt0thkg9tTBP-72" value="If an attacker steals one party&#39;s sending and receiving chain keys, the attacker can compute all future message keys and decrypt all future &lt;br&gt;&lt;div style=&quot;&quot;&gt;&lt;span style=&quot;background-color: initial;&quot;&gt;messages. To prevent this, the Double Ratchet combines the symmetric-key &lt;/span&gt;&lt;span style=&quot;background-color: initial;&quot;&gt;ratchet with a &lt;/span&gt;&lt;strong style=&quot;background-color: initial;&quot;&gt;DH ratchet&lt;/strong&gt;&lt;span style=&quot;background-color: initial;&quot;&gt; which updates chain keys based on Diffie-Hellman outputs.&lt;/span&gt;&lt;/div&gt;" style="rounded=0;whiteSpace=wrap;html=1;align=left;" vertex="1" parent="1">
          <mxGeometry x="1400" y="1320" width="200" height="150" as="geometry" />
        </mxCell>
      </root>
    </mxGraphModel>
  </diagram>
</mxfile>
